<svg viewBox="0,0,954,600" xmlns="http://www.w3.org/2000/svg" xmlns:xlink="http://www.w3.org/1999/xlink"><g transform="translate(0,570)" fill="none" font-size="10" font-family="sans-serif" text-anchor="middle"><g class="tick" opacity="1" transform="translate(30.5,0)"><line stroke="currentColor" y2="6"/><text fill="currentColor" y="9" dy="0.71em">October</text></g><g class="tick" opacity="1" transform="translate(107.27808219178083,0)"><line stroke="currentColor" y2="6"/><text fill="currentColor" y="9" dy="0.71em">November</text></g><g class="tick" opacity="1" transform="translate(181.6826484018265,0)"><line stroke="currentColor" y2="6"/><text fill="currentColor" y="9" dy="0.71em">December</text></g><g class="tick" opacity="1" transform="translate(258.4607305936073,0)"><line stroke="currentColor" y2="6"/><text fill="currentColor" y="9" dy="0.71em">2012</text></g><g class="tick" opacity="1" transform="translate(335.2388127853881,0)"><line stroke="currentColor" y2="6"/><text fill="currentColor" y="9" dy="0.71em">February</text></g><g class="tick" opacity="1" transform="translate(407.0634703196347,0)"><line stroke="currentColor" y2="6"/><text fill="currentColor" y="9" dy="0.71em">March</text></g><g class="tick" opacity="1" transform="translate(483.7383561643836,0)"><line stroke="currentColor" y2="6"/><text fill="currentColor" y="9" dy="0.71em">April</text></g><g class="tick" opacity="1" transform="translate(558.0397260273973,0)"><line stroke="currentColor" y2="6"/><text fill="currentColor" y="9" dy="0.71em">May</text></g><g class="tick" opacity="1" transform="translate(634.8178082191781,0)"><line stroke="currentColor" y2="6"/><text fill="currentColor" y="9" dy="0.71em">June</text></g><g class="tick" opacity="1" transform="translate(709.1191780821918,0)"><line stroke="currentColor" y2="6"/><text fill="currentColor" y="9" dy="0.71em">July</text></g><g class="tick" opacity="1" transform="translate(785.8972602739726,0)"><line stroke="currentColor" y2="6"/><text fill="currentColor" y="9" dy="0.71em">August</text></g><g class="tick" opacity="1" transform="translate(862.6753424657534,0)"><line stroke="currentColor" y2="6"/><text fill="currentColor" y="9" dy="0.71em">September</text></g></g><g><g transform="translate(30,0)" fill="none" font-size="10" font-family="sans-serif" text-anchor="end"><g class="tick" opacity="1" transform="translate(0,570.5)"><line stroke="currentColor" x2="-6"/><text fill="currentColor" x="-9" dy="0.32em">0</text></g><g class="tick" opacity="1" transform="translate(0,515.5)"><line stroke="currentColor" x2="-6"/><text fill="currentColor" x="-9" dy="0.32em">10</text></g><g class="tick" opacity="1" transform="translate(0,460.5)"><line stroke="currentColor" x2="-6"/><text fill="currentColor" x="-9" dy="0.32em">20</text></g><g class="tick" opacity="1" transform="translate(0,405.5)"><line stroke="currentColor" x2="-6"/><text fill="currentColor" x="-9" dy="0.32em">30</text></g><g class="tick" opacity="1" transform="translate(0,350.5)"><line stroke="currentColor" x2="-6"/><text fill="currentColor" x="-9" dy="0.32em">40</text></g><g class="tick" opacity="1" transform="translate(0,295.5)"><line stroke="currentColor" x2="-6"/><text fill="currentColor" x="-9" dy="0.32em">50</text></g><g class="tick" opacity="1" transform="translate(0,240.5)"><line stroke="currentColor" x2="-6"/><text fill="currentColor" x="-9" dy="0.32em">60</text></g><g class="tick" opacity="1" transform="translate(0,185.5)"><line stroke="currentColor" x2="-6"/><text fill="currentColor" x="-9" dy="0.32em">70</text></g><g class="tick" opacity="1" transform="translate(0,130.5)"><line stroke="currentColor" x2="-6"/><text fill="currentColor" x="-9" dy="0.32em">80</text></g><g class="tick" opacity="1" transform="translate(0,75.5)"><line stroke="currentColor" x2="-6"/><text fill="currentColor" x="-9" dy="0.32em">90</text></g><g class="tick" opacity="1" transform="translate(0,20.5)"><line stroke="currentColor" x2="-6"/><text fill="currentColor" x="-9" dy="0.32em">100</text><text fill="currentColor" x="3" dy="0.32em" text-anchor="start" font-weight="bold">°F</text></g></g></g><clipPath id="O-above-17"><path d="M30,225.14999999999998L32.47671232876712,240.55L34.95342465753425,244.95L37.43013698630137,246.60000000000002L39.90684931506849,247.14999999999998L42.38356164383562,256.5L44.86027397260274,258.15L47.33698630136986,257.6L49.81369863013698,258.15L52.290410958904104,239.45L54.76712328767123,233.95L57.24383561643836,231.75L59.72054794520548,216.34999999999997L62.1972602739726,200.95000000000005L64.67397260273972,214.70000000000005L67.15068493150685,231.2L69.62739726027397,233.95L72.1041095890411,244.39999999999998L74.58082191780821,246.05L77.05753424657534,255.39999999999998L79.53424657534246,259.8L82.01095890410959,236.15000000000003L84.48767123287672,211.95000000000005L86.96438356164384,235.05L89.44109589041096,261.45L91.91780821917808,269.7L94.3945205479452,261.45L96.87123287671233,250.45000000000005L99.34794520547946,253.75L101.82465753424658,252.64999999999998L104.30136986301369,266.95L106.77808219178083,251.55L109.25479452054795,214.70000000000005L111.73150684931507,260.9L114.2082191780822,292.25L116.68493150684931,287.84999999999997L119.16164383561643,280.7L121.74155251141553,287.3L124.21826484018266,291.7L126.69497716894976,269.7L129.1716894977169,264.2L131.64840182648402,273.54999999999995L134.12511415525114,273L136.60182648401826,274.1L139.07853881278538,275.75L141.5552511415525,276.3L144.03196347031965,282.9L146.50867579908675,280.15L148.98538812785387,277.95L151.46210045662102,300.5L153.9388127853881,292.8L156.41552511415526,288.95L158.89223744292238,282.34999999999997L161.3689497716895,269.7L163.84566210045662,266.95L166.32237442922374,286.75L168.7990867579909,275.2L171.27579908675798,282.34999999999997L173.7525114155251,289.5L176.22922374429226,297.75L178.70593607305935,296.1L181.1826484018265,237.8L183.65936073059362,227.89999999999998L186.1360730593607,249.35000000000002L188.61278538812786,280.15L191.08949771689498,286.75L193.5662100456621,295.55L196.04292237442922,302.7L198.51963470319635,314.8L200.99634703196347,296.1L203.4730593607306,283.45L205.94977168949774,301.6L208.42648401826483,309.3L210.90319634703195,310.4L213.3799086757991,316.45L215.8566210045662,301.6L218.33333333333334,306.55L220.81004566210046,296.1L223.28675799086756,299.95L225.7634703196347,304.35L228.24018264840183,298.85L230.71689497716895,303.8L233.19360730593607,276.85L235.67031963470322,308.75L238.1470319634703,306.55L240.62374429223743,301.05L243.10045662100458,317.55L245.57716894977167,310.4L248.05388127853882,301.05L250.53059360730595,290.05L253.00730593607304,279.05L255.4840182648402,294.45L257.9607305936073,273.54999999999995L260.43744292237443,277.95L262.91415525114155,296.65L265.3908675799087,280.15L267.8675799086758,280.7L270.3442922374429,300.5L272.82100456621004,289.5L275.29771689497716,257.6L277.7744292237443,282.34999999999997L280.2511415525114,286.2L282.7278538812785,296.1L285.20456621004564,284.55L287.68127853881276,274.65L290.1579908675799,279.05L292.634703196347,296.65L295.1114155251142,320.85L297.5881278538813,330.2L300.0648401826484,322.5L302.5415525114155,309.85L305.0182648401826,287.3L307.4949771689498,274.65L309.9716894977169,304.35L312.44840182648403,279.05L314.92511415525115,299.95L317.4018264840182,283.45L319.8785388127854,275.2L322.3552511415525,292.8L324.83196347031964,293.35L327.30867579908676,274.1L329.7853881278539,284.55L332.262100456621,295L334.7388127853881,295L337.21552511415524,287.84999999999997L339.69223744292236,286.75L342.1689497716895,284L344.64566210045666,274.1L347.1223744292237,269.7L349.59908675799085,271.35L352.07579908675797,284.55L354.5525114155251,274.1L357.02922374429227,273.54999999999995L359.5059360730594,282.34999999999997L361.98264840182645,294.45L364.4593607305936,297.75L366.9360730593607,302.7L369.4127853881279,295.55L371.889497716895,281.8L374.3662100456621,295.55L376.84292237442924,286.2L379.31963470319636,307.1L381.7963470319635,302.15L384.2730593607306,296.65L386.7497716894977,276.3L389.22648401826484,272.45L391.70319634703196,262.55L394.1799086757991,285.65L396.6566210045662,307.65L399.1333333333333,320.3L401.61004566210045,311.5L404.0867579908676,296.1L406.5634703196347,301.05L409.0401826484018,305.45L411.51689497716893,291.15L413.99360730593605,267.5L416.47031963470323,301.6L418.94703196347035,303.8L421.4237442922375,295.55L423.90045662100454,299.4L426.37716894977166,285.65L428.85388127853884,298.85L431.33059360730596,295L433.7041095890411,302.7L436.1808219178082,273.54999999999995L438.6575342465753,266.4L441.1342465753425,262.55L443.6109589041096,269.7L446.0876712328767,304.9L448.5643835616438,310.95L451.04109589041093,318.1L453.5178082191781,296.65L455.9945205479452,287.3L458.47123287671235,287.3L460.9479452054794,303.8L463.42465753424653,300.5L465.9013698630137,314.8L468.37808219178083,296.65L470.85479452054796,272.45L473.3315068493151,269.7L475.80821917808214,282.34999999999997L478.2849315068493,270.25L480.76164383561644,260.9L483.2383561643836,288.95L485.71506849315074,292.25L488.19178082191786,282.9L490.6684931506849,291.7L493.14520547945204,306.55L495.62191780821917,309.3L498.0986301369863,298.3L500.5753424657534,295L503.05205479452053,287.84999999999997L505.52876712328765,274.1L508.00547945205483,279.05L510.48219178082195,273.54999999999995L512.9589041095891,293.9L515.4356164383562,290.05L517.9123287671233,286.75L520.3890410958904,284.55L522.8657534246574,277.4L525.3424657534247,278.5L527.8191780821917,266.95L530.2958904109589,263.1L532.7726027397262,251L535.2493150684932,279.59999999999997L537.7260273972603,266.95L540.2027397260274,251.55L542.6794520547945,253.75L545.1561643835616,265.85L547.6328767123288,275.75L550.1095890410959,269.15L552.586301369863,273L555.0630136986301,276.3L557.5397260273973,280.15L560.0164383561644,291.15L562.4931506849315,280.7L564.9698630136986,276.3L567.4465753424657,277.95L569.9232876712329,259.25000000000006L572.4,265.85L574.8767123287671,284L577.3534246575342,281.8L579.8301369863015,276.3L582.3068493150686,277.95L584.7835616438357,295.55L587.2602739726027,284L589.7369863013698,261.99999999999994L592.213698630137,278.5L594.6904109589041,289.5L597.1671232876712,287.3L599.6438356164383,282.9L602.1205479452054,281.8L604.5972602739727,270.25L607.0739726027398,279.59999999999997L609.5506849315069,273.54999999999995L612.027397260274,259.25000000000006L614.5041095890411,269.15L616.9808219178083,281.25L619.4575342465753,283.45L621.9342465753424,282.9L624.4109589041095,279.05L626.8876712328766,283.45L629.3643835616439,283.45L631.841095890411,276.85L634.3178082191781,268.6L636.7945205479452,273L639.2712328767124,282.34999999999997L641.7479452054795,265.85L644.2246575342466,275.75L646.7013698630137,272.45L649.1780821917807,273.54999999999995L651.6547945205479,270.79999999999995L654.1315068493151,267.5L656.6082191780822,240L659.0849315068493,255.39999999999998L661.5616438356165,266.95L664.0383561643836,276.85L666.5150684931507,276.3L668.9917808219178,269.7L671.4684931506849,256.5L673.945205479452,264.2L676.4219178082192,281.25L678.8986301369863,273.54999999999995L681.3753424657534,265.85L683.8520547945205,276.85L686.3287671232877,272.45L688.8054794520548,266.4L691.2821917808219,263.1L693.758904109589,257.6L696.2356164383561,253.75L698.7123287671233,252.64999999999998L701.1890410958904,258.7L703.6657534246576,259.8L706.1424657534247,248.8L708.6191780821918,246.60000000000002L711.0958904109589,259.8L713.572602739726,259.25000000000006L716.0493150684931,263.1L718.5260273972602,268.6L721.0027397260274,268.05L723.4794520547945,269.15L725.9561643835616,279.59999999999997L728.4328767123288,274.65L730.909589041096,277.95L733.3863013698631,280.15L735.8630136986302,284L738.3397260273972,276.3L740.8164383561643,273L743.2931506849314,273L745.7698630136986,270.25L748.2465753424657,258.15L750.7232876712328,253.75L753.2,255.95L755.6767123287672,250.45000000000005L758.1534246575343,253.2L760.6301369863014,261.99999999999994L763.1068493150685,258.7L765.5835616438357,252.10000000000002L768.0602739726028,253.75L770.5369863013698,259.8L773.0136986301369,265.85L775.4904109589041,267.5L777.9671232876713,264.2L780.4438356164384,264.2L782.9205479452055,262.55L785.3972602739726,265.3L787.8739726027397,270.79999999999995L790.3506849315069,274.65L792.827397260274,272.45L795.3041095890411,252.10000000000002L797.7808219178082,249.89999999999998L800.2575342465753,251L802.7342465753425,256.5L805.2109589041096,267.5L807.6876712328767,268.6L810.1643835616438,278.5L812.641095890411,281.25L815.1178082191781,276.85L817.5945205479452,273.54999999999995L820.0712328767123,260.9L822.5479452054794,255.95L825.0246575342467,265.85L827.5013698630137,260.9L829.9780821917808,271.35L832.4547945205479,277.95L834.931506849315,276.3L837.4082191780822,270.25L839.8849315068493,263.65L842.3616438356164,268.6L844.8383561643835,274.1L847.3150684931506,259.25000000000006L849.7917808219179,249.35000000000002L852.268493150685,247.14999999999998L854.7452054794521,253.75L857.2219178082192,262.55L859.6986301369863,265.3L862.1753424657534,263.65L864.6520547945205,277.95L867.1287671232876,275.75L869.6054794520547,281.25L872.0821917808219,270.25L874.5589041095891,260.35L877.0356164383562,259.8L879.5123287671233,259.25000000000006L881.9890410958905,259.8L884.4657534246576,265.3L886.9424657534247,260.9L889.4191780821918,263.65L891.8958904109588,271.35L894.372602739726,266.4L896.8493150684931,271.35L899.3260273972603,279.05L901.8027397260274,268.6L904.2794520547945,268.6L906.7561643835617,257.6L909.2328767123288,265.3L911.7095890410959,263.1L914.186301369863,262.55L916.6630136986302,279.59999999999997L919.1397260273973,270.25L921.6164383561643,276.85L924.0931506849315,275.2L926.5698630136986,283.45L929.0465753424658,280.7L931.5232876712329,273.54999999999995L934,266.95L934,0L931.5232876712329,0L929.0465753424658,0L926.5698630136986,0L924.0931506849315,0L921.6164383561643,0L919.1397260273973,0L916.6630136986302,0L914.186301369863,0L911.7095890410959,0L909.2328767123288,0L906.7561643835617,0L904.2794520547945,0L901.8027397260274,0L899.3260273972603,0L896.8493150684931,0L894.372602739726,0L891.8958904109588,0L889.4191780821918,0L886.9424657534247,0L884.4657534246576,0L881.9890410958905,0L879.5123287671233,0L877.0356164383562,0L874.5589041095891,0L872.0821917808219,0L869.6054794520547,0L867.1287671232876,0L864.6520547945205,0L862.1753424657534,0L859.6986301369863,0L857.2219178082192,0L854.7452054794521,0L852.268493150685,0L849.7917808219179,0L847.3150684931506,0L844.8383561643835,0L842.3616438356164,0L839.8849315068493,0L837.4082191780822,0L834.931506849315,0L832.4547945205479,0L829.9780821917808,0L827.5013698630137,0L825.0246575342467,0L822.5479452054794,0L820.0712328767123,0L817.5945205479452,0L815.1178082191781,0L812.641095890411,0L810.1643835616438,0L807.6876712328767,0L805.2109589041096,0L802.7342465753425,0L800.2575342465753,0L797.7808219178082,0L795.3041095890411,0L792.827397260274,0L790.3506849315069,0L787.8739726027397,0L785.3972602739726,0L782.9205479452055,0L780.4438356164384,0L777.9671232876713,0L775.4904109589041,0L773.0136986301369,0L770.5369863013698,0L768.0602739726028,0L765.5835616438357,0L763.1068493150685,0L760.6301369863014,0L758.1534246575343,0L755.6767123287672,0L753.2,0L750.7232876712328,0L748.2465753424657,0L745.7698630136986,0L743.2931506849314,0L740.8164383561643,0L738.3397260273972,0L735.8630136986302,0L733.3863013698631,0L730.909589041096,0L728.4328767123288,0L725.9561643835616,0L723.4794520547945,0L721.0027397260274,0L718.5260273972602,0L716.0493150684931,0L713.572602739726,0L711.0958904109589,0L708.6191780821918,0L706.1424657534247,0L703.6657534246576,0L701.1890410958904,0L698.7123287671233,0L696.2356164383561,0L693.758904109589,0L691.2821917808219,0L688.8054794520548,0L686.3287671232877,0L683.8520547945205,0L681.3753424657534,0L678.8986301369863,0L676.4219178082192,0L673.945205479452,0L671.4684931506849,0L668.9917808219178,0L666.5150684931507,0L664.0383561643836,0L661.5616438356165,0L659.0849315068493,0L656.6082191780822,0L654.1315068493151,0L651.6547945205479,0L649.1780821917807,0L646.7013698630137,0L644.2246575342466,0L641.7479452054795,0L639.2712328767124,0L636.7945205479452,0L634.3178082191781,0L631.841095890411,0L629.3643835616439,0L626.8876712328766,0L624.4109589041095,0L621.9342465753424,0L619.4575342465753,0L616.9808219178083,0L614.5041095890411,0L612.027397260274,0L609.5506849315069,0L607.0739726027398,0L604.5972602739727,0L602.1205479452054,0L599.6438356164383,0L597.1671232876712,0L594.6904109589041,0L592.213698630137,0L589.7369863013698,0L587.2602739726027,0L584.7835616438357,0L582.3068493150686,0L579.8301369863015,0L577.3534246575342,0L574.8767123287671,0L572.4,0L569.9232876712329,0L567.4465753424657,0L564.9698630136986,0L562.4931506849315,0L560.0164383561644,0L557.5397260273973,0L555.0630136986301,0L552.586301369863,0L550.1095890410959,0L547.6328767123288,0L545.1561643835616,0L542.6794520547945,0L540.2027397260274,0L537.7260273972603,0L535.2493150684932,0L532.7726027397262,0L530.2958904109589,0L527.8191780821917,0L525.3424657534247,0L522.8657534246574,0L520.3890410958904,0L517.9123287671233,0L515.4356164383562,0L512.9589041095891,0L510.48219178082195,0L508.00547945205483,0L505.52876712328765,0L503.05205479452053,0L500.5753424657534,0L498.0986301369863,0L495.62191780821917,0L493.14520547945204,0L490.6684931506849,0L488.19178082191786,0L485.71506849315074,0L483.2383561643836,0L480.76164383561644,0L478.2849315068493,0L475.80821917808214,0L473.3315068493151,0L470.85479452054796,0L468.37808219178083,0L465.9013698630137,0L463.42465753424653,0L460.9479452054794,0L458.47123287671235,0L455.9945205479452,0L453.5178082191781,0L451.04109589041093,0L448.5643835616438,0L446.0876712328767,0L443.6109589041096,0L441.1342465753425,0L438.6575342465753,0L436.1808219178082,0L433.7041095890411,0L431.33059360730596,0L428.85388127853884,0L426.37716894977166,0L423.90045662100454,0L421.4237442922375,0L418.94703196347035,0L416.47031963470323,0L413.99360730593605,0L411.51689497716893,0L409.0401826484018,0L406.5634703196347,0L404.0867579908676,0L401.61004566210045,0L399.1333333333333,0L396.6566210045662,0L394.1799086757991,0L391.70319634703196,0L389.22648401826484,0L386.7497716894977,0L384.2730593607306,0L381.7963470319635,0L379.31963470319636,0L376.84292237442924,0L374.3662100456621,0L371.889497716895,0L369.4127853881279,0L366.9360730593607,0L364.4593607305936,0L361.98264840182645,0L359.5059360730594,0L357.02922374429227,0L354.5525114155251,0L352.07579908675797,0L349.59908675799085,0L347.1223744292237,0L344.64566210045666,0L342.1689497716895,0L339.69223744292236,0L337.21552511415524,0L334.7388127853881,0L332.262100456621,0L329.7853881278539,0L327.30867579908676,0L324.83196347031964,0L322.3552511415525,0L319.8785388127854,0L317.4018264840182,0L314.92511415525115,0L312.44840182648403,0L309.9716894977169,0L307.4949771689498,0L305.0182648401826,0L302.5415525114155,0L300.0648401826484,0L297.5881278538813,0L295.1114155251142,0L292.634703196347,0L290.1579908675799,0L287.68127853881276,0L285.20456621004564,0L282.7278538812785,0L280.2511415525114,0L277.7744292237443,0L275.29771689497716,0L272.82100456621004,0L270.3442922374429,0L267.8675799086758,0L265.3908675799087,0L262.91415525114155,0L260.43744292237443,0L257.9607305936073,0L255.4840182648402,0L253.00730593607304,0L250.53059360730595,0L248.05388127853882,0L245.57716894977167,0L243.10045662100458,0L240.62374429223743,0L238.1470319634703,0L235.67031963470322,0L233.19360730593607,0L230.71689497716895,0L228.24018264840183,0L225.7634703196347,0L223.28675799086756,0L220.81004566210046,0L218.33333333333334,0L215.8566210045662,0L213.3799086757991,0L210.90319634703195,0L208.42648401826483,0L205.94977168949774,0L203.4730593607306,0L200.99634703196347,0L198.51963470319635,0L196.04292237442922,0L193.5662100456621,0L191.08949771689498,0L188.61278538812786,0L186.1360730593607,0L183.65936073059362,0L181.1826484018265,0L178.70593607305935,0L176.22922374429226,0L173.7525114155251,0L171.27579908675798,0L168.7990867579909,0L166.32237442922374,0L163.84566210045662,0L161.3689497716895,0L158.89223744292238,0L156.41552511415526,0L153.9388127853881,0L151.46210045662102,0L148.98538812785387,0L146.50867579908675,0L144.03196347031965,0L141.5552511415525,0L139.07853881278538,0L136.60182648401826,0L134.12511415525114,0L131.64840182648402,0L129.1716894977169,0L126.69497716894976,0L124.21826484018266,0L121.74155251141553,0L119.16164383561643,0L116.68493150684931,0L114.2082191780822,0L111.73150684931507,0L109.25479452054795,0L106.77808219178083,0L104.30136986301369,0L101.82465753424658,0L99.34794520547946,0L96.87123287671233,0L94.3945205479452,0L91.91780821917808,0L89.44109589041096,0L86.96438356164384,0L84.48767123287672,0L82.01095890410959,0L79.53424657534246,0L77.05753424657534,0L74.58082191780821,0L72.1041095890411,0L69.62739726027397,0L67.15068493150685,0L64.67397260273972,0L62.1972602739726,0L59.72054794520548,0L57.24383561643836,0L54.76712328767123,0L52.290410958904104,0L49.81369863013698,0L47.33698630136986,0L44.86027397260274,0L42.38356164383562,0L39.90684931506849,0L37.43013698630137,0L34.95342465753425,0L32.47671232876712,0L30,0Z"/></clipPath><clipPath id="O-below-18"><path d="M30,225.14999999999998L32.47671232876712,240.55L34.95342465753425,244.95L37.43013698630137,246.60000000000002L39.90684931506849,247.14999999999998L42.38356164383562,256.5L44.86027397260274,258.15L47.33698630136986,257.6L49.81369863013698,258.15L52.290410958904104,239.45L54.76712328767123,233.95L57.24383561643836,231.75L59.72054794520548,216.34999999999997L62.1972602739726,200.95000000000005L64.67397260273972,214.70000000000005L67.15068493150685,231.2L69.62739726027397,233.95L72.1041095890411,244.39999999999998L74.58082191780821,246.05L77.05753424657534,255.39999999999998L79.53424657534246,259.8L82.01095890410959,236.15000000000003L84.48767123287672,211.95000000000005L86.96438356164384,235.05L89.44109589041096,261.45L91.91780821917808,269.7L94.3945205479452,261.45L96.87123287671233,250.45000000000005L99.34794520547946,253.75L101.82465753424658,252.64999999999998L104.30136986301369,266.95L106.77808219178083,251.55L109.25479452054795,214.70000000000005L111.73150684931507,260.9L114.2082191780822,292.25L116.68493150684931,287.84999999999997L119.16164383561643,280.7L121.74155251141553,287.3L124.21826484018266,291.7L126.69497716894976,269.7L129.1716894977169,264.2L131.64840182648402,273.54999999999995L134.12511415525114,273L136.60182648401826,274.1L139.07853881278538,275.75L141.5552511415525,276.3L144.03196347031965,282.9L146.50867579908675,280.15L148.98538812785387,277.95L151.46210045662102,300.5L153.9388127853881,292.8L156.41552511415526,288.95L158.89223744292238,282.34999999999997L161.3689497716895,269.7L163.84566210045662,266.95L166.32237442922374,286.75L168.7990867579909,275.2L171.27579908675798,282.34999999999997L173.7525114155251,289.5L176.22922374429226,297.75L178.70593607305935,296.1L181.1826484018265,237.8L183.65936073059362,227.89999999999998L186.1360730593607,249.35000000000002L188.61278538812786,280.15L191.08949771689498,286.75L193.5662100456621,295.55L196.04292237442922,302.7L198.51963470319635,314.8L200.99634703196347,296.1L203.4730593607306,283.45L205.94977168949774,301.6L208.42648401826483,309.3L210.90319634703195,310.4L213.3799086757991,316.45L215.8566210045662,301.6L218.33333333333334,306.55L220.81004566210046,296.1L223.28675799086756,299.95L225.7634703196347,304.35L228.24018264840183,298.85L230.71689497716895,303.8L233.19360730593607,276.85L235.67031963470322,308.75L238.1470319634703,306.55L240.62374429223743,301.05L243.10045662100458,317.55L245.57716894977167,310.4L248.05388127853882,301.05L250.53059360730595,290.05L253.00730593607304,279.05L255.4840182648402,294.45L257.9607305936073,273.54999999999995L260.43744292237443,277.95L262.91415525114155,296.65L265.3908675799087,280.15L267.8675799086758,280.7L270.3442922374429,300.5L272.82100456621004,289.5L275.29771689497716,257.6L277.7744292237443,282.34999999999997L280.2511415525114,286.2L282.7278538812785,296.1L285.20456621004564,284.55L287.68127853881276,274.65L290.1579908675799,279.05L292.634703196347,296.65L295.1114155251142,320.85L297.5881278538813,330.2L300.0648401826484,322.5L302.5415525114155,309.85L305.0182648401826,287.3L307.4949771689498,274.65L309.9716894977169,304.35L312.44840182648403,279.05L314.92511415525115,299.95L317.4018264840182,283.45L319.8785388127854,275.2L322.3552511415525,292.8L324.83196347031964,293.35L327.30867579908676,274.1L329.7853881278539,284.55L332.262100456621,295L334.7388127853881,295L337.21552511415524,287.84999999999997L339.69223744292236,286.75L342.1689497716895,284L344.64566210045666,274.1L347.1223744292237,269.7L349.59908675799085,271.35L352.07579908675797,284.55L354.5525114155251,274.1L357.02922374429227,273.54999999999995L359.5059360730594,282.34999999999997L361.98264840182645,294.45L364.4593607305936,297.75L366.9360730593607,302.7L369.4127853881279,295.55L371.889497716895,281.8L374.3662100456621,295.55L376.84292237442924,286.2L379.31963470319636,307.1L381.7963470319635,302.15L384.2730593607306,296.65L386.7497716894977,276.3L389.22648401826484,272.45L391.70319634703196,262.55L394.1799086757991,285.65L396.6566210045662,307.65L399.1333333333333,320.3L401.61004566210045,311.5L404.0867579908676,296.1L406.5634703196347,301.05L409.0401826484018,305.45L411.51689497716893,291.15L413.99360730593605,267.5L416.47031963470323,301.6L418.94703196347035,303.8L421.4237442922375,295.55L423.90045662100454,299.4L426.37716894977166,285.65L428.85388127853884,298.85L431.33059360730596,295L433.7041095890411,302.7L436.1808219178082,273.54999999999995L438.6575342465753,266.4L441.1342465753425,262.55L443.6109589041096,269.7L446.0876712328767,304.9L448.5643835616438,310.95L451.04109589041093,318.1L453.5178082191781,296.65L455.9945205479452,287.3L458.47123287671235,287.3L460.9479452054794,303.8L463.42465753424653,300.5L465.9013698630137,314.8L468.37808219178083,296.65L470.85479452054796,272.45L473.3315068493151,269.7L475.80821917808214,282.34999999999997L478.2849315068493,270.25L480.76164383561644,260.9L483.2383561643836,288.95L485.71506849315074,292.25L488.19178082191786,282.9L490.6684931506849,291.7L493.14520547945204,306.55L495.62191780821917,309.3L498.0986301369863,298.3L500.5753424657534,295L503.05205479452053,287.84999999999997L505.52876712328765,274.1L508.00547945205483,279.05L510.48219178082195,273.54999999999995L512.9589041095891,293.9L515.4356164383562,290.05L517.9123287671233,286.75L520.3890410958904,284.55L522.8657534246574,277.4L525.3424657534247,278.5L527.8191780821917,266.95L530.2958904109589,263.1L532.7726027397262,251L535.2493150684932,279.59999999999997L537.7260273972603,266.95L540.2027397260274,251.55L542.6794520547945,253.75L545.1561643835616,265.85L547.6328767123288,275.75L550.1095890410959,269.15L552.586301369863,273L555.0630136986301,276.3L557.5397260273973,280.15L560.0164383561644,291.15L562.4931506849315,280.7L564.9698630136986,276.3L567.4465753424657,277.95L569.9232876712329,259.25000000000006L572.4,265.85L574.8767123287671,284L577.3534246575342,281.8L579.8301369863015,276.3L582.3068493150686,277.95L584.7835616438357,295.55L587.2602739726027,284L589.7369863013698,261.99999999999994L592.213698630137,278.5L594.6904109589041,289.5L597.1671232876712,287.3L599.6438356164383,282.9L602.1205479452054,281.8L604.5972602739727,270.25L607.0739726027398,279.59999999999997L609.5506849315069,273.54999999999995L612.027397260274,259.25000000000006L614.5041095890411,269.15L616.9808219178083,281.25L619.4575342465753,283.45L621.9342465753424,282.9L624.4109589041095,279.05L626.8876712328766,283.45L629.3643835616439,283.45L631.841095890411,276.85L634.3178082191781,268.6L636.7945205479452,273L639.2712328767124,282.34999999999997L641.7479452054795,265.85L644.2246575342466,275.75L646.7013698630137,272.45L649.1780821917807,273.54999999999995L651.6547945205479,270.79999999999995L654.1315068493151,267.5L656.6082191780822,240L659.0849315068493,255.39999999999998L661.5616438356165,266.95L664.0383561643836,276.85L666.5150684931507,276.3L668.9917808219178,269.7L671.4684931506849,256.5L673.945205479452,264.2L676.4219178082192,281.25L678.8986301369863,273.54999999999995L681.3753424657534,265.85L683.8520547945205,276.85L686.3287671232877,272.45L688.8054794520548,266.4L691.2821917808219,263.1L693.758904109589,257.6L696.2356164383561,253.75L698.7123287671233,252.64999999999998L701.1890410958904,258.7L703.6657534246576,259.8L706.1424657534247,248.8L708.6191780821918,246.60000000000002L711.0958904109589,259.8L713.572602739726,259.25000000000006L716.0493150684931,263.1L718.5260273972602,268.6L721.0027397260274,268.05L723.4794520547945,269.15L725.9561643835616,279.59999999999997L728.4328767123288,274.65L730.909589041096,277.95L733.3863013698631,280.15L735.8630136986302,284L738.3397260273972,276.3L740.8164383561643,273L743.2931506849314,273L745.7698630136986,270.25L748.2465753424657,258.15L750.7232876712328,253.75L753.2,255.95L755.6767123287672,250.45000000000005L758.1534246575343,253.2L760.6301369863014,261.99999999999994L763.1068493150685,258.7L765.5835616438357,252.10000000000002L768.0602739726028,253.75L770.5369863013698,259.8L773.0136986301369,265.85L775.4904109589041,267.5L777.9671232876713,264.2L780.4438356164384,264.2L782.9205479452055,262.55L785.3972602739726,265.3L787.8739726027397,270.79999999999995L790.3506849315069,274.65L792.827397260274,272.45L795.3041095890411,252.10000000000002L797.7808219178082,249.89999999999998L800.2575342465753,251L802.7342465753425,256.5L805.2109589041096,267.5L807.6876712328767,268.6L810.1643835616438,278.5L812.641095890411,281.25L815.1178082191781,276.85L817.5945205479452,273.54999999999995L820.0712328767123,260.9L822.5479452054794,255.95L825.0246575342467,265.85L827.5013698630137,260.9L829.9780821917808,271.35L832.4547945205479,277.95L834.931506849315,276.3L837.4082191780822,270.25L839.8849315068493,263.65L842.3616438356164,268.6L844.8383561643835,274.1L847.3150684931506,259.25000000000006L849.7917808219179,249.35000000000002L852.268493150685,247.14999999999998L854.7452054794521,253.75L857.2219178082192,262.55L859.6986301369863,265.3L862.1753424657534,263.65L864.6520547945205,277.95L867.1287671232876,275.75L869.6054794520547,281.25L872.0821917808219,270.25L874.5589041095891,260.35L877.0356164383562,259.8L879.5123287671233,259.25000000000006L881.9890410958905,259.8L884.4657534246576,265.3L886.9424657534247,260.9L889.4191780821918,263.65L891.8958904109588,271.35L894.372602739726,266.4L896.8493150684931,271.35L899.3260273972603,279.05L901.8027397260274,268.6L904.2794520547945,268.6L906.7561643835617,257.6L909.2328767123288,265.3L911.7095890410959,263.1L914.186301369863,262.55L916.6630136986302,279.59999999999997L919.1397260273973,270.25L921.6164383561643,276.85L924.0931506849315,275.2L926.5698630136986,283.45L929.0465753424658,280.7L931.5232876712329,273.54999999999995L934,266.95L934,600L931.5232876712329,600L929.0465753424658,600L926.5698630136986,600L924.0931506849315,600L921.6164383561643,600L919.1397260273973,600L916.6630136986302,600L914.186301369863,600L911.7095890410959,600L909.2328767123288,600L906.7561643835617,600L904.2794520547945,600L901.8027397260274,600L899.3260273972603,600L896.8493150684931,600L894.372602739726,600L891.8958904109588,600L889.4191780821918,600L886.9424657534247,600L884.4657534246576,600L881.9890410958905,600L879.5123287671233,600L877.0356164383562,600L874.5589041095891,600L872.0821917808219,600L869.6054794520547,600L867.1287671232876,600L864.6520547945205,600L862.1753424657534,600L859.6986301369863,600L857.2219178082192,600L854.7452054794521,600L852.268493150685,600L849.7917808219179,600L847.3150684931506,600L844.8383561643835,600L842.3616438356164,600L839.8849315068493,600L837.4082191780822,600L834.931506849315,600L832.4547945205479,600L829.9780821917808,600L827.5013698630137,600L825.0246575342467,600L822.5479452054794,600L820.0712328767123,600L817.5945205479452,600L815.1178082191781,600L812.641095890411,600L810.1643835616438,600L807.6876712328767,600L805.2109589041096,600L802.7342465753425,600L800.2575342465753,600L797.7808219178082,600L795.3041095890411,600L792.827397260274,600L790.3506849315069,600L787.8739726027397,600L785.3972602739726,600L782.9205479452055,600L780.4438356164384,600L777.9671232876713,600L775.4904109589041,600L773.0136986301369,600L770.5369863013698,600L768.0602739726028,600L765.5835616438357,600L763.1068493150685,600L760.6301369863014,600L758.1534246575343,600L755.6767123287672,600L753.2,600L750.7232876712328,600L748.2465753424657,600L745.7698630136986,600L743.2931506849314,600L740.8164383561643,600L738.3397260273972,600L735.8630136986302,600L733.3863013698631,600L730.909589041096,600L728.4328767123288,600L725.9561643835616,600L723.4794520547945,600L721.0027397260274,600L718.5260273972602,600L716.0493150684931,600L713.572602739726,600L711.0958904109589,600L708.6191780821918,600L706.1424657534247,600L703.6657534246576,600L701.1890410958904,600L698.7123287671233,600L696.2356164383561,600L693.758904109589,600L691.2821917808219,600L688.8054794520548,600L686.3287671232877,600L683.8520547945205,600L681.3753424657534,600L678.8986301369863,600L676.4219178082192,600L673.945205479452,600L671.4684931506849,600L668.9917808219178,600L666.5150684931507,600L664.0383561643836,600L661.5616438356165,600L659.0849315068493,600L656.6082191780822,600L654.1315068493151,600L651.6547945205479,600L649.1780821917807,600L646.7013698630137,600L644.2246575342466,600L641.7479452054795,600L639.2712328767124,600L636.7945205479452,600L634.3178082191781,600L631.841095890411,600L629.3643835616439,600L626.8876712328766,600L624.4109589041095,600L621.9342465753424,600L619.4575342465753,600L616.9808219178083,600L614.5041095890411,600L612.027397260274,600L609.5506849315069,600L607.0739726027398,600L604.5972602739727,600L602.1205479452054,600L599.6438356164383,600L597.1671232876712,600L594.6904109589041,600L592.213698630137,600L589.7369863013698,600L587.2602739726027,600L584.7835616438357,600L582.3068493150686,600L579.8301369863015,600L577.3534246575342,600L574.8767123287671,600L572.4,600L569.9232876712329,600L567.4465753424657,600L564.9698630136986,600L562.4931506849315,600L560.0164383561644,600L557.5397260273973,600L555.0630136986301,600L552.586301369863,600L550.1095890410959,600L547.6328767123288,600L545.1561643835616,600L542.6794520547945,600L540.2027397260274,600L537.7260273972603,600L535.2493150684932,600L532.7726027397262,600L530.2958904109589,600L527.8191780821917,600L525.3424657534247,600L522.8657534246574,600L520.3890410958904,600L517.9123287671233,600L515.4356164383562,600L512.9589041095891,600L510.48219178082195,600L508.00547945205483,600L505.52876712328765,600L503.05205479452053,600L500.5753424657534,600L498.0986301369863,600L495.62191780821917,600L493.14520547945204,600L490.6684931506849,600L488.19178082191786,600L485.71506849315074,600L483.2383561643836,600L480.76164383561644,600L478.2849315068493,600L475.80821917808214,600L473.3315068493151,600L470.85479452054796,600L468.37808219178083,600L465.9013698630137,600L463.42465753424653,600L460.9479452054794,600L458.47123287671235,600L455.9945205479452,600L453.5178082191781,600L451.04109589041093,600L448.5643835616438,600L446.0876712328767,600L443.6109589041096,600L441.1342465753425,600L438.6575342465753,600L436.1808219178082,600L433.7041095890411,600L431.33059360730596,600L428.85388127853884,600L426.37716894977166,600L423.90045662100454,600L421.4237442922375,600L418.94703196347035,600L416.47031963470323,600L413.99360730593605,600L411.51689497716893,600L409.0401826484018,600L406.5634703196347,600L404.0867579908676,600L401.61004566210045,600L399.1333333333333,600L396.6566210045662,600L394.1799086757991,600L391.70319634703196,600L389.22648401826484,600L386.7497716894977,600L384.2730593607306,600L381.7963470319635,600L379.31963470319636,600L376.84292237442924,600L374.3662100456621,600L371.889497716895,600L369.4127853881279,600L366.9360730593607,600L364.4593607305936,600L361.98264840182645,600L359.5059360730594,600L357.02922374429227,600L354.5525114155251,600L352.07579908675797,600L349.59908675799085,600L347.1223744292237,600L344.64566210045666,600L342.1689497716895,600L339.69223744292236,600L337.21552511415524,600L334.7388127853881,600L332.262100456621,600L329.7853881278539,600L327.30867579908676,600L324.83196347031964,600L322.3552511415525,600L319.8785388127854,600L317.4018264840182,600L314.92511415525115,600L312.44840182648403,600L309.9716894977169,600L307.4949771689498,600L305.0182648401826,600L302.5415525114155,600L300.0648401826484,600L297.5881278538813,600L295.1114155251142,600L292.634703196347,600L290.1579908675799,600L287.68127853881276,600L285.20456621004564,600L282.7278538812785,600L280.2511415525114,600L277.7744292237443,600L275.29771689497716,600L272.82100456621004,600L270.3442922374429,600L267.8675799086758,600L265.3908675799087,600L262.91415525114155,600L260.43744292237443,600L257.9607305936073,600L255.4840182648402,600L253.00730593607304,600L250.53059360730595,600L248.05388127853882,600L245.57716894977167,600L243.10045662100458,600L240.62374429223743,600L238.1470319634703,600L235.67031963470322,600L233.19360730593607,600L230.71689497716895,600L228.24018264840183,600L225.7634703196347,600L223.28675799086756,600L220.81004566210046,600L218.33333333333334,600L215.8566210045662,600L213.3799086757991,600L210.90319634703195,600L208.42648401826483,600L205.94977168949774,600L203.4730593607306,600L200.99634703196347,600L198.51963470319635,600L196.04292237442922,600L193.5662100456621,600L191.08949771689498,600L188.61278538812786,600L186.1360730593607,600L183.65936073059362,600L181.1826484018265,600L178.70593607305935,600L176.22922374429226,600L173.7525114155251,600L171.27579908675798,600L168.7990867579909,600L166.32237442922374,600L163.84566210045662,600L161.3689497716895,600L158.89223744292238,600L156.41552511415526,600L153.9388127853881,600L151.46210045662102,600L148.98538812785387,600L146.50867579908675,600L144.03196347031965,600L141.5552511415525,600L139.07853881278538,600L136.60182648401826,600L134.12511415525114,600L131.64840182648402,600L129.1716894977169,600L126.69497716894976,600L124.21826484018266,600L121.74155251141553,600L119.16164383561643,600L116.68493150684931,600L114.2082191780822,600L111.73150684931507,600L109.25479452054795,600L106.77808219178083,600L104.30136986301369,600L101.82465753424658,600L99.34794520547946,600L96.87123287671233,600L94.3945205479452,600L91.91780821917808,600L89.44109589041096,600L86.96438356164384,600L84.48767123287672,600L82.01095890410959,600L79.53424657534246,600L77.05753424657534,600L74.58082191780821,600L72.1041095890411,600L69.62739726027397,600L67.15068493150685,600L64.67397260273972,600L62.1972602739726,600L59.72054794520548,600L57.24383561643836,600L54.76712328767123,600L52.290410958904104,600L49.81369863013698,600L47.33698630136986,600L44.86027397260274,600L42.38356164383562,600L39.90684931506849,600L37.43013698630137,600L34.95342465753425,600L32.47671232876712,600L30,600Z"/></clipPath><path fill="none" stroke="black" stroke-width="1.5" stroke-linejoin="round" stroke-linecap="round" d="M30,221.3L32.47671232876712,251L34.95342465753425,276.85L37.43013698630137,263.65L39.90684931506849,216.89999999999998L42.38356164383562,246.60000000000002L44.86027397260274,251.55L47.33698630136986,230.10000000000002L49.81369863013698,188.85000000000002L52.290410958904104,178.39999999999998L54.76712328767123,192.14999999999998L57.24383561643836,230.10000000000002L59.72054794520548,223.5L62.1972602739726,202.04999999999995L64.67397260273972,230.64999999999998L67.15068493150685,230.10000000000002L69.62739726027397,224.60000000000002L72.1041095890411,235.60000000000002L74.58082191780821,228.45L77.05753424657534,211.95000000000005L79.53424657534246,264.2L82.01095890410959,270.79999999999995L84.48767123287672,270.79999999999995L86.96438356164384,268.6L89.44109589041096,251.55L91.91780821917808,269.7L94.3945205479452,270.79999999999995L96.87123287671233,336.25L99.34794520547946,345.05L101.82465753424658,357.7L104.30136986301369,326.9L106.77808219178083,297.2L109.25479452054795,310.4L111.73150684931507,294.45L114.2082191780822,294.45L116.68493150684931,330.75L119.16164383561643,329.1L121.74155251141553,301.05L124.21826484018266,264.75L126.69497716894976,274.65L129.1716894977169,252.64999999999998L131.64840182648402,303.25L134.12511415525114,312.6L136.60182648401826,288.95L139.07853881278538,257.6L141.5552511415525,241.65000000000003L144.03196347031965,259.25000000000006L146.50867579908675,297.2L148.98538812785387,341.75L151.46210045662102,326.35L153.9388127853881,273L156.41552511415526,272.45L158.89223744292238,298.3L161.3689497716895,295L163.84566210045662,328L166.32237442922374,293.35L168.7990867579909,283.45L171.27579908675798,297.2L173.7525114155251,255.39999999999998L176.22922374429226,244.95L178.70593607305935,291.7L181.1826484018265,326.35L183.65936073059362,328.55L186.1360730593607,338.45L188.61278538812786,328.55L191.08949771689498,293.9L193.5662100456621,271.9L196.04292237442922,269.7L198.51963470319635,331.3L200.99634703196347,337.9L203.4730593607306,322.5L205.94977168949774,384.1L208.42648401826483,367.6L210.90319634703195,357.7L213.3799086757991,339.55L215.8566210045662,297.2L218.33333333333334,293.9L220.81004566210046,346.7L223.28675799086756,409.95L225.7634703196347,384.65L228.24018264840183,318.1L230.71689497716895,309.3L233.19360730593607,270.79999999999995L235.67031963470322,307.1L238.1470319634703,378.05L240.62374429223743,372.55L243.10045662100458,330.2L245.57716894977167,334.05L248.05388127853882,315.9L250.53059360730595,400.6L253.00730593607304,345.6L255.4840182648402,296.1L257.9607305936073,315.35L260.43744292237443,332.4L262.91415525114155,403.35L265.3908675799087,464.4L267.8675799086758,393.45L270.3442922374429,343.4L272.82100456621004,311.5L275.29771689497716,317L277.7744292237443,379.15L280.2511415525114,353.3L282.7278538812785,347.8L285.20456621004564,320.3L287.68127853881276,346.15L290.1579908675799,402.8L292.634703196347,438.55L295.1114155251142,445.7L297.5881278538813,351.1L300.0648401826484,332.4L302.5415525114155,425.35L305.0182648401826,389.6L307.4949771689498,419.3L309.9716894977169,432.5L312.44840182648403,353.3L314.92511415525115,302.15L317.4018264840182,333.5L319.8785388127854,365.95L322.3552511415525,304.9L324.83196347031964,329.65L327.30867579908676,349.45L329.7853881278539,361L332.262100456621,330.75L334.7388127853881,292.8L337.21552511415524,318.1L339.69223744292236,363.75L342.1689497716895,345.6L344.64566210045666,369.25L347.1223744292237,354.95L349.59908675799085,332.4L352.07579908675797,369.25L354.5525114155251,369.25L357.02922374429227,359.35L359.5059360730594,367.05L361.98264840182645,406.65L364.4593607305936,387.95L366.9360730593607,352.2L369.4127853881279,337.35L371.889497716895,351.65L374.3662100456621,317L376.84292237442924,343.4L379.31963470319636,351.1L381.7963470319635,360.45L384.2730593607306,365.95L386.7497716894977,319.75L389.22648401826484,291.7L391.70319634703196,335.15L394.1799086757991,335.70000000000005L396.6566210045662,367.05L399.1333333333333,345.05L401.61004566210045,317.55L404.0867579908676,346.15L406.5634703196347,342.85L409.0401826484018,367.6L411.51689497716893,308.2L413.99360730593605,326.9L416.47031963470323,358.25L418.94703196347035,389.05L421.4237442922375,331.85L423.90045662100454,288.4L426.37716894977166,307.1L428.85388127853884,365.4L431.33059360730596,334.05L433.7041095890411,301.6L436.1808219178082,280.7L438.6575342465753,237.25L441.1342465753425,310.4L443.6109589041096,324.15L446.0876712328767,304.9L448.5643835616438,304.9L451.04109589041093,277.95L453.5178082191781,252.10000000000002L455.9945205479452,253.75L458.47123287671235,254.85000000000002L460.9479452054794,230.64999999999998L463.42465753424653,263.1L465.9013698630137,303.8L468.37808219178083,296.1L470.85479452054796,352.2L473.3315068493151,296.65L475.80821917808214,257.6L478.2849315068493,314.25L480.76164383561644,337.9L483.2383561643836,320.85L485.71506849315074,305.45L488.19178082191786,288.4L490.6684931506849,234.5L493.14520547945204,291.15L495.62191780821917,306L498.0986301369863,288.95L500.5753424657534,263.65L503.05205479452053,249.35000000000002L505.52876712328765,267.5L508.00547945205483,300.5L510.48219178082195,285.65L512.9589041095891,277.95L515.4356164383562,266.4L517.9123287671233,227.35000000000002L520.3890410958904,224.05L522.8657534246574,188.85000000000002L525.3424657534247,245.5L527.8191780821917,272.45L530.2958904109589,259.25000000000006L532.7726027397262,249.89999999999998L535.2493150684932,281.8L537.7260273972603,286.2L540.2027397260274,298.85L542.6794520547945,281.25L545.1561643835616,292.25L547.6328767123288,284.55L550.1095890410959,309.3L552.586301369863,272.45L555.0630136986301,284.55L557.5397260273973,254.3L560.0164383561644,274.65L562.4931506849315,277.95L564.9698630136986,255.39999999999998L567.4465753424657,256.5L569.9232876712329,258.7L572.4,269.7L574.8767123287671,251.55L577.3534246575342,244.39999999999998L579.8301369863015,233.95L582.3068493150686,241.65000000000003L584.7835616438357,217.45000000000005L587.2602739726027,210.84999999999997L589.7369863013698,216.89999999999998L592.213698630137,229L594.6904109589041,219.09999999999997L597.1671232876712,215.25L599.6438356164383,234.5L602.1205479452054,225.7L604.5972602739727,205.89999999999998L607.0739726027398,225.14999999999998L609.5506849315069,219.64999999999998L612.027397260274,204.79999999999995L614.5041095890411,215.25L616.9808219178083,210.3L619.4575342465753,188.29999999999995L621.9342465753424,174.54999999999995L624.4109589041095,160.79999999999995L626.8876712328766,152.55L629.3643835616439,169.04999999999995L631.841095890411,171.25L634.3178082191781,200.39999999999998L636.7945205479452,194.35000000000002L639.2712328767124,197.64999999999998L641.7479452054795,229.55L644.2246575342466,249.35000000000002L646.7013698630137,230.64999999999998L649.1780821917807,203.14999999999998L651.6547945205479,192.14999999999998L654.1315068493151,172.90000000000003L656.6082191780822,170.7L659.0849315068493,189.39999999999998L661.5616438356165,202.04999999999995L664.0383561643836,203.14999999999998L666.5150684931507,197.64999999999998L668.9917808219178,193.24999999999994L671.4684931506849,198.75L673.945205479452,216.89999999999998L676.4219178082192,230.64999999999998L678.8986301369863,204.79999999999995L681.3753424657534,141.55L683.8520547945205,84.35000000000002L686.3287671232877,117.89999999999998L688.8054794520548,146.5L691.2821917808219,155.3L693.758904109589,180.04999999999995L696.2356164383561,207.55L698.7123287671233,165.75L701.1890410958904,144.3L703.6657534246576,132.20000000000005L706.1424657534247,106.89999999999998L708.6191780821918,120.10000000000002L711.0958904109589,116.25L713.572602739726,128.89999999999998L716.0493150684931,142.09999999999997L718.5260273972602,96.44999999999999L721.0027397260274,130.54999999999995L723.4794520547945,110.75L725.9561643835616,121.75000000000006L728.4328767123288,142.09999999999997L730.909589041096,151.45000000000005L733.3863013698631,150.34999999999997L735.8630136986302,153.10000000000002L738.3397260273972,145.39999999999998L740.8164383561643,133.85000000000002L743.2931506849314,136.04999999999995L745.7698630136986,132.20000000000005L748.2465753424657,111.85000000000002L750.7232876712328,106.35000000000002L753.2,156.95000000000005L755.6767123287672,193.79999999999995L758.1534246575343,193.79999999999995L760.6301369863014,172.90000000000003L763.1068493150685,154.20000000000005L765.5835616438357,115.70000000000005L768.0602739726028,138.8L770.5369863013698,146.5L773.0136986301369,133.29999999999995L775.4904109589041,144.3L777.9671232876713,171.25L780.4438356164384,169.04999999999995L782.9205479452055,165.2L785.3972602739726,157.5L787.8739726027397,142.64999999999998L790.3506849315069,131.64999999999998L792.827397260274,132.20000000000005L795.3041095890411,121.75000000000006L797.7808219178082,130L800.2575342465753,153.64999999999998L802.7342465753425,142.09999999999997L805.2109589041096,137.70000000000005L807.6876712328767,142.09999999999997L810.1643835616438,138.25L812.641095890411,136.60000000000002L815.1178082191781,137.70000000000005L817.5945205479452,147.59999999999997L820.0712328767123,148.14999999999998L822.5479452054794,152.55L825.0246575342467,143.20000000000005L827.5013698630137,170.7L829.9780821917808,182.79999999999995L832.4547945205479,175.10000000000002L834.931506849315,165.2L837.4082191780822,159.14999999999998L839.8849315068493,159.7L842.3616438356164,152L844.8383561643835,150.89999999999998L847.3150684931506,166.29999999999995L849.7917808219179,159.7L852.268493150685,133.29999999999995L854.7452054794521,159.14999999999998L857.2219178082192,165.75L859.6986301369863,141.55L862.1753424657534,126.14999999999998L864.6520547945205,156.95000000000005L867.1287671232876,165.75L869.6054794520547,165.75L872.0821917808219,142.64999999999998L874.5589041095891,161.89999999999998L877.0356164383562,152L879.5123287671233,145.95000000000005L881.9890410958905,186.64999999999998L884.4657534246576,197.10000000000002L886.9424657534247,218L889.4191780821918,195.45000000000005L891.8958904109588,188.85000000000002L894.372602739726,185L896.8493150684931,188.85000000000002L899.3260273972603,205.35000000000002L901.8027397260274,201.5L904.2794520547945,169.60000000000002L906.7561643835617,200.39999999999998L909.2328767123288,228.45L911.7095890410959,218L914.186301369863,209.75L916.6630136986302,208.64999999999998L919.1397260273973,237.8L921.6164383561643,222.39999999999998L924.0931506849315,193.24999999999994L926.5698630136986,189.39999999999998L929.0465753424658,192.14999999999998L931.5232876712329,226.25L934,227.35000000000002"/><g><circle cx="30" cy="221.3" r="1.5" style="fill: rgb(0, 0, 0);"/><circle cx="32.47671232876712" cy="251" r="1.5" style="fill: rgb(0, 0, 0);"/><circle cx="34.95342465753425" cy="276.85" r="1.5" style="fill: rgb(0, 0, 0);"/><circle cx="37.43013698630137" cy="263.65" r="1.5" style="fill: rgb(0, 0, 0);"/><circle cx="39.90684931506849" cy="216.89999999999998" r="1.5" style="fill: rgb(0, 0, 0);"/><circle cx="42.38356164383562" cy="246.60000000000002" r="1.5" style="fill: rgb(0, 0, 0);"/><circle cx="44.86027397260274" cy="251.55" r="1.5" style="fill: rgb(0, 0, 0);"/><circle cx="47.33698630136986" cy="230.10000000000002" r="1.5" style="fill: rgb(0, 0, 0);"/><circle cx="49.81369863013698" cy="188.85000000000002" r="1.5" style="fill: rgb(0, 0, 0);"/><circle cx="52.290410958904104" cy="178.39999999999998" r="1.5" style="fill: rgb(0, 0, 0);"/><circle cx="54.76712328767123" cy="192.14999999999998" r="1.5" style="fill: rgb(0, 0, 0);"/><circle cx="57.24383561643836" cy="230.10000000000002" r="1.5" style="fill: rgb(0, 0, 0);"/><circle cx="59.72054794520548" cy="223.5" r="1.5" style="fill: rgb(0, 0, 0);"/><circle cx="62.1972602739726" cy="202.04999999999995" r="1.5" style="fill: rgb(0, 0, 0);"/><circle cx="64.67397260273972" cy="230.64999999999998" r="1.5" style="fill: rgb(0, 0, 0);"/><circle cx="67.15068493150685" cy="230.10000000000002" r="1.5" style="fill: rgb(0, 0, 0);"/><circle cx="69.62739726027397" cy="224.60000000000002" r="1.5" style="fill: rgb(0, 0, 0);"/><circle cx="72.1041095890411" cy="235.60000000000002" r="1.5" style="fill: rgb(0, 0, 0);"/><circle cx="74.58082191780821" cy="228.45" r="1.5" style="fill: rgb(0, 0, 0);"/><circle cx="77.05753424657534" cy="211.95000000000005" r="1.5" style="fill: rgb(0, 0, 0);"/><circle cx="79.53424657534246" cy="264.2" r="1.5" style="fill: rgb(0, 0, 0);"/><circle cx="82.01095890410959" cy="270.79999999999995" r="1.5" style="fill: rgb(0, 0, 0);"/><circle cx="84.48767123287672" cy="270.79999999999995" r="1.5" style="fill: rgb(0, 0, 0);"/><circle cx="86.96438356164384" cy="268.6" r="1.5" style="fill: rgb(0, 0, 0);"/><circle cx="89.44109589041096" cy="251.55" r="1.5" style="fill: rgb(0, 0, 0);"/><circle cx="91.91780821917808" cy="269.7" r="1.5" style="fill: rgb(0, 0, 0);"/><circle cx="94.3945205479452" cy="270.79999999999995" r="1.5" style="fill: rgb(0, 0, 0);"/><circle cx="96.87123287671233" cy="336.25" r="1.5" style="fill: rgb(0, 0, 0);"/><circle cx="99.34794520547946" cy="345.05" r="1.5" style="fill: rgb(0, 0, 0);"/><circle cx="101.82465753424658" cy="357.7" r="1.5" style="fill: rgb(0, 0, 0);"/><circle cx="104.30136986301369" cy="326.9" r="1.5" style="fill: rgb(0, 0, 0);"/><circle cx="106.77808219178083" cy="297.2" r="1.5" style="fill: rgb(0, 0, 0);"/><circle cx="109.25479452054795" cy="310.4" r="1.5" style="fill: rgb(0, 0, 0);"/><circle cx="111.73150684931507" cy="294.45" r="1.5" style="fill: rgb(0, 0, 0);"/><circle cx="114.2082191780822" cy="294.45" r="1.5" style="fill: rgb(0, 0, 0);"/><circle cx="116.68493150684931" cy="330.75" r="1.5" style="fill: rgb(0, 0, 0);"/><circle cx="119.16164383561643" cy="329.1" r="1.5" style="fill: rgb(0, 0, 0);"/><circle cx="121.74155251141553" cy="301.05" r="1.5" style="fill: rgb(0, 0, 0);"/><circle cx="124.21826484018266" cy="264.75" r="1.5" style="fill: rgb(0, 0, 0);"/><circle cx="126.69497716894976" cy="274.65" r="1.5" style="fill: rgb(0, 0, 0);"/><circle cx="129.1716894977169" cy="252.64999999999998" r="1.5" style="fill: rgb(0, 0, 0);"/><circle cx="131.64840182648402" cy="303.25" r="1.5" style="fill: rgb(0, 0, 0);"/><circle cx="134.12511415525114" cy="312.6" r="1.5" style="fill: rgb(0, 0, 0);"/><circle cx="136.60182648401826" cy="288.95" r="1.5" style="fill: rgb(0, 0, 0);"/><circle cx="139.07853881278538" cy="257.6" r="1.5" style="fill: rgb(0, 0, 0);"/><circle cx="141.5552511415525" cy="241.65000000000003" r="1.5" style="fill: rgb(0, 0, 0);"/><circle cx="144.03196347031965" cy="259.25000000000006" r="1.5" style="fill: rgb(0, 0, 0);"/><circle cx="146.50867579908675" cy="297.2" r="1.5" style="fill: rgb(0, 0, 0);"/><circle cx="148.98538812785387" cy="341.75" r="1.5" style="fill: rgb(0, 0, 0);"/><circle cx="151.46210045662102" cy="326.35" r="1.5" style="fill: rgb(0, 0, 0);"/><circle cx="153.9388127853881" cy="273" r="1.5" style="fill: rgb(0, 0, 0);"/><circle cx="156.41552511415526" cy="272.45" r="1.5" style="fill: rgb(0, 0, 0);"/><circle cx="158.89223744292238" cy="298.3" r="1.5" style="fill: rgb(0, 0, 0);"/><circle cx="161.3689497716895" cy="295" r="1.5" style="fill: rgb(0, 0, 0);"/><circle cx="163.84566210045662" cy="328" r="1.5" style="fill: rgb(0, 0, 0);"/><circle cx="166.32237442922374" cy="293.35" r="1.5" style="fill: rgb(0, 0, 0);"/><circle cx="168.7990867579909" cy="283.45" r="1.5" style="fill: rgb(0, 0, 0);"/><circle cx="171.27579908675798" cy="297.2" r="1.5" style="fill: rgb(0, 0, 0);"/><circle cx="173.7525114155251" cy="255.39999999999998" r="1.5" style="fill: rgb(0, 0, 0);"/><circle cx="176.22922374429226" cy="244.95" r="1.5" style="fill: rgb(0, 0, 0);"/><circle cx="178.70593607305935" cy="291.7" r="1.5" style="fill: rgb(0, 0, 0);"/><circle cx="181.1826484018265" cy="326.35" r="1.5" style="fill: rgb(0, 0, 0);"/><circle cx="183.65936073059362" cy="328.55" r="1.5" style="fill: rgb(0, 0, 0);"/><circle cx="186.1360730593607" cy="338.45" r="1.5" style="fill: rgb(0, 0, 0);"/><circle cx="188.61278538812786" cy="328.55" r="1.5" style="fill: rgb(0, 0, 0);"/><circle cx="191.08949771689498" cy="293.9" r="1.5" style="fill: rgb(0, 0, 0);"/><circle cx="193.5662100456621" cy="271.9" r="1.5" style="fill: rgb(0, 0, 0);"/><circle cx="196.04292237442922" cy="269.7" r="1.5" style="fill: rgb(0, 0, 0);"/><circle cx="198.51963470319635" cy="331.3" r="1.5" style="fill: rgb(0, 0, 0);"/><circle cx="200.99634703196347" cy="337.9" r="1.5" style="fill: rgb(0, 0, 0);"/><circle cx="203.4730593607306" cy="322.5" r="1.5" style="fill: rgb(0, 0, 0);"/><circle cx="205.94977168949774" cy="384.1" r="1.5" style="fill: rgb(0, 0, 0);"/><circle cx="208.42648401826483" cy="367.6" r="1.5" style="fill: rgb(0, 0, 0);"/><circle cx="210.90319634703195" cy="357.7" r="1.5" style="fill: rgb(0, 0, 0);"/><circle cx="213.3799086757991" cy="339.55" r="1.5" style="fill: rgb(0, 0, 0);"/><circle cx="215.8566210045662" cy="297.2" r="1.5" style="fill: rgb(0, 0, 0);"/><circle cx="218.33333333333334" cy="293.9" r="1.5" style="fill: rgb(0, 0, 0);"/><circle cx="220.81004566210046" cy="346.7" r="1.5" style="fill: rgb(0, 0, 0);"/><circle cx="223.28675799086756" cy="409.95" r="1.5" style="fill: rgb(0, 0, 0);"/><circle cx="225.7634703196347" cy="384.65" r="1.5" style="fill: rgb(0, 0, 0);"/><circle cx="228.24018264840183" cy="318.1" r="1.5" style="fill: rgb(0, 0, 0);"/><circle cx="230.71689497716895" cy="309.3" r="1.5" style="fill: rgb(0, 0, 0);"/><circle cx="233.19360730593607" cy="270.79999999999995" r="1.5" style="fill: rgb(0, 0, 0);"/><circle cx="235.67031963470322" cy="307.1" r="1.5" style="fill: rgb(0, 0, 0);"/><circle cx="238.1470319634703" cy="378.05" r="1.5" style="fill: rgb(0, 0, 0);"/><circle cx="240.62374429223743" cy="372.55" r="1.5" style="fill: rgb(0, 0, 0);"/><circle cx="243.10045662100458" cy="330.2" r="1.5" style="fill: rgb(0, 0, 0);"/><circle cx="245.57716894977167" cy="334.05" r="1.5" style="fill: rgb(0, 0, 0);"/><circle cx="248.05388127853882" cy="315.9" r="1.5" style="fill: rgb(0, 0, 0);"/><circle cx="250.53059360730595" cy="400.6" r="1.5" style="fill: rgb(0, 0, 0);"/><circle cx="253.00730593607304" cy="345.6" r="1.5" style="fill: rgb(0, 0, 0);"/><circle cx="255.4840182648402" cy="296.1" r="1.5" style="fill: rgb(0, 0, 0);"/><circle cx="257.9607305936073" cy="315.35" r="1.5" style="fill: rgb(0, 0, 0);"/><circle cx="260.43744292237443" cy="332.4" r="1.5" style="fill: rgb(0, 0, 0);"/><circle cx="262.91415525114155" cy="403.35" r="1.5" style="fill: rgb(0, 0, 0);"/><circle cx="265.3908675799087" cy="464.4" r="1.5" style="fill: rgb(0, 0, 0);"/><circle cx="267.8675799086758" cy="393.45" r="1.5" style="fill: rgb(0, 0, 0);"/><circle cx="270.3442922374429" cy="343.4" r="1.5" style="fill: rgb(0, 0, 0);"/><circle cx="272.82100456621004" cy="311.5" r="1.5" style="fill: rgb(0, 0, 0);"/><circle cx="275.29771689497716" cy="317" r="1.5" style="fill: rgb(0, 0, 0);"/><circle cx="277.7744292237443" cy="379.15" r="1.5" style="fill: rgb(0, 0, 0);"/><circle cx="280.2511415525114" cy="353.3" r="1.5" style="fill: rgb(0, 0, 0);"/><circle cx="282.7278538812785" cy="347.8" r="1.5" style="fill: rgb(0, 0, 0);"/><circle cx="285.20456621004564" cy="320.3" r="1.5" style="fill: rgb(0, 0, 0);"/><circle cx="287.68127853881276" cy="346.15" r="1.5" style="fill: rgb(0, 0, 0);"/><circle cx="290.1579908675799" cy="402.8" r="1.5" style="fill: rgb(0, 0, 0);"/><circle cx="292.634703196347" cy="438.55" r="1.5" style="fill: rgb(0, 0, 0);"/><circle cx="295.1114155251142" cy="445.7" r="1.5" style="fill: rgb(0, 0, 0);"/><circle cx="297.5881278538813" cy="351.1" r="1.5" style="fill: rgb(0, 0, 0);"/><circle cx="300.0648401826484" cy="332.4" r="1.5" style="fill: rgb(0, 0, 0);"/><circle cx="302.5415525114155" cy="425.35" r="1.5" style="fill: rgb(0, 0, 0);"/><circle cx="305.0182648401826" cy="389.6" r="1.5" style="fill: rgb(0, 0, 0);"/><circle cx="307.4949771689498" cy="419.3" r="1.5" style="fill: rgb(0, 0, 0);"/><circle cx="309.9716894977169" cy="432.5" r="1.5" style="fill: rgb(0, 0, 0);"/><circle cx="312.44840182648403" cy="353.3" r="1.5" style="fill: rgb(0, 0, 0);"/><circle cx="314.92511415525115" cy="302.15" r="1.5" style="fill: rgb(0, 0, 0);"/><circle cx="317.4018264840182" cy="333.5" r="1.5" style="fill: rgb(0, 0, 0);"/><circle cx="319.8785388127854" cy="365.95" r="1.5" style="fill: rgb(0, 0, 0);"/><circle cx="322.3552511415525" cy="304.9" r="1.5" style="fill: rgb(0, 0, 0);"/><circle cx="324.83196347031964" cy="329.65" r="1.5" style="fill: rgb(0, 0, 0);"/><circle cx="327.30867579908676" cy="349.45" r="1.5" style="fill: rgb(0, 0, 0);"/><circle cx="329.7853881278539" cy="361" r="1.5" style="fill: rgb(0, 0, 0);"/><circle cx="332.262100456621" cy="330.75" r="1.5" style="fill: rgb(0, 0, 0);"/><circle cx="334.7388127853881" cy="292.8" r="1.5" style="fill: rgb(0, 0, 0);"/><circle cx="337.21552511415524" cy="318.1" r="1.5" style="fill: rgb(0, 0, 0);"/><circle cx="339.69223744292236" cy="363.75" r="1.5" style="fill: rgb(0, 0, 0);"/><circle cx="342.1689497716895" cy="345.6" r="1.5" style="fill: rgb(0, 0, 0);"/><circle cx="344.64566210045666" cy="369.25" r="1.5" style="fill: rgb(0, 0, 0);"/><circle cx="347.1223744292237" cy="354.95" r="1.5" style="fill: rgb(0, 0, 0);"/><circle cx="349.59908675799085" cy="332.4" r="1.5" style="fill: rgb(0, 0, 0);"/><circle cx="352.07579908675797" cy="369.25" r="1.5" style="fill: rgb(0, 0, 0);"/><circle cx="354.5525114155251" cy="369.25" r="1.5" style="fill: rgb(0, 0, 0);"/><circle cx="357.02922374429227" cy="359.35" r="1.5" style="fill: rgb(0, 0, 0);"/><circle cx="359.5059360730594" cy="367.05" r="1.5" style="fill: rgb(0, 0, 0);"/><circle cx="361.98264840182645" cy="406.65" r="1.5" style="fill: rgb(0, 0, 0);"/><circle cx="364.4593607305936" cy="387.95" r="1.5" style="fill: rgb(0, 0, 0);"/><circle cx="366.9360730593607" cy="352.2" r="1.5" style="fill: rgb(0, 0, 0);"/><circle cx="369.4127853881279" cy="337.35" r="1.5" style="fill: rgb(0, 0, 0);"/><circle cx="371.889497716895" cy="351.65" r="1.5" style="fill: rgb(0, 0, 0);"/><circle cx="374.3662100456621" cy="317" r="1.5" style="fill: rgb(0, 0, 0);"/><circle cx="376.84292237442924" cy="343.4" r="1.5" style="fill: rgb(0, 0, 0);"/><circle cx="379.31963470319636" cy="351.1" r="1.5" style="fill: rgb(0, 0, 0);"/><circle cx="381.7963470319635" cy="360.45" r="1.5" style="fill: rgb(0, 0, 0);"/><circle cx="384.2730593607306" cy="365.95" r="1.5" style="fill: rgb(0, 0, 0);"/><circle cx="386.7497716894977" cy="319.75" r="1.5" style="fill: rgb(0, 0, 0);"/><circle cx="389.22648401826484" cy="291.7" r="1.5" style="fill: rgb(0, 0, 0);"/><circle cx="391.70319634703196" cy="335.15" r="1.5" style="fill: rgb(0, 0, 0);"/><circle cx="394.1799086757991" cy="335.70000000000005" r="1.5" style="fill: rgb(0, 0, 0);"/><circle cx="396.6566210045662" cy="367.05" r="1.5" style="fill: rgb(0, 0, 0);"/><circle cx="399.1333333333333" cy="345.05" r="1.5" style="fill: rgb(0, 0, 0);"/><circle cx="401.61004566210045" cy="317.55" r="1.5" style="fill: rgb(0, 0, 0);"/><circle cx="404.0867579908676" cy="346.15" r="1.5" style="fill: rgb(0, 0, 0);"/><circle cx="406.5634703196347" cy="342.85" r="1.5" style="fill: rgb(0, 0, 0);"/><circle cx="409.0401826484018" cy="367.6" r="1.5" style="fill: rgb(0, 0, 0);"/><circle cx="411.51689497716893" cy="308.2" r="1.5" style="fill: rgb(0, 0, 0);"/><circle cx="413.99360730593605" cy="326.9" r="1.5" style="fill: rgb(0, 0, 0);"/><circle cx="416.47031963470323" cy="358.25" r="1.5" style="fill: rgb(0, 0, 0);"/><circle cx="418.94703196347035" cy="389.05" r="1.5" style="fill: rgb(0, 0, 0);"/><circle cx="421.4237442922375" cy="331.85" r="1.5" style="fill: rgb(0, 0, 0);"/><circle cx="423.90045662100454" cy="288.4" r="1.5" style="fill: rgb(0, 0, 0);"/><circle cx="426.37716894977166" cy="307.1" r="1.5" style="fill: rgb(0, 0, 0);"/><circle cx="428.85388127853884" cy="365.4" r="1.5" style="fill: rgb(0, 0, 0);"/><circle cx="431.33059360730596" cy="334.05" r="1.5" style="fill: rgb(0, 0, 0);"/><circle cx="433.7041095890411" cy="301.6" r="1.5" style="fill: rgb(0, 0, 0);"/><circle cx="436.1808219178082" cy="280.7" r="1.5" style="fill: rgb(0, 0, 0);"/><circle cx="438.6575342465753" cy="237.25" r="1.5" style="fill: rgb(0, 0, 0);"/><circle cx="441.1342465753425" cy="310.4" r="1.5" style="fill: rgb(0, 0, 0);"/><circle cx="443.6109589041096" cy="324.15" r="1.5" style="fill: rgb(0, 0, 0);"/><circle cx="446.0876712328767" cy="304.9" r="1.5" style="fill: rgb(0, 0, 0);"/><circle cx="448.5643835616438" cy="304.9" r="1.5" style="fill: rgb(0, 0, 0);"/><circle cx="451.04109589041093" cy="277.95" r="1.5" style="fill: rgb(0, 0, 0);"/><circle cx="453.5178082191781" cy="252.10000000000002" r="1.5" style="fill: rgb(0, 0, 0);"/><circle cx="455.9945205479452" cy="253.75" r="1.5" style="fill: rgb(0, 0, 0);"/><circle cx="458.47123287671235" cy="254.85000000000002" r="1.5" style="fill: rgb(0, 0, 0);"/><circle cx="460.9479452054794" cy="230.64999999999998" r="1.5" style="fill: rgb(0, 0, 0);"/><circle cx="463.42465753424653" cy="263.1" r="1.5" style="fill: rgb(0, 0, 0);"/><circle cx="465.9013698630137" cy="303.8" r="1.5" style="fill: rgb(0, 0, 0);"/><circle cx="468.37808219178083" cy="296.1" r="1.5" style="fill: rgb(0, 0, 0);"/><circle cx="470.85479452054796" cy="352.2" r="1.5" style="fill: rgb(0, 0, 0);"/><circle cx="473.3315068493151" cy="296.65" r="1.5" style="fill: rgb(0, 0, 0);"/><circle cx="475.80821917808214" cy="257.6" r="1.5" style="fill: rgb(0, 0, 0);"/><circle cx="478.2849315068493" cy="314.25" r="1.5" style="fill: rgb(0, 0, 0);"/><circle cx="480.76164383561644" cy="337.9" r="1.5" style="fill: rgb(0, 0, 0);"/><circle cx="483.2383561643836" cy="320.85" r="1.5" style="fill: rgb(0, 0, 0);"/><circle cx="485.71506849315074" cy="305.45" r="1.5" style="fill: rgb(0, 0, 0);"/><circle cx="488.19178082191786" cy="288.4" r="1.5" style="fill: rgb(0, 0, 0);"/><circle cx="490.6684931506849" cy="234.5" r="1.5" style="fill: rgb(0, 0, 0);"/><circle cx="493.14520547945204" cy="291.15" r="1.5" style="fill: rgb(0, 0, 0);"/><circle cx="495.62191780821917" cy="306" r="1.5" style="fill: rgb(0, 0, 0);"/><circle cx="498.0986301369863" cy="288.95" r="1.5" style="fill: rgb(0, 0, 0);"/><circle cx="500.5753424657534" cy="263.65" r="1.5" style="fill: rgb(0, 0, 0);"/><circle cx="503.05205479452053" cy="249.35000000000002" r="1.5" style="fill: rgb(0, 0, 0);"/><circle cx="505.52876712328765" cy="267.5" r="1.5" style="fill: rgb(0, 0, 0);"/><circle cx="508.00547945205483" cy="300.5" r="1.5" style="fill: rgb(0, 0, 0);"/><circle cx="510.48219178082195" cy="285.65" r="1.5" style="fill: rgb(0, 0, 0);"/><circle cx="512.9589041095891" cy="277.95" r="1.5" style="fill: rgb(0, 0, 0);"/><circle cx="515.4356164383562" cy="266.4" r="1.5" style="fill: rgb(0, 0, 0);"/><circle cx="517.9123287671233" cy="227.35000000000002" r="1.5" style="fill: rgb(0, 0, 0);"/><circle cx="520.3890410958904" cy="224.05" r="1.5" style="fill: rgb(0, 0, 0);"/><circle cx="522.8657534246574" cy="188.85000000000002" r="1.5" style="fill: rgb(0, 0, 0);"/><circle cx="525.3424657534247" cy="245.5" r="1.5" style="fill: rgb(0, 0, 0);"/><circle cx="527.8191780821917" cy="272.45" r="1.5" style="fill: rgb(0, 0, 0);"/><circle cx="530.2958904109589" cy="259.25000000000006" r="1.5" style="fill: rgb(0, 0, 0);"/><circle cx="532.7726027397262" cy="249.89999999999998" r="1.5" style="fill: rgb(0, 0, 0);"/><circle cx="535.2493150684932" cy="281.8" r="1.5" style="fill: rgb(0, 0, 0);"/><circle cx="537.7260273972603" cy="286.2" r="1.5" style="fill: rgb(0, 0, 0);"/><circle cx="540.2027397260274" cy="298.85" r="1.5" style="fill: rgb(0, 0, 0);"/><circle cx="542.6794520547945" cy="281.25" r="1.5" style="fill: rgb(0, 0, 0);"/><circle cx="545.1561643835616" cy="292.25" r="1.5" style="fill: rgb(0, 0, 0);"/><circle cx="547.6328767123288" cy="284.55" r="1.5" style="fill: rgb(0, 0, 0);"/><circle cx="550.1095890410959" cy="309.3" r="1.5" style="fill: rgb(0, 0, 0);"/><circle cx="552.586301369863" cy="272.45" r="1.5" style="fill: rgb(0, 0, 0);"/><circle cx="555.0630136986301" cy="284.55" r="1.5" style="fill: rgb(0, 0, 0);"/><circle cx="557.5397260273973" cy="254.3" r="1.5" style="fill: rgb(0, 0, 0);"/><circle cx="560.0164383561644" cy="274.65" r="1.5" style="fill: rgb(0, 0, 0);"/><circle cx="562.4931506849315" cy="277.95" r="1.5" style="fill: rgb(0, 0, 0);"/><circle cx="564.9698630136986" cy="255.39999999999998" r="1.5" style="fill: rgb(0, 0, 0);"/><circle cx="567.4465753424657" cy="256.5" r="1.5" style="fill: rgb(0, 0, 0);"/><circle cx="569.9232876712329" cy="258.7" r="1.5" style="fill: rgb(0, 0, 0);"/><circle cx="572.4" cy="269.7" r="1.5" style="fill: rgb(0, 0, 0);"/><circle cx="574.8767123287671" cy="251.55" r="1.5" style="fill: rgb(0, 0, 0);"/><circle cx="577.3534246575342" cy="244.39999999999998" r="1.5" style="fill: rgb(0, 0, 0);"/><circle cx="579.8301369863015" cy="233.95" r="1.5" style="fill: rgb(0, 0, 0);"/><circle cx="582.3068493150686" cy="241.65000000000003" r="1.5" style="fill: rgb(0, 0, 0);"/><circle cx="584.7835616438357" cy="217.45000000000005" r="1.5" style="fill: rgb(0, 0, 0);"/><circle cx="587.2602739726027" cy="210.84999999999997" r="1.5" style="fill: rgb(0, 0, 0);"/><circle cx="589.7369863013698" cy="216.89999999999998" r="1.5" style="fill: rgb(0, 0, 0);"/><circle cx="592.213698630137" cy="229" r="1.5" style="fill: rgb(0, 0, 0);"/><circle cx="594.6904109589041" cy="219.09999999999997" r="1.5" style="fill: rgb(0, 0, 0);"/><circle cx="597.1671232876712" cy="215.25" r="1.5" style="fill: rgb(0, 0, 0);"/><circle cx="599.6438356164383" cy="234.5" r="1.5" style="fill: rgb(0, 0, 0);"/><circle cx="602.1205479452054" cy="225.7" r="1.5" style="fill: rgb(0, 0, 0);"/><circle cx="604.5972602739727" cy="205.89999999999998" r="1.5" style="fill: rgb(0, 0, 0);"/><circle cx="607.0739726027398" cy="225.14999999999998" r="1.5" style="fill: rgb(0, 0, 0);"/><circle cx="609.5506849315069" cy="219.64999999999998" r="1.5" style="fill: rgb(0, 0, 0);"/><circle cx="612.027397260274" cy="204.79999999999995" r="1.5" style="fill: rgb(0, 0, 0);"/><circle cx="614.5041095890411" cy="215.25" r="1.5" style="fill: rgb(0, 0, 0);"/><circle cx="616.9808219178083" cy="210.3" r="1.5" style="fill: rgb(0, 0, 0);"/><circle cx="619.4575342465753" cy="188.29999999999995" r="1.5" style="fill: rgb(0, 0, 0);"/><circle cx="621.9342465753424" cy="174.54999999999995" r="1.5" style="fill: rgb(0, 0, 0);"/><circle cx="624.4109589041095" cy="160.79999999999995" r="1.5" style="fill: rgb(0, 0, 0);"/><circle cx="626.8876712328766" cy="152.55" r="1.5" style="fill: rgb(0, 0, 0);"/><circle cx="629.3643835616439" cy="169.04999999999995" r="1.5" style="fill: rgb(0, 0, 0);"/><circle cx="631.841095890411" cy="171.25" r="1.5" style="fill: rgb(0, 0, 0);"/><circle cx="634.3178082191781" cy="200.39999999999998" r="1.5" style="fill: rgb(0, 0, 0);"/><circle cx="636.7945205479452" cy="194.35000000000002" r="1.5" style="fill: rgb(0, 0, 0);"/><circle cx="639.2712328767124" cy="197.64999999999998" r="1.5" style="fill: rgb(0, 0, 0);"/><circle cx="641.7479452054795" cy="229.55" r="1.5" style="fill: rgb(0, 0, 0);"/><circle cx="644.2246575342466" cy="249.35000000000002" r="1.5" style="fill: rgb(0, 0, 0);"/><circle cx="646.7013698630137" cy="230.64999999999998" r="1.5" style="fill: rgb(0, 0, 0);"/><circle cx="649.1780821917807" cy="203.14999999999998" r="1.5" style="fill: rgb(0, 0, 0);"/><circle cx="651.6547945205479" cy="192.14999999999998" r="1.5" style="fill: rgb(0, 0, 0);"/><circle cx="654.1315068493151" cy="172.90000000000003" r="1.5" style="fill: rgb(0, 0, 0);"/><circle cx="656.6082191780822" cy="170.7" r="1.5" style="fill: rgb(0, 0, 0);"/><circle cx="659.0849315068493" cy="189.39999999999998" r="1.5" style="fill: rgb(0, 0, 0);"/><circle cx="661.5616438356165" cy="202.04999999999995" r="1.5" style="fill: rgb(0, 0, 0);"/><circle cx="664.0383561643836" cy="203.14999999999998" r="1.5" style="fill: rgb(0, 0, 0);"/><circle cx="666.5150684931507" cy="197.64999999999998" r="1.5" style="fill: rgb(0, 0, 0);"/><circle cx="668.9917808219178" cy="193.24999999999994" r="1.5" style="fill: rgb(0, 0, 0);"/><circle cx="671.4684931506849" cy="198.75" r="1.5" style="fill: rgb(0, 0, 0);"/><circle cx="673.945205479452" cy="216.89999999999998" r="1.5" style="fill: rgb(0, 0, 0);"/><circle cx="676.4219178082192" cy="230.64999999999998" r="1.5" style="fill: rgb(0, 0, 0);"/><circle cx="678.8986301369863" cy="204.79999999999995" r="1.5" style="fill: rgb(0, 0, 0);"/><circle cx="681.3753424657534" cy="141.55" r="1.5" style="fill: rgb(0, 0, 0);"/><circle cx="683.8520547945205" cy="84.35000000000002" r="1.5" style="fill: rgb(0, 0, 0);"/><circle cx="686.3287671232877" cy="117.89999999999998" r="1.5" style="fill: rgb(0, 0, 0);"/><circle cx="688.8054794520548" cy="146.5" r="1.5" style="fill: rgb(0, 0, 0);"/><circle cx="691.2821917808219" cy="155.3" r="1.5" style="fill: rgb(0, 0, 0);"/><circle cx="693.758904109589" cy="180.04999999999995" r="1.5" style="fill: rgb(0, 0, 0);"/><circle cx="696.2356164383561" cy="207.55" r="1.5" style="fill: rgb(0, 0, 0);"/><circle cx="698.7123287671233" cy="165.75" r="1.5" style="fill: rgb(0, 0, 0);"/><circle cx="701.1890410958904" cy="144.3" r="1.5" style="fill: rgb(0, 0, 0);"/><circle cx="703.6657534246576" cy="132.20000000000005" r="1.5" style="fill: rgb(0, 0, 0);"/><circle cx="706.1424657534247" cy="106.89999999999998" r="1.5" style="fill: rgb(0, 0, 0);"/><circle cx="708.6191780821918" cy="120.10000000000002" r="1.5" style="fill: rgb(0, 0, 0);"/><circle cx="711.0958904109589" cy="116.25" r="1.5" style="fill: rgb(0, 0, 0);"/><circle cx="713.572602739726" cy="128.89999999999998" r="1.5" style="fill: rgb(0, 0, 0);"/><circle cx="716.0493150684931" cy="142.09999999999997" r="1.5" style="fill: rgb(0, 0, 0);"/><circle cx="718.5260273972602" cy="96.44999999999999" r="1.5" style="fill: rgb(0, 0, 0);"/><circle cx="721.0027397260274" cy="130.54999999999995" r="1.5" style="fill: rgb(0, 0, 0);"/><circle cx="723.4794520547945" cy="110.75" r="1.5" style="fill: rgb(0, 0, 0);"/><circle cx="725.9561643835616" cy="121.75000000000006" r="1.5" style="fill: rgb(0, 0, 0);"/><circle cx="728.4328767123288" cy="142.09999999999997" r="1.5" style="fill: rgb(0, 0, 0);"/><circle cx="730.909589041096" cy="151.45000000000005" r="1.5" style="fill: rgb(0, 0, 0);"/><circle cx="733.3863013698631" cy="150.34999999999997" r="1.5" style="fill: rgb(0, 0, 0);"/><circle cx="735.8630136986302" cy="153.10000000000002" r="1.5" style="fill: rgb(0, 0, 0);"/><circle cx="738.3397260273972" cy="145.39999999999998" r="1.5" style="fill: rgb(0, 0, 0);"/><circle cx="740.8164383561643" cy="133.85000000000002" r="1.5" style="fill: rgb(0, 0, 0);"/><circle cx="743.2931506849314" cy="136.04999999999995" r="1.5" style="fill: rgb(0, 0, 0);"/><circle cx="745.7698630136986" cy="132.20000000000005" r="1.5" style="fill: rgb(0, 0, 0);"/><circle cx="748.2465753424657" cy="111.85000000000002" r="1.5" style="fill: rgb(0, 0, 0);"/><circle cx="750.7232876712328" cy="106.35000000000002" r="1.5" style="fill: rgb(0, 0, 0);"/><circle cx="753.2" cy="156.95000000000005" r="1.5" style="fill: rgb(0, 0, 0);"/><circle cx="755.6767123287672" cy="193.79999999999995" r="1.5" style="fill: rgb(0, 0, 0);"/><circle cx="758.1534246575343" cy="193.79999999999995" r="1.5" style="fill: rgb(0, 0, 0);"/><circle cx="760.6301369863014" cy="172.90000000000003" r="1.5" style="fill: rgb(0, 0, 0);"/><circle cx="763.1068493150685" cy="154.20000000000005" r="1.5" style="fill: rgb(0, 0, 0);"/><circle cx="765.5835616438357" cy="115.70000000000005" r="1.5" style="fill: rgb(0, 0, 0);"/><circle cx="768.0602739726028" cy="138.8" r="1.5" style="fill: rgb(0, 0, 0);"/><circle cx="770.5369863013698" cy="146.5" r="1.5" style="fill: rgb(0, 0, 0);"/><circle cx="773.0136986301369" cy="133.29999999999995" r="1.5" style="fill: rgb(0, 0, 0);"/><circle cx="775.4904109589041" cy="144.3" r="1.5" style="fill: rgb(0, 0, 0);"/><circle cx="777.9671232876713" cy="171.25" r="1.5" style="fill: rgb(0, 0, 0);"/><circle cx="780.4438356164384" cy="169.04999999999995" r="1.5" style="fill: rgb(0, 0, 0);"/><circle cx="782.9205479452055" cy="165.2" r="1.5" style="fill: rgb(0, 0, 0);"/><circle cx="785.3972602739726" cy="157.5" r="1.5" style="fill: rgb(0, 0, 0);"/><circle cx="787.8739726027397" cy="142.64999999999998" r="1.5" style="fill: rgb(0, 0, 0);"/><circle cx="790.3506849315069" cy="131.64999999999998" r="1.5" style="fill: rgb(0, 0, 0);"/><circle cx="792.827397260274" cy="132.20000000000005" r="1.5" style="fill: rgb(0, 0, 0);"/><circle cx="795.3041095890411" cy="121.75000000000006" r="1.5" style="fill: rgb(0, 0, 0);"/><circle cx="797.7808219178082" cy="130" r="1.5" style="fill: rgb(0, 0, 0);"/><circle cx="800.2575342465753" cy="153.64999999999998" r="1.5" style="fill: rgb(0, 0, 0);"/><circle cx="802.7342465753425" cy="142.09999999999997" r="1.5" style="fill: rgb(0, 0, 0);"/><circle cx="805.2109589041096" cy="137.70000000000005" r="1.5" style="fill: rgb(0, 0, 0);"/><circle cx="807.6876712328767" cy="142.09999999999997" r="1.5" style="fill: rgb(0, 0, 0);"/><circle cx="810.1643835616438" cy="138.25" r="1.5" style="fill: rgb(0, 0, 0);"/><circle cx="812.641095890411" cy="136.60000000000002" r="1.5" style="fill: rgb(0, 0, 0);"/><circle cx="815.1178082191781" cy="137.70000000000005" r="1.5" style="fill: rgb(0, 0, 0);"/><circle cx="817.5945205479452" cy="147.59999999999997" r="1.5" style="fill: rgb(0, 0, 0);"/><circle cx="820.0712328767123" cy="148.14999999999998" r="1.5" style="fill: rgb(0, 0, 0);"/><circle cx="822.5479452054794" cy="152.55" r="1.5" style="fill: rgb(0, 0, 0);"/><circle cx="825.0246575342467" cy="143.20000000000005" r="1.5" style="fill: rgb(0, 0, 0);"/><circle cx="827.5013698630137" cy="170.7" r="1.5" style="fill: rgb(0, 0, 0);"/><circle cx="829.9780821917808" cy="182.79999999999995" r="1.5" style="fill: rgb(0, 0, 0);"/><circle cx="832.4547945205479" cy="175.10000000000002" r="1.5" style="fill: rgb(0, 0, 0);"/><circle cx="834.931506849315" cy="165.2" r="1.5" style="fill: rgb(0, 0, 0);"/><circle cx="837.4082191780822" cy="159.14999999999998" r="1.5" style="fill: rgb(0, 0, 0);"/><circle cx="839.8849315068493" cy="159.7" r="1.5" style="fill: rgb(0, 0, 0);"/><circle cx="842.3616438356164" cy="152" r="1.5" style="fill: rgb(0, 0, 0);"/><circle cx="844.8383561643835" cy="150.89999999999998" r="1.5" style="fill: rgb(0, 0, 0);"/><circle cx="847.3150684931506" cy="166.29999999999995" r="1.5" style="fill: rgb(0, 0, 0);"/><circle cx="849.7917808219179" cy="159.7" r="1.5" style="fill: rgb(0, 0, 0);"/><circle cx="852.268493150685" cy="133.29999999999995" r="1.5" style="fill: rgb(0, 0, 0);"/><circle cx="854.7452054794521" cy="159.14999999999998" r="1.5" style="fill: rgb(0, 0, 0);"/><circle cx="857.2219178082192" cy="165.75" r="1.5" style="fill: rgb(0, 0, 0);"/><circle cx="859.6986301369863" cy="141.55" r="1.5" style="fill: rgb(0, 0, 0);"/><circle cx="862.1753424657534" cy="126.14999999999998" r="1.5" style="fill: rgb(0, 0, 0);"/><circle cx="864.6520547945205" cy="156.95000000000005" r="1.5" style="fill: rgb(0, 0, 0);"/><circle cx="867.1287671232876" cy="165.75" r="1.5" style="fill: rgb(0, 0, 0);"/><circle cx="869.6054794520547" cy="165.75" r="1.5" style="fill: rgb(0, 0, 0);"/><circle cx="872.0821917808219" cy="142.64999999999998" r="1.5" style="fill: rgb(0, 0, 0);"/><circle cx="874.5589041095891" cy="161.89999999999998" r="1.5" style="fill: rgb(0, 0, 0);"/><circle cx="877.0356164383562" cy="152" r="1.5" style="fill: rgb(0, 0, 0);"/><circle cx="879.5123287671233" cy="145.95000000000005" r="1.5" style="fill: rgb(0, 0, 0);"/><circle cx="881.9890410958905" cy="186.64999999999998" r="1.5" style="fill: rgb(0, 0, 0);"/><circle cx="884.4657534246576" cy="197.10000000000002" r="1.5" style="fill: rgb(0, 0, 0);"/><circle cx="886.9424657534247" cy="218" r="1.5" style="fill: rgb(0, 0, 0);"/><circle cx="889.4191780821918" cy="195.45000000000005" r="1.5" style="fill: rgb(0, 0, 0);"/><circle cx="891.8958904109588" cy="188.85000000000002" r="1.5" style="fill: rgb(0, 0, 0);"/><circle cx="894.372602739726" cy="185" r="1.5" style="fill: rgb(0, 0, 0);"/><circle cx="896.8493150684931" cy="188.85000000000002" r="1.5" style="fill: rgb(0, 0, 0);"/><circle cx="899.3260273972603" cy="205.35000000000002" r="1.5" style="fill: rgb(0, 0, 0);"/><circle cx="901.8027397260274" cy="201.5" r="1.5" style="fill: rgb(0, 0, 0);"/><circle cx="904.2794520547945" cy="169.60000000000002" r="1.5" style="fill: rgb(0, 0, 0);"/><circle cx="906.7561643835617" cy="200.39999999999998" r="1.5" style="fill: rgb(0, 0, 0);"/><circle cx="909.2328767123288" cy="228.45" r="1.5" style="fill: rgb(0, 0, 0);"/><circle cx="911.7095890410959" cy="218" r="1.5" style="fill: rgb(0, 0, 0);"/><circle cx="914.186301369863" cy="209.75" r="1.5" style="fill: rgb(0, 0, 0);"/><circle cx="916.6630136986302" cy="208.64999999999998" r="1.5" style="fill: rgb(0, 0, 0);"/><circle cx="919.1397260273973" cy="237.8" r="1.5" style="fill: rgb(0, 0, 0);"/><circle cx="921.6164383561643" cy="222.39999999999998" r="1.5" style="fill: rgb(0, 0, 0);"/><circle cx="924.0931506849315" cy="193.24999999999994" r="1.5" style="fill: rgb(0, 0, 0);"/><circle cx="926.5698630136986" cy="189.39999999999998" r="1.5" style="fill: rgb(0, 0, 0);"/><circle cx="929.0465753424658" cy="192.14999999999998" r="1.5" style="fill: rgb(0, 0, 0);"/><circle cx="931.5232876712329" cy="226.25" r="1.5" style="fill: rgb(0, 0, 0);"/><circle cx="934" cy="227.35000000000002" r="1.5" style="fill: rgb(0, 0, 0);"/></g></svg>