<svg viewBox="0,0,954,600" xmlns="http://www.w3.org/2000/svg" xmlns:xlink="http://www.w3.org/1999/xlink"><g transform="translate(0,570)" fill="none" font-size="10" font-family="sans-serif" text-anchor="middle"><g class="tick" opacity="1" transform="translate(30.5,0)"><line stroke="currentColor" y2="6"/><text fill="currentColor" y="9" dy="0.71em">October</text></g><g class="tick" opacity="1" transform="translate(107.27808219178083,0)"><line stroke="currentColor" y2="6"/><text fill="currentColor" y="9" dy="0.71em">November</text></g><g class="tick" opacity="1" transform="translate(181.6826484018265,0)"><line stroke="currentColor" y2="6"/><text fill="currentColor" y="9" dy="0.71em">December</text></g><g class="tick" opacity="1" transform="translate(258.4607305936073,0)"><line stroke="currentColor" y2="6"/><text fill="currentColor" y="9" dy="0.71em">2012</text></g><g class="tick" opacity="1" transform="translate(335.2388127853881,0)"><line stroke="currentColor" y2="6"/><text fill="currentColor" y="9" dy="0.71em">February</text></g><g class="tick" opacity="1" transform="translate(407.0634703196347,0)"><line stroke="currentColor" y2="6"/><text fill="currentColor" y="9" dy="0.71em">March</text></g><g class="tick" opacity="1" transform="translate(483.7383561643836,0)"><line stroke="currentColor" y2="6"/><text fill="currentColor" y="9" dy="0.71em">April</text></g><g class="tick" opacity="1" transform="translate(558.0397260273973,0)"><line stroke="currentColor" y2="6"/><text fill="currentColor" y="9" dy="0.71em">May</text></g><g class="tick" opacity="1" transform="translate(634.8178082191781,0)"><line stroke="currentColor" y2="6"/><text fill="currentColor" y="9" dy="0.71em">June</text></g><g class="tick" opacity="1" transform="translate(709.1191780821918,0)"><line stroke="currentColor" y2="6"/><text fill="currentColor" y="9" dy="0.71em">July</text></g><g class="tick" opacity="1" transform="translate(785.8972602739726,0)"><line stroke="currentColor" y2="6"/><text fill="currentColor" y="9" dy="0.71em">August</text></g><g class="tick" opacity="1" transform="translate(862.6753424657534,0)"><line stroke="currentColor" y2="6"/><text fill="currentColor" y="9" dy="0.71em">September</text></g></g><g><g transform="translate(30,0)" fill="none" font-size="10" font-family="sans-serif" text-anchor="end"><g class="tick" opacity="1" transform="translate(0,570.5)"><line stroke="currentColor" x2="-6"/><text fill="currentColor" x="-9" dy="0.32em">0</text></g><g class="tick" opacity="1" transform="translate(0,515.5)"><line stroke="currentColor" x2="-6"/><text fill="currentColor" x="-9" dy="0.32em">10</text></g><g class="tick" opacity="1" transform="translate(0,460.5)"><line stroke="currentColor" x2="-6"/><text fill="currentColor" x="-9" dy="0.32em">20</text></g><g class="tick" opacity="1" transform="translate(0,405.5)"><line stroke="currentColor" x2="-6"/><text fill="currentColor" x="-9" dy="0.32em">30</text></g><g class="tick" opacity="1" transform="translate(0,350.5)"><line stroke="currentColor" x2="-6"/><text fill="currentColor" x="-9" dy="0.32em">40</text></g><g class="tick" opacity="1" transform="translate(0,295.5)"><line stroke="currentColor" x2="-6"/><text fill="currentColor" x="-9" dy="0.32em">50</text></g><g class="tick" opacity="1" transform="translate(0,240.5)"><line stroke="currentColor" x2="-6"/><text fill="currentColor" x="-9" dy="0.32em">60</text></g><g class="tick" opacity="1" transform="translate(0,185.5)"><line stroke="currentColor" x2="-6"/><text fill="currentColor" x="-9" dy="0.32em">70</text></g><g class="tick" opacity="1" transform="translate(0,130.5)"><line stroke="currentColor" x2="-6"/><text fill="currentColor" x="-9" dy="0.32em">80</text></g><g class="tick" opacity="1" transform="translate(0,75.5)"><line stroke="currentColor" x2="-6"/><text fill="currentColor" x="-9" dy="0.32em">90</text></g><g class="tick" opacity="1" transform="translate(0,20.5)"><line stroke="currentColor" x2="-6"/><text fill="currentColor" x="-9" dy="0.32em">100</text><text fill="currentColor" x="3" dy="0.32em" text-anchor="start" font-weight="bold">°F</text></g></g></g><clipPath id="O-above-23"><path d="M30,225.14999999999998L31.23835616438356,225.14999999999998L31.23835616438356,240.55L33.71506849315068,240.55L33.71506849315068,244.95L36.19178082191781,244.95L36.19178082191781,246.60000000000002L38.66849315068493,246.60000000000002L38.66849315068493,247.14999999999998L41.14520547945206,247.14999999999998L41.14520547945206,256.5L43.62191780821918,256.5L43.62191780821918,258.15L46.0986301369863,258.15L46.0986301369863,257.6L48.57534246575342,257.6L48.57534246575342,258.15L51.052054794520544,258.15L51.052054794520544,239.45L53.528767123287665,239.45L53.528767123287665,233.95L56.0054794520548,233.95L56.0054794520548,231.75L58.48219178082192,231.75L58.48219178082192,216.34999999999997L60.95890410958904,216.34999999999997L60.95890410958904,200.95000000000005L63.43561643835616,200.95000000000005L63.43561643835616,214.70000000000005L65.91232876712328,214.70000000000005L65.91232876712328,231.2L68.3890410958904,231.2L68.3890410958904,233.95L70.86575342465753,233.95L70.86575342465753,244.39999999999998L73.34246575342465,244.39999999999998L73.34246575342465,246.05L75.81917808219177,246.05L75.81917808219177,255.39999999999998L78.2958904109589,255.39999999999998L78.2958904109589,259.8L80.77260273972603,259.8L80.77260273972603,236.15000000000003L83.24931506849316,236.15000000000003L83.24931506849316,211.95000000000005L85.72602739726028,211.95000000000005L85.72602739726028,235.05L88.2027397260274,235.05L88.2027397260274,261.45L90.67945205479452,261.45L90.67945205479452,269.7L93.15616438356165,269.7L93.15616438356165,261.45L95.63287671232877,261.45L95.63287671232877,250.45000000000005L98.10958904109589,250.45000000000005L98.10958904109589,253.75L100.58630136986302,253.75L100.58630136986302,252.64999999999998L103.06301369863013,252.64999999999998L103.06301369863013,266.95L105.53972602739725,266.95L105.53972602739725,251.55L108.01643835616439,251.55L108.01643835616439,214.70000000000005L110.4931506849315,214.70000000000005L110.4931506849315,260.9L112.96986301369864,260.9L112.96986301369864,292.25L115.44657534246576,292.25L115.44657534246576,287.84999999999997L117.92328767123287,287.84999999999997L117.92328767123287,280.7L120.45159817351598,280.7L120.45159817351598,287.3L122.9799086757991,287.3L122.9799086757991,291.7L125.45662100456622,291.7L125.45662100456622,269.7L127.93333333333334,269.7L127.93333333333334,264.2L130.41004566210046,264.2L130.41004566210046,273.54999999999995L132.88675799086758,273.54999999999995L132.88675799086758,273L135.3634703196347,273L135.3634703196347,274.1L137.84018264840182,274.1L137.84018264840182,275.75L140.31689497716894,275.75L140.31689497716894,276.3L142.79360730593606,276.3L142.79360730593606,282.9L145.27031963470318,282.9L145.27031963470318,280.15L147.7470319634703,280.15L147.7470319634703,277.95L150.22374429223743,277.95L150.22374429223743,300.5L152.70045662100455,300.5L152.70045662100455,292.8L155.17716894977167,292.8L155.17716894977167,288.95L157.65388127853882,288.95L157.65388127853882,282.34999999999997L160.13059360730594,282.34999999999997L160.13059360730594,269.7L162.60730593607306,269.7L162.60730593607306,266.95L165.08401826484018,266.95L165.08401826484018,286.75L167.56073059360733,286.75L167.56073059360733,275.2L170.03744292237445,275.2L170.03744292237445,282.34999999999997L172.51415525114155,282.34999999999997L172.51415525114155,289.5L174.9908675799087,289.5L174.9908675799087,297.75L177.46757990867582,297.75L177.46757990867582,296.1L179.94429223744294,296.1L179.94429223744294,237.8L182.42100456621006,237.8L182.42100456621006,227.89999999999998L184.89771689497718,227.89999999999998L184.89771689497718,249.35000000000002L187.3744292237443,249.35000000000002L187.3744292237443,280.15L189.85114155251142,280.15L189.85114155251142,286.75L192.32785388127854,286.75L192.32785388127854,295.55L194.80456621004566,295.55L194.80456621004566,302.7L197.28127853881278,302.7L197.28127853881278,314.8L199.7579908675799,314.8L199.7579908675799,296.1L202.23470319634703,296.1L202.23470319634703,283.45L204.71141552511415,283.45L204.71141552511415,301.6L207.18812785388127,301.6L207.18812785388127,309.3L209.6648401826484,309.3L209.6648401826484,310.4L212.1415525114155,310.4L212.1415525114155,316.45L214.61826484018263,316.45L214.61826484018263,301.6L217.09497716894975,301.6L217.09497716894975,306.55L219.5716894977169,306.55L219.5716894977169,296.1L222.048401826484,296.1L222.048401826484,299.95L224.52511415525112,299.95L224.52511415525112,304.35L227.00182648401827,304.35L227.00182648401827,298.85L229.4785388127854,298.85L229.4785388127854,303.8L231.9552511415525,303.8L231.9552511415525,276.85L234.43196347031966,276.85L234.43196347031966,308.75L236.90867579908678,308.75L236.90867579908678,306.55L239.38538812785387,306.55L239.38538812785387,301.05L241.86210045662102,301.05L241.86210045662102,317.55L244.33881278538814,317.55L244.33881278538814,310.4L246.81552511415526,310.4L246.81552511415526,301.05L249.29223744292239,301.05L249.29223744292239,290.05L251.7689497716895,290.05L251.7689497716895,279.05L254.24566210045663,279.05L254.24566210045663,294.45L256.72237442922375,294.45L256.72237442922375,273.54999999999995L259.19908675799087,273.54999999999995L259.19908675799087,277.95L261.675799086758,277.95L261.675799086758,296.65L264.1525114155251,296.65L264.1525114155251,280.15L266.62922374429223,280.15L266.62922374429223,280.7L269.10593607305935,280.7L269.10593607305935,300.5L271.5826484018265,300.5L271.5826484018265,289.5L274.0593607305936,289.5L274.0593607305936,257.6L276.5360730593607,257.6L276.5360730593607,282.34999999999997L279.01278538812784,282.34999999999997L279.01278538812784,286.2L281.48949771689496,286.2L281.48949771689496,296.1L283.9662100456621,296.1L283.9662100456621,284.55L286.4429223744292,284.55L286.4429223744292,274.65L288.9196347031963,274.65L288.9196347031963,279.05L291.39634703196344,279.05L291.39634703196344,296.65L293.8730593607306,296.65L293.8730593607306,320.85L296.34977168949774,320.85L296.34977168949774,330.2L298.82648401826486,330.2L298.82648401826486,322.5L301.303196347032,322.5L301.303196347032,309.85L303.77990867579905,309.85L303.77990867579905,287.3L306.2566210045662,287.3L306.2566210045662,274.65L308.73333333333335,274.65L308.73333333333335,304.35L311.21004566210047,304.35L311.21004566210047,279.05L313.6867579908676,279.05L313.6867579908676,299.95L316.1634703196347,299.95L316.1634703196347,283.45L318.64018264840183,283.45L318.64018264840183,275.2L321.11689497716895,275.2L321.11689497716895,292.8L323.5936073059361,292.8L323.5936073059361,293.35L326.0703196347032,293.35L326.0703196347032,274.1L328.5470319634703,274.1L328.5470319634703,284.55L331.02374429223744,284.55L331.02374429223744,295L333.50045662100456,295L333.50045662100456,295L335.9771689497717,295L335.9771689497717,287.84999999999997L338.4538812785388,287.84999999999997L338.4538812785388,286.75L340.9305936073059,286.75L340.9305936073059,284L343.40730593607304,284L343.40730593607304,274.1L345.88401826484017,274.1L345.88401826484017,269.7L348.3607305936073,269.7L348.3607305936073,271.35L350.8374429223744,271.35L350.8374429223744,284.55L353.31415525114153,284.55L353.31415525114153,274.1L355.79086757990865,274.1L355.79086757990865,273.54999999999995L358.2675799086758,273.54999999999995L358.2675799086758,282.34999999999997L360.7442922374429,282.34999999999997L360.7442922374429,294.45L363.22100456621,294.45L363.22100456621,297.75L365.69771689497713,297.75L365.69771689497713,302.7L368.17442922374426,302.7L368.17442922374426,295.55L370.65114155251143,295.55L370.65114155251143,281.8L373.12785388127855,281.8L373.12785388127855,295.55L375.6045662100457,295.55L375.6045662100457,286.2L378.0812785388128,286.2L378.0812785388128,307.1L380.5579908675799,307.1L380.5579908675799,302.15L383.03470319634704,302.15L383.03470319634704,296.65L385.51141552511416,296.65L385.51141552511416,276.3L387.9881278538813,276.3L387.9881278538813,272.45L390.4648401826484,272.45L390.4648401826484,262.55L392.9415525114155,262.55L392.9415525114155,285.65L395.41826484018264,285.65L395.41826484018264,307.65L397.89497716894977,307.65L397.89497716894977,320.3L400.3716894977169,320.3L400.3716894977169,311.5L402.84840182648406,311.5L402.84840182648406,296.1L405.3251141552512,296.1L405.3251141552512,301.05L407.80182648401825,301.05L407.80182648401825,305.45L410.27853881278537,305.45L410.27853881278537,291.15L412.7552511415525,291.15L412.7552511415525,267.5L415.23196347031967,267.5L415.23196347031967,301.6L417.7086757990868,301.6L417.7086757990868,303.8L420.1853881278539,303.8L420.1853881278539,295.55L422.66210045662103,295.55L422.66210045662103,299.4L425.1388127853881,299.4L425.1388127853881,285.65L427.6155251141553,285.65L427.6155251141553,298.85L430.0922374429224,298.85L430.0922374429224,295L432.5173515981735,295L432.5173515981735,302.7L434.94246575342464,302.7L434.94246575342464,273.54999999999995L437.41917808219176,273.54999999999995L437.41917808219176,266.4L439.89589041095894,266.4L439.89589041095894,262.55L442.37260273972606,262.55L442.37260273972606,269.7L444.8493150684932,269.7L444.8493150684932,304.9L447.32602739726025,304.9L447.32602739726025,310.95L449.80273972602737,310.95L449.80273972602737,318.1L452.27945205479455,318.1L452.27945205479455,296.65L454.75616438356167,296.65L454.75616438356167,287.3L457.2328767123288,287.3L457.2328767123288,287.3L459.7095890410959,287.3L459.7095890410959,303.8L462.186301369863,303.8L462.186301369863,300.5L464.66301369863015,300.5L464.66301369863015,314.8L467.1397260273973,314.8L467.1397260273973,296.65L469.6164383561644,296.65L469.6164383561644,272.45L472.0931506849315,272.45L472.0931506849315,269.7L474.56986301369864,269.7L474.56986301369864,282.34999999999997L477.04657534246576,282.34999999999997L477.04657534246576,270.25L479.5232876712329,270.25L479.5232876712329,260.9L482,260.9L482,288.95L484.4767123287672,288.95L484.4767123287672,292.25L486.9534246575343,292.25L486.9534246575343,282.9L489.43013698630136,282.9L489.43013698630136,291.7L491.9068493150685,291.7L491.9068493150685,306.55L494.3835616438356,306.55L494.3835616438356,309.3L496.8602739726027,309.3L496.8602739726027,298.3L499.33698630136985,298.3L499.33698630136985,295L501.81369863013697,295L501.81369863013697,287.84999999999997L504.2904109589041,287.84999999999997L504.2904109589041,274.1L506.7671232876712,274.1L506.7671232876712,279.05L509.2438356164384,279.05L509.2438356164384,273.54999999999995L511.7205479452055,273.54999999999995L511.7205479452055,293.9L514.1972602739727,293.9L514.1972602739727,290.05L516.6739726027397,290.05L516.6739726027397,286.75L519.1506849315069,286.75L519.1506849315069,284.55L521.6273972602739,284.55L521.6273972602739,277.4L524.1041095890411,277.4L524.1041095890411,278.5L526.5808219178082,278.5L526.5808219178082,266.95L529.0575342465753,266.95L529.0575342465753,263.1L531.5342465753425,263.1L531.5342465753425,251L534.0109589041097,251L534.0109589041097,279.59999999999997L536.4876712328767,279.59999999999997L536.4876712328767,266.95L538.9643835616439,266.95L538.9643835616439,251.55L541.4410958904109,251.55L541.4410958904109,253.75L543.9178082191781,253.75L543.9178082191781,265.85L546.3945205479451,265.85L546.3945205479451,275.75L548.8712328767124,275.75L548.8712328767124,269.15L551.3479452054794,269.15L551.3479452054794,273L553.8246575342466,273L553.8246575342466,276.3L556.3013698630136,276.3L556.3013698630136,280.15L558.7780821917809,280.15L558.7780821917809,291.15L561.2547945205479,291.15L561.2547945205479,280.7L563.7315068493151,280.7L563.7315068493151,276.3L566.2082191780821,276.3L566.2082191780821,277.95L568.6849315068494,277.95L568.6849315068494,259.25000000000006L571.1616438356164,259.25000000000006L571.1616438356164,265.85L573.6383561643836,265.85L573.6383561643836,284L576.1150684931506,284L576.1150684931506,281.8L578.5917808219178,281.8L578.5917808219178,276.3L581.0684931506851,276.3L581.0684931506851,277.95L583.5452054794521,277.95L583.5452054794521,295.55L586.0219178082192,295.55L586.0219178082192,284L588.4986301369863,284L588.4986301369863,261.99999999999994L590.9753424657533,261.99999999999994L590.9753424657533,278.5L593.4520547945206,278.5L593.4520547945206,289.5L595.9287671232876,289.5L595.9287671232876,287.3L598.4054794520548,287.3L598.4054794520548,282.9L600.8821917808218,282.9L600.8821917808218,281.8L603.358904109589,281.8L603.358904109589,270.25L605.8356164383563,270.25L605.8356164383563,279.59999999999997L608.3123287671233,279.59999999999997L608.3123287671233,273.54999999999995L610.7890410958905,273.54999999999995L610.7890410958905,259.25000000000006L613.2657534246575,259.25000000000006L613.2657534246575,269.15L615.7424657534248,269.15L615.7424657534248,281.25L618.2191780821918,281.25L618.2191780821918,283.45L620.6958904109588,283.45L620.6958904109588,282.9L623.172602739726,282.9L623.172602739726,279.05L625.649315068493,279.05L625.649315068493,283.45L628.1260273972603,283.45L628.1260273972603,283.45L630.6027397260275,283.45L630.6027397260275,276.85L633.0794520547945,276.85L633.0794520547945,268.6L635.5561643835617,268.6L635.5561643835617,273L638.0328767123287,273L638.0328767123287,282.34999999999997L640.509589041096,282.34999999999997L640.509589041096,265.85L642.986301369863,265.85L642.986301369863,275.75L645.4630136986302,275.75L645.4630136986302,272.45L647.9397260273972,272.45L647.9397260273972,273.54999999999995L650.4164383561642,273.54999999999995L650.4164383561642,270.79999999999995L652.8931506849315,270.79999999999995L652.8931506849315,267.5L655.3698630136987,267.5L655.3698630136987,240L657.8465753424657,240L657.8465753424657,255.39999999999998L660.323287671233,255.39999999999998L660.323287671233,266.95L662.8,266.95L662.8,276.85L665.2767123287672,276.85L665.2767123287672,276.3L667.7534246575342,276.3L667.7534246575342,269.7L670.2301369863014,269.7L670.2301369863014,256.5L672.7068493150684,256.5L672.7068493150684,264.2L675.1835616438357,264.2L675.1835616438357,281.25L677.6602739726027,281.25L677.6602739726027,273.54999999999995L680.1369863013699,273.54999999999995L680.1369863013699,265.85L682.6136986301369,265.85L682.6136986301369,276.85L685.0904109589042,276.85L685.0904109589042,272.45L687.5671232876712,272.45L687.5671232876712,266.4L690.0438356164384,266.4L690.0438356164384,263.1L692.5205479452054,263.1L692.5205479452054,257.6L694.9972602739726,257.6L694.9972602739726,253.75L697.4739726027397,253.75L697.4739726027397,252.64999999999998L699.9506849315069,252.64999999999998L699.9506849315069,258.7L702.427397260274,258.7L702.427397260274,259.8L704.9041095890411,259.8L704.9041095890411,248.8L707.3808219178082,248.8L707.3808219178082,246.60000000000002L709.8575342465754,246.60000000000002L709.8575342465754,259.8L712.3342465753424,259.8L712.3342465753424,259.25000000000006L714.8109589041096,259.25000000000006L714.8109589041096,263.1L717.2876712328766,263.1L717.2876712328766,268.6L719.7643835616439,268.6L719.7643835616439,268.05L722.2410958904109,268.05L722.2410958904109,269.15L724.7178082191781,269.15L724.7178082191781,279.59999999999997L727.1945205479452,279.59999999999997L727.1945205479452,274.65L729.6712328767123,274.65L729.6712328767123,277.95L732.1479452054796,277.95L732.1479452054796,280.15L734.6246575342466,280.15L734.6246575342466,284L737.1013698630137,284L737.1013698630137,276.3L739.5780821917808,276.3L739.5780821917808,273L742.0547945205478,273L742.0547945205478,273L744.5315068493151,273L744.5315068493151,270.25L747.0082191780821,270.25L747.0082191780821,258.15L749.4849315068493,258.15L749.4849315068493,253.75L751.9616438356164,253.75L751.9616438356164,255.95L754.4383561643835,255.95L754.4383561643835,250.45000000000005L756.9150684931508,250.45000000000005L756.9150684931508,253.2L759.3917808219178,253.2L759.3917808219178,261.99999999999994L761.868493150685,261.99999999999994L761.868493150685,258.7L764.345205479452,258.7L764.345205479452,252.10000000000002L766.8219178082193,252.10000000000002L766.8219178082193,253.75L769.2986301369863,253.75L769.2986301369863,259.8L771.7753424657533,259.8L771.7753424657533,265.85L774.2520547945205,265.85L774.2520547945205,267.5L776.7287671232878,267.5L776.7287671232878,264.2L779.2054794520548,264.2L779.2054794520548,264.2L781.682191780822,264.2L781.682191780822,262.55L784.158904109589,262.55L784.158904109589,265.3L786.6356164383562,265.3L786.6356164383562,270.79999999999995L789.1123287671232,270.79999999999995L789.1123287671232,274.65L791.5890410958905,274.65L791.5890410958905,272.45L794.0657534246575,272.45L794.0657534246575,252.10000000000002L796.5424657534247,252.10000000000002L796.5424657534247,249.89999999999998L799.0191780821917,249.89999999999998L799.0191780821917,251L801.495890410959,251L801.495890410959,256.5L803.972602739726,256.5L803.972602739726,267.5L806.4493150684932,267.5L806.4493150684932,268.6L808.9260273972602,268.6L808.9260273972602,278.5L811.4027397260274,278.5L811.4027397260274,281.25L813.8794520547945,281.25L813.8794520547945,276.85L816.3561643835617,276.85L816.3561643835617,273.54999999999995L818.8328767123287,273.54999999999995L818.8328767123287,260.9L821.3095890410959,260.9L821.3095890410959,255.95L823.786301369863,255.95L823.786301369863,265.85L826.2630136986302,265.85L826.2630136986302,260.9L828.7397260273972,260.9L828.7397260273972,271.35L831.2164383561644,271.35L831.2164383561644,277.95L833.6931506849314,277.95L833.6931506849314,276.3L836.1698630136987,276.3L836.1698630136987,270.25L838.6465753424657,270.25L838.6465753424657,263.65L841.1232876712329,263.65L841.1232876712329,268.6L843.5999999999999,268.6L843.5999999999999,274.1L846.0767123287671,274.1L846.0767123287671,259.25000000000006L848.5534246575343,259.25000000000006L848.5534246575343,249.35000000000002L851.0301369863014,249.35000000000002L851.0301369863014,247.14999999999998L853.5068493150686,247.14999999999998L853.5068493150686,253.75L855.9835616438356,253.75L855.9835616438356,262.55L858.4602739726027,262.55L858.4602739726027,265.3L860.9369863013699,265.3L860.9369863013699,263.65L863.4136986301369,263.65L863.4136986301369,277.95L865.8904109589041,277.95L865.8904109589041,275.75L868.3671232876711,275.75L868.3671232876711,281.25L870.8438356164384,281.25L870.8438356164384,270.25L873.3205479452055,270.25L873.3205479452055,260.35L875.7972602739726,260.35L875.7972602739726,259.8L878.2739726027398,259.8L878.2739726027398,259.25000000000006L880.7506849315068,259.25000000000006L880.7506849315068,259.8L883.2273972602741,259.8L883.2273972602741,265.3L885.7041095890411,265.3L885.7041095890411,260.9L888.1808219178083,260.9L888.1808219178083,263.65L890.6575342465753,263.65L890.6575342465753,271.35L893.1342465753423,271.35L893.1342465753423,266.4L895.6109589041096,266.4L895.6109589041096,271.35L898.0876712328767,271.35L898.0876712328767,279.05L900.5643835616438,279.05L900.5643835616438,268.6L903.041095890411,268.6L903.041095890411,268.6L905.517808219178,268.6L905.517808219178,257.6L907.9945205479453,257.6L907.9945205479453,265.3L910.4712328767123,265.3L910.4712328767123,263.1L912.9479452054795,263.1L912.9479452054795,262.55L915.4246575342465,262.55L915.4246575342465,279.59999999999997L917.9013698630138,279.59999999999997L917.9013698630138,270.25L920.3780821917808,270.25L920.3780821917808,276.85L922.8547945205479,276.85L922.8547945205479,275.2L925.331506849315,275.2L925.331506849315,283.45L927.8082191780823,283.45L927.8082191780823,280.7L930.2849315068493,280.7L930.2849315068493,273.54999999999995L932.7616438356165,273.54999999999995L932.7616438356165,266.95L934,266.95L934,0L932.7616438356165,0L932.7616438356165,0L930.2849315068493,0L930.2849315068493,0L927.8082191780823,0L927.8082191780823,0L925.331506849315,0L925.331506849315,0L922.8547945205479,0L922.8547945205479,0L920.3780821917808,0L920.3780821917808,0L917.9013698630138,0L917.9013698630138,0L915.4246575342465,0L915.4246575342465,0L912.9479452054795,0L912.9479452054795,0L910.4712328767123,0L910.4712328767123,0L907.9945205479453,0L907.9945205479453,0L905.517808219178,0L905.517808219178,0L903.041095890411,0L903.041095890411,0L900.5643835616438,0L900.5643835616438,0L898.0876712328767,0L898.0876712328767,0L895.6109589041096,0L895.6109589041096,0L893.1342465753423,0L893.1342465753423,0L890.6575342465753,0L890.6575342465753,0L888.1808219178083,0L888.1808219178083,0L885.7041095890411,0L885.7041095890411,0L883.2273972602741,0L883.2273972602741,0L880.7506849315068,0L880.7506849315068,0L878.2739726027398,0L878.2739726027398,0L875.7972602739726,0L875.7972602739726,0L873.3205479452055,0L873.3205479452055,0L870.8438356164384,0L870.8438356164384,0L868.3671232876711,0L868.3671232876711,0L865.8904109589041,0L865.8904109589041,0L863.4136986301369,0L863.4136986301369,0L860.9369863013699,0L860.9369863013699,0L858.4602739726027,0L858.4602739726027,0L855.9835616438356,0L855.9835616438356,0L853.5068493150686,0L853.5068493150686,0L851.0301369863014,0L851.0301369863014,0L848.5534246575343,0L848.5534246575343,0L846.0767123287671,0L846.0767123287671,0L843.5999999999999,0L843.5999999999999,0L841.1232876712329,0L841.1232876712329,0L838.6465753424657,0L838.6465753424657,0L836.1698630136987,0L836.1698630136987,0L833.6931506849314,0L833.6931506849314,0L831.2164383561644,0L831.2164383561644,0L828.7397260273972,0L828.7397260273972,0L826.2630136986302,0L826.2630136986302,0L823.786301369863,0L823.786301369863,0L821.3095890410959,0L821.3095890410959,0L818.8328767123287,0L818.8328767123287,0L816.3561643835617,0L816.3561643835617,0L813.8794520547945,0L813.8794520547945,0L811.4027397260274,0L811.4027397260274,0L808.9260273972602,0L808.9260273972602,0L806.4493150684932,0L806.4493150684932,0L803.972602739726,0L803.972602739726,0L801.495890410959,0L801.495890410959,0L799.0191780821917,0L799.0191780821917,0L796.5424657534247,0L796.5424657534247,0L794.0657534246575,0L794.0657534246575,0L791.5890410958905,0L791.5890410958905,0L789.1123287671232,0L789.1123287671232,0L786.6356164383562,0L786.6356164383562,0L784.158904109589,0L784.158904109589,0L781.682191780822,0L781.682191780822,0L779.2054794520548,0L779.2054794520548,0L776.7287671232878,0L776.7287671232878,0L774.2520547945205,0L774.2520547945205,0L771.7753424657533,0L771.7753424657533,0L769.2986301369863,0L769.2986301369863,0L766.8219178082193,0L766.8219178082193,0L764.345205479452,0L764.345205479452,0L761.868493150685,0L761.868493150685,0L759.3917808219178,0L759.3917808219178,0L756.9150684931508,0L756.9150684931508,0L754.4383561643835,0L754.4383561643835,0L751.9616438356164,0L751.9616438356164,0L749.4849315068493,0L749.4849315068493,0L747.0082191780821,0L747.0082191780821,0L744.5315068493151,0L744.5315068493151,0L742.0547945205478,0L742.0547945205478,0L739.5780821917808,0L739.5780821917808,0L737.1013698630137,0L737.1013698630137,0L734.6246575342466,0L734.6246575342466,0L732.1479452054796,0L732.1479452054796,0L729.6712328767123,0L729.6712328767123,0L727.1945205479452,0L727.1945205479452,0L724.7178082191781,0L724.7178082191781,0L722.2410958904109,0L722.2410958904109,0L719.7643835616439,0L719.7643835616439,0L717.2876712328766,0L717.2876712328766,0L714.8109589041096,0L714.8109589041096,0L712.3342465753424,0L712.3342465753424,0L709.8575342465754,0L709.8575342465754,0L707.3808219178082,0L707.3808219178082,0L704.9041095890411,0L704.9041095890411,0L702.427397260274,0L702.427397260274,0L699.9506849315069,0L699.9506849315069,0L697.4739726027397,0L697.4739726027397,0L694.9972602739726,0L694.9972602739726,0L692.5205479452054,0L692.5205479452054,0L690.0438356164384,0L690.0438356164384,0L687.5671232876712,0L687.5671232876712,0L685.0904109589042,0L685.0904109589042,0L682.6136986301369,0L682.6136986301369,0L680.1369863013699,0L680.1369863013699,0L677.6602739726027,0L677.6602739726027,0L675.1835616438357,0L675.1835616438357,0L672.7068493150684,0L672.7068493150684,0L670.2301369863014,0L670.2301369863014,0L667.7534246575342,0L667.7534246575342,0L665.2767123287672,0L665.2767123287672,0L662.8,0L662.8,0L660.323287671233,0L660.323287671233,0L657.8465753424657,0L657.8465753424657,0L655.3698630136987,0L655.3698630136987,0L652.8931506849315,0L652.8931506849315,0L650.4164383561642,0L650.4164383561642,0L647.9397260273972,0L647.9397260273972,0L645.4630136986302,0L645.4630136986302,0L642.986301369863,0L642.986301369863,0L640.509589041096,0L640.509589041096,0L638.0328767123287,0L638.0328767123287,0L635.5561643835617,0L635.5561643835617,0L633.0794520547945,0L633.0794520547945,0L630.6027397260275,0L630.6027397260275,0L628.1260273972603,0L628.1260273972603,0L625.649315068493,0L625.649315068493,0L623.172602739726,0L623.172602739726,0L620.6958904109588,0L620.6958904109588,0L618.2191780821918,0L618.2191780821918,0L615.7424657534248,0L615.7424657534248,0L613.2657534246575,0L613.2657534246575,0L610.7890410958905,0L610.7890410958905,0L608.3123287671233,0L608.3123287671233,0L605.8356164383563,0L605.8356164383563,0L603.358904109589,0L603.358904109589,0L600.8821917808218,0L600.8821917808218,0L598.4054794520548,0L598.4054794520548,0L595.9287671232876,0L595.9287671232876,0L593.4520547945206,0L593.4520547945206,0L590.9753424657533,0L590.9753424657533,0L588.4986301369863,0L588.4986301369863,0L586.0219178082192,0L586.0219178082192,0L583.5452054794521,0L583.5452054794521,0L581.0684931506851,0L581.0684931506851,0L578.5917808219178,0L578.5917808219178,0L576.1150684931506,0L576.1150684931506,0L573.6383561643836,0L573.6383561643836,0L571.1616438356164,0L571.1616438356164,0L568.6849315068494,0L568.6849315068494,0L566.2082191780821,0L566.2082191780821,0L563.7315068493151,0L563.7315068493151,0L561.2547945205479,0L561.2547945205479,0L558.7780821917809,0L558.7780821917809,0L556.3013698630136,0L556.3013698630136,0L553.8246575342466,0L553.8246575342466,0L551.3479452054794,0L551.3479452054794,0L548.8712328767124,0L548.8712328767124,0L546.3945205479451,0L546.3945205479451,0L543.9178082191781,0L543.9178082191781,0L541.4410958904109,0L541.4410958904109,0L538.9643835616439,0L538.9643835616439,0L536.4876712328767,0L536.4876712328767,0L534.0109589041097,0L534.0109589041097,0L531.5342465753425,0L531.5342465753425,0L529.0575342465753,0L529.0575342465753,0L526.5808219178082,0L526.5808219178082,0L524.1041095890411,0L524.1041095890411,0L521.6273972602739,0L521.6273972602739,0L519.1506849315069,0L519.1506849315069,0L516.6739726027397,0L516.6739726027397,0L514.1972602739727,0L514.1972602739727,0L511.7205479452055,0L511.7205479452055,0L509.2438356164384,0L509.2438356164384,0L506.7671232876712,0L506.7671232876712,0L504.2904109589041,0L504.2904109589041,0L501.81369863013697,0L501.81369863013697,0L499.33698630136985,0L499.33698630136985,0L496.8602739726027,0L496.8602739726027,0L494.3835616438356,0L494.3835616438356,0L491.9068493150685,0L491.9068493150685,0L489.43013698630136,0L489.43013698630136,0L486.9534246575343,0L486.9534246575343,0L484.4767123287672,0L484.4767123287672,0L482,0L482,0L479.5232876712329,0L479.5232876712329,0L477.04657534246576,0L477.04657534246576,0L474.56986301369864,0L474.56986301369864,0L472.0931506849315,0L472.0931506849315,0L469.6164383561644,0L469.6164383561644,0L467.1397260273973,0L467.1397260273973,0L464.66301369863015,0L464.66301369863015,0L462.186301369863,0L462.186301369863,0L459.7095890410959,0L459.7095890410959,0L457.2328767123288,0L457.2328767123288,0L454.75616438356167,0L454.75616438356167,0L452.27945205479455,0L452.27945205479455,0L449.80273972602737,0L449.80273972602737,0L447.32602739726025,0L447.32602739726025,0L444.8493150684932,0L444.8493150684932,0L442.37260273972606,0L442.37260273972606,0L439.89589041095894,0L439.89589041095894,0L437.41917808219176,0L437.41917808219176,0L434.94246575342464,0L434.94246575342464,0L432.5173515981735,0L432.5173515981735,0L430.0922374429224,0L430.0922374429224,0L427.6155251141553,0L427.6155251141553,0L425.1388127853881,0L425.1388127853881,0L422.66210045662103,0L422.66210045662103,0L420.1853881278539,0L420.1853881278539,0L417.7086757990868,0L417.7086757990868,0L415.23196347031967,0L415.23196347031967,0L412.7552511415525,0L412.7552511415525,0L410.27853881278537,0L410.27853881278537,0L407.80182648401825,0L407.80182648401825,0L405.3251141552512,0L405.3251141552512,0L402.84840182648406,0L402.84840182648406,0L400.3716894977169,0L400.3716894977169,0L397.89497716894977,0L397.89497716894977,0L395.41826484018264,0L395.41826484018264,0L392.9415525114155,0L392.9415525114155,0L390.4648401826484,0L390.4648401826484,0L387.9881278538813,0L387.9881278538813,0L385.51141552511416,0L385.51141552511416,0L383.03470319634704,0L383.03470319634704,0L380.5579908675799,0L380.5579908675799,0L378.0812785388128,0L378.0812785388128,0L375.6045662100457,0L375.6045662100457,0L373.12785388127855,0L373.12785388127855,0L370.65114155251143,0L370.65114155251143,0L368.17442922374426,0L368.17442922374426,0L365.69771689497713,0L365.69771689497713,0L363.22100456621,0L363.22100456621,0L360.7442922374429,0L360.7442922374429,0L358.2675799086758,0L358.2675799086758,0L355.79086757990865,0L355.79086757990865,0L353.31415525114153,0L353.31415525114153,0L350.8374429223744,0L350.8374429223744,0L348.3607305936073,0L348.3607305936073,0L345.88401826484017,0L345.88401826484017,0L343.40730593607304,0L343.40730593607304,0L340.9305936073059,0L340.9305936073059,0L338.4538812785388,0L338.4538812785388,0L335.9771689497717,0L335.9771689497717,0L333.50045662100456,0L333.50045662100456,0L331.02374429223744,0L331.02374429223744,0L328.5470319634703,0L328.5470319634703,0L326.0703196347032,0L326.0703196347032,0L323.5936073059361,0L323.5936073059361,0L321.11689497716895,0L321.11689497716895,0L318.64018264840183,0L318.64018264840183,0L316.1634703196347,0L316.1634703196347,0L313.6867579908676,0L313.6867579908676,0L311.21004566210047,0L311.21004566210047,0L308.73333333333335,0L308.73333333333335,0L306.2566210045662,0L306.2566210045662,0L303.77990867579905,0L303.77990867579905,0L301.303196347032,0L301.303196347032,0L298.82648401826486,0L298.82648401826486,0L296.34977168949774,0L296.34977168949774,0L293.8730593607306,0L293.8730593607306,0L291.39634703196344,0L291.39634703196344,0L288.9196347031963,0L288.9196347031963,0L286.4429223744292,0L286.4429223744292,0L283.9662100456621,0L283.9662100456621,0L281.48949771689496,0L281.48949771689496,0L279.01278538812784,0L279.01278538812784,0L276.5360730593607,0L276.5360730593607,0L274.0593607305936,0L274.0593607305936,0L271.5826484018265,0L271.5826484018265,0L269.10593607305935,0L269.10593607305935,0L266.62922374429223,0L266.62922374429223,0L264.1525114155251,0L264.1525114155251,0L261.675799086758,0L261.675799086758,0L259.19908675799087,0L259.19908675799087,0L256.72237442922375,0L256.72237442922375,0L254.24566210045663,0L254.24566210045663,0L251.7689497716895,0L251.7689497716895,0L249.29223744292239,0L249.29223744292239,0L246.81552511415526,0L246.81552511415526,0L244.33881278538814,0L244.33881278538814,0L241.86210045662102,0L241.86210045662102,0L239.38538812785387,0L239.38538812785387,0L236.90867579908678,0L236.90867579908678,0L234.43196347031966,0L234.43196347031966,0L231.9552511415525,0L231.9552511415525,0L229.4785388127854,0L229.4785388127854,0L227.00182648401827,0L227.00182648401827,0L224.52511415525112,0L224.52511415525112,0L222.048401826484,0L222.048401826484,0L219.5716894977169,0L219.5716894977169,0L217.09497716894975,0L217.09497716894975,0L214.61826484018263,0L214.61826484018263,0L212.1415525114155,0L212.1415525114155,0L209.6648401826484,0L209.6648401826484,0L207.18812785388127,0L207.18812785388127,0L204.71141552511415,0L204.71141552511415,0L202.23470319634703,0L202.23470319634703,0L199.7579908675799,0L199.7579908675799,0L197.28127853881278,0L197.28127853881278,0L194.80456621004566,0L194.80456621004566,0L192.32785388127854,0L192.32785388127854,0L189.85114155251142,0L189.85114155251142,0L187.3744292237443,0L187.3744292237443,0L184.89771689497718,0L184.89771689497718,0L182.42100456621006,0L182.42100456621006,0L179.94429223744294,0L179.94429223744294,0L177.46757990867582,0L177.46757990867582,0L174.9908675799087,0L174.9908675799087,0L172.51415525114155,0L172.51415525114155,0L170.03744292237445,0L170.03744292237445,0L167.56073059360733,0L167.56073059360733,0L165.08401826484018,0L165.08401826484018,0L162.60730593607306,0L162.60730593607306,0L160.13059360730594,0L160.13059360730594,0L157.65388127853882,0L157.65388127853882,0L155.17716894977167,0L155.17716894977167,0L152.70045662100455,0L152.70045662100455,0L150.22374429223743,0L150.22374429223743,0L147.7470319634703,0L147.7470319634703,0L145.27031963470318,0L145.27031963470318,0L142.79360730593606,0L142.79360730593606,0L140.31689497716894,0L140.31689497716894,0L137.84018264840182,0L137.84018264840182,0L135.3634703196347,0L135.3634703196347,0L132.88675799086758,0L132.88675799086758,0L130.41004566210046,0L130.41004566210046,0L127.93333333333334,0L127.93333333333334,0L125.45662100456622,0L125.45662100456622,0L122.9799086757991,0L122.9799086757991,0L120.45159817351598,0L120.45159817351598,0L117.92328767123287,0L117.92328767123287,0L115.44657534246576,0L115.44657534246576,0L112.96986301369864,0L112.96986301369864,0L110.4931506849315,0L110.4931506849315,0L108.01643835616439,0L108.01643835616439,0L105.53972602739725,0L105.53972602739725,0L103.06301369863013,0L103.06301369863013,0L100.58630136986302,0L100.58630136986302,0L98.10958904109589,0L98.10958904109589,0L95.63287671232877,0L95.63287671232877,0L93.15616438356165,0L93.15616438356165,0L90.67945205479452,0L90.67945205479452,0L88.2027397260274,0L88.2027397260274,0L85.72602739726028,0L85.72602739726028,0L83.24931506849316,0L83.24931506849316,0L80.77260273972603,0L80.77260273972603,0L78.2958904109589,0L78.2958904109589,0L75.81917808219177,0L75.81917808219177,0L73.34246575342465,0L73.34246575342465,0L70.86575342465753,0L70.86575342465753,0L68.3890410958904,0L68.3890410958904,0L65.91232876712328,0L65.91232876712328,0L63.43561643835616,0L63.43561643835616,0L60.95890410958904,0L60.95890410958904,0L58.48219178082192,0L58.48219178082192,0L56.0054794520548,0L56.0054794520548,0L53.528767123287665,0L53.528767123287665,0L51.052054794520544,0L51.052054794520544,0L48.57534246575342,0L48.57534246575342,0L46.0986301369863,0L46.0986301369863,0L43.62191780821918,0L43.62191780821918,0L41.14520547945206,0L41.14520547945206,0L38.66849315068493,0L38.66849315068493,0L36.19178082191781,0L36.19178082191781,0L33.71506849315068,0L33.71506849315068,0L31.23835616438356,0L31.23835616438356,0L30,0Z"/></clipPath><clipPath id="O-below-24"><path d="M30,225.14999999999998L31.23835616438356,225.14999999999998L31.23835616438356,240.55L33.71506849315068,240.55L33.71506849315068,244.95L36.19178082191781,244.95L36.19178082191781,246.60000000000002L38.66849315068493,246.60000000000002L38.66849315068493,247.14999999999998L41.14520547945206,247.14999999999998L41.14520547945206,256.5L43.62191780821918,256.5L43.62191780821918,258.15L46.0986301369863,258.15L46.0986301369863,257.6L48.57534246575342,257.6L48.57534246575342,258.15L51.052054794520544,258.15L51.052054794520544,239.45L53.528767123287665,239.45L53.528767123287665,233.95L56.0054794520548,233.95L56.0054794520548,231.75L58.48219178082192,231.75L58.48219178082192,216.34999999999997L60.95890410958904,216.34999999999997L60.95890410958904,200.95000000000005L63.43561643835616,200.95000000000005L63.43561643835616,214.70000000000005L65.91232876712328,214.70000000000005L65.91232876712328,231.2L68.3890410958904,231.2L68.3890410958904,233.95L70.86575342465753,233.95L70.86575342465753,244.39999999999998L73.34246575342465,244.39999999999998L73.34246575342465,246.05L75.81917808219177,246.05L75.81917808219177,255.39999999999998L78.2958904109589,255.39999999999998L78.2958904109589,259.8L80.77260273972603,259.8L80.77260273972603,236.15000000000003L83.24931506849316,236.15000000000003L83.24931506849316,211.95000000000005L85.72602739726028,211.95000000000005L85.72602739726028,235.05L88.2027397260274,235.05L88.2027397260274,261.45L90.67945205479452,261.45L90.67945205479452,269.7L93.15616438356165,269.7L93.15616438356165,261.45L95.63287671232877,261.45L95.63287671232877,250.45000000000005L98.10958904109589,250.45000000000005L98.10958904109589,253.75L100.58630136986302,253.75L100.58630136986302,252.64999999999998L103.06301369863013,252.64999999999998L103.06301369863013,266.95L105.53972602739725,266.95L105.53972602739725,251.55L108.01643835616439,251.55L108.01643835616439,214.70000000000005L110.4931506849315,214.70000000000005L110.4931506849315,260.9L112.96986301369864,260.9L112.96986301369864,292.25L115.44657534246576,292.25L115.44657534246576,287.84999999999997L117.92328767123287,287.84999999999997L117.92328767123287,280.7L120.45159817351598,280.7L120.45159817351598,287.3L122.9799086757991,287.3L122.9799086757991,291.7L125.45662100456622,291.7L125.45662100456622,269.7L127.93333333333334,269.7L127.93333333333334,264.2L130.41004566210046,264.2L130.41004566210046,273.54999999999995L132.88675799086758,273.54999999999995L132.88675799086758,273L135.3634703196347,273L135.3634703196347,274.1L137.84018264840182,274.1L137.84018264840182,275.75L140.31689497716894,275.75L140.31689497716894,276.3L142.79360730593606,276.3L142.79360730593606,282.9L145.27031963470318,282.9L145.27031963470318,280.15L147.7470319634703,280.15L147.7470319634703,277.95L150.22374429223743,277.95L150.22374429223743,300.5L152.70045662100455,300.5L152.70045662100455,292.8L155.17716894977167,292.8L155.17716894977167,288.95L157.65388127853882,288.95L157.65388127853882,282.34999999999997L160.13059360730594,282.34999999999997L160.13059360730594,269.7L162.60730593607306,269.7L162.60730593607306,266.95L165.08401826484018,266.95L165.08401826484018,286.75L167.56073059360733,286.75L167.56073059360733,275.2L170.03744292237445,275.2L170.03744292237445,282.34999999999997L172.51415525114155,282.34999999999997L172.51415525114155,289.5L174.9908675799087,289.5L174.9908675799087,297.75L177.46757990867582,297.75L177.46757990867582,296.1L179.94429223744294,296.1L179.94429223744294,237.8L182.42100456621006,237.8L182.42100456621006,227.89999999999998L184.89771689497718,227.89999999999998L184.89771689497718,249.35000000000002L187.3744292237443,249.35000000000002L187.3744292237443,280.15L189.85114155251142,280.15L189.85114155251142,286.75L192.32785388127854,286.75L192.32785388127854,295.55L194.80456621004566,295.55L194.80456621004566,302.7L197.28127853881278,302.7L197.28127853881278,314.8L199.7579908675799,314.8L199.7579908675799,296.1L202.23470319634703,296.1L202.23470319634703,283.45L204.71141552511415,283.45L204.71141552511415,301.6L207.18812785388127,301.6L207.18812785388127,309.3L209.6648401826484,309.3L209.6648401826484,310.4L212.1415525114155,310.4L212.1415525114155,316.45L214.61826484018263,316.45L214.61826484018263,301.6L217.09497716894975,301.6L217.09497716894975,306.55L219.5716894977169,306.55L219.5716894977169,296.1L222.048401826484,296.1L222.048401826484,299.95L224.52511415525112,299.95L224.52511415525112,304.35L227.00182648401827,304.35L227.00182648401827,298.85L229.4785388127854,298.85L229.4785388127854,303.8L231.9552511415525,303.8L231.9552511415525,276.85L234.43196347031966,276.85L234.43196347031966,308.75L236.90867579908678,308.75L236.90867579908678,306.55L239.38538812785387,306.55L239.38538812785387,301.05L241.86210045662102,301.05L241.86210045662102,317.55L244.33881278538814,317.55L244.33881278538814,310.4L246.81552511415526,310.4L246.81552511415526,301.05L249.29223744292239,301.05L249.29223744292239,290.05L251.7689497716895,290.05L251.7689497716895,279.05L254.24566210045663,279.05L254.24566210045663,294.45L256.72237442922375,294.45L256.72237442922375,273.54999999999995L259.19908675799087,273.54999999999995L259.19908675799087,277.95L261.675799086758,277.95L261.675799086758,296.65L264.1525114155251,296.65L264.1525114155251,280.15L266.62922374429223,280.15L266.62922374429223,280.7L269.10593607305935,280.7L269.10593607305935,300.5L271.5826484018265,300.5L271.5826484018265,289.5L274.0593607305936,289.5L274.0593607305936,257.6L276.5360730593607,257.6L276.5360730593607,282.34999999999997L279.01278538812784,282.34999999999997L279.01278538812784,286.2L281.48949771689496,286.2L281.48949771689496,296.1L283.9662100456621,296.1L283.9662100456621,284.55L286.4429223744292,284.55L286.4429223744292,274.65L288.9196347031963,274.65L288.9196347031963,279.05L291.39634703196344,279.05L291.39634703196344,296.65L293.8730593607306,296.65L293.8730593607306,320.85L296.34977168949774,320.85L296.34977168949774,330.2L298.82648401826486,330.2L298.82648401826486,322.5L301.303196347032,322.5L301.303196347032,309.85L303.77990867579905,309.85L303.77990867579905,287.3L306.2566210045662,287.3L306.2566210045662,274.65L308.73333333333335,274.65L308.73333333333335,304.35L311.21004566210047,304.35L311.21004566210047,279.05L313.6867579908676,279.05L313.6867579908676,299.95L316.1634703196347,299.95L316.1634703196347,283.45L318.64018264840183,283.45L318.64018264840183,275.2L321.11689497716895,275.2L321.11689497716895,292.8L323.5936073059361,292.8L323.5936073059361,293.35L326.0703196347032,293.35L326.0703196347032,274.1L328.5470319634703,274.1L328.5470319634703,284.55L331.02374429223744,284.55L331.02374429223744,295L333.50045662100456,295L333.50045662100456,295L335.9771689497717,295L335.9771689497717,287.84999999999997L338.4538812785388,287.84999999999997L338.4538812785388,286.75L340.9305936073059,286.75L340.9305936073059,284L343.40730593607304,284L343.40730593607304,274.1L345.88401826484017,274.1L345.88401826484017,269.7L348.3607305936073,269.7L348.3607305936073,271.35L350.8374429223744,271.35L350.8374429223744,284.55L353.31415525114153,284.55L353.31415525114153,274.1L355.79086757990865,274.1L355.79086757990865,273.54999999999995L358.2675799086758,273.54999999999995L358.2675799086758,282.34999999999997L360.7442922374429,282.34999999999997L360.7442922374429,294.45L363.22100456621,294.45L363.22100456621,297.75L365.69771689497713,297.75L365.69771689497713,302.7L368.17442922374426,302.7L368.17442922374426,295.55L370.65114155251143,295.55L370.65114155251143,281.8L373.12785388127855,281.8L373.12785388127855,295.55L375.6045662100457,295.55L375.6045662100457,286.2L378.0812785388128,286.2L378.0812785388128,307.1L380.5579908675799,307.1L380.5579908675799,302.15L383.03470319634704,302.15L383.03470319634704,296.65L385.51141552511416,296.65L385.51141552511416,276.3L387.9881278538813,276.3L387.9881278538813,272.45L390.4648401826484,272.45L390.4648401826484,262.55L392.9415525114155,262.55L392.9415525114155,285.65L395.41826484018264,285.65L395.41826484018264,307.65L397.89497716894977,307.65L397.89497716894977,320.3L400.3716894977169,320.3L400.3716894977169,311.5L402.84840182648406,311.5L402.84840182648406,296.1L405.3251141552512,296.1L405.3251141552512,301.05L407.80182648401825,301.05L407.80182648401825,305.45L410.27853881278537,305.45L410.27853881278537,291.15L412.7552511415525,291.15L412.7552511415525,267.5L415.23196347031967,267.5L415.23196347031967,301.6L417.7086757990868,301.6L417.7086757990868,303.8L420.1853881278539,303.8L420.1853881278539,295.55L422.66210045662103,295.55L422.66210045662103,299.4L425.1388127853881,299.4L425.1388127853881,285.65L427.6155251141553,285.65L427.6155251141553,298.85L430.0922374429224,298.85L430.0922374429224,295L432.5173515981735,295L432.5173515981735,302.7L434.94246575342464,302.7L434.94246575342464,273.54999999999995L437.41917808219176,273.54999999999995L437.41917808219176,266.4L439.89589041095894,266.4L439.89589041095894,262.55L442.37260273972606,262.55L442.37260273972606,269.7L444.8493150684932,269.7L444.8493150684932,304.9L447.32602739726025,304.9L447.32602739726025,310.95L449.80273972602737,310.95L449.80273972602737,318.1L452.27945205479455,318.1L452.27945205479455,296.65L454.75616438356167,296.65L454.75616438356167,287.3L457.2328767123288,287.3L457.2328767123288,287.3L459.7095890410959,287.3L459.7095890410959,303.8L462.186301369863,303.8L462.186301369863,300.5L464.66301369863015,300.5L464.66301369863015,314.8L467.1397260273973,314.8L467.1397260273973,296.65L469.6164383561644,296.65L469.6164383561644,272.45L472.0931506849315,272.45L472.0931506849315,269.7L474.56986301369864,269.7L474.56986301369864,282.34999999999997L477.04657534246576,282.34999999999997L477.04657534246576,270.25L479.5232876712329,270.25L479.5232876712329,260.9L482,260.9L482,288.95L484.4767123287672,288.95L484.4767123287672,292.25L486.9534246575343,292.25L486.9534246575343,282.9L489.43013698630136,282.9L489.43013698630136,291.7L491.9068493150685,291.7L491.9068493150685,306.55L494.3835616438356,306.55L494.3835616438356,309.3L496.8602739726027,309.3L496.8602739726027,298.3L499.33698630136985,298.3L499.33698630136985,295L501.81369863013697,295L501.81369863013697,287.84999999999997L504.2904109589041,287.84999999999997L504.2904109589041,274.1L506.7671232876712,274.1L506.7671232876712,279.05L509.2438356164384,279.05L509.2438356164384,273.54999999999995L511.7205479452055,273.54999999999995L511.7205479452055,293.9L514.1972602739727,293.9L514.1972602739727,290.05L516.6739726027397,290.05L516.6739726027397,286.75L519.1506849315069,286.75L519.1506849315069,284.55L521.6273972602739,284.55L521.6273972602739,277.4L524.1041095890411,277.4L524.1041095890411,278.5L526.5808219178082,278.5L526.5808219178082,266.95L529.0575342465753,266.95L529.0575342465753,263.1L531.5342465753425,263.1L531.5342465753425,251L534.0109589041097,251L534.0109589041097,279.59999999999997L536.4876712328767,279.59999999999997L536.4876712328767,266.95L538.9643835616439,266.95L538.9643835616439,251.55L541.4410958904109,251.55L541.4410958904109,253.75L543.9178082191781,253.75L543.9178082191781,265.85L546.3945205479451,265.85L546.3945205479451,275.75L548.8712328767124,275.75L548.8712328767124,269.15L551.3479452054794,269.15L551.3479452054794,273L553.8246575342466,273L553.8246575342466,276.3L556.3013698630136,276.3L556.3013698630136,280.15L558.7780821917809,280.15L558.7780821917809,291.15L561.2547945205479,291.15L561.2547945205479,280.7L563.7315068493151,280.7L563.7315068493151,276.3L566.2082191780821,276.3L566.2082191780821,277.95L568.6849315068494,277.95L568.6849315068494,259.25000000000006L571.1616438356164,259.25000000000006L571.1616438356164,265.85L573.6383561643836,265.85L573.6383561643836,284L576.1150684931506,284L576.1150684931506,281.8L578.5917808219178,281.8L578.5917808219178,276.3L581.0684931506851,276.3L581.0684931506851,277.95L583.5452054794521,277.95L583.5452054794521,295.55L586.0219178082192,295.55L586.0219178082192,284L588.4986301369863,284L588.4986301369863,261.99999999999994L590.9753424657533,261.99999999999994L590.9753424657533,278.5L593.4520547945206,278.5L593.4520547945206,289.5L595.9287671232876,289.5L595.9287671232876,287.3L598.4054794520548,287.3L598.4054794520548,282.9L600.8821917808218,282.9L600.8821917808218,281.8L603.358904109589,281.8L603.358904109589,270.25L605.8356164383563,270.25L605.8356164383563,279.59999999999997L608.3123287671233,279.59999999999997L608.3123287671233,273.54999999999995L610.7890410958905,273.54999999999995L610.7890410958905,259.25000000000006L613.2657534246575,259.25000000000006L613.2657534246575,269.15L615.7424657534248,269.15L615.7424657534248,281.25L618.2191780821918,281.25L618.2191780821918,283.45L620.6958904109588,283.45L620.6958904109588,282.9L623.172602739726,282.9L623.172602739726,279.05L625.649315068493,279.05L625.649315068493,283.45L628.1260273972603,283.45L628.1260273972603,283.45L630.6027397260275,283.45L630.6027397260275,276.85L633.0794520547945,276.85L633.0794520547945,268.6L635.5561643835617,268.6L635.5561643835617,273L638.0328767123287,273L638.0328767123287,282.34999999999997L640.509589041096,282.34999999999997L640.509589041096,265.85L642.986301369863,265.85L642.986301369863,275.75L645.4630136986302,275.75L645.4630136986302,272.45L647.9397260273972,272.45L647.9397260273972,273.54999999999995L650.4164383561642,273.54999999999995L650.4164383561642,270.79999999999995L652.8931506849315,270.79999999999995L652.8931506849315,267.5L655.3698630136987,267.5L655.3698630136987,240L657.8465753424657,240L657.8465753424657,255.39999999999998L660.323287671233,255.39999999999998L660.323287671233,266.95L662.8,266.95L662.8,276.85L665.2767123287672,276.85L665.2767123287672,276.3L667.7534246575342,276.3L667.7534246575342,269.7L670.2301369863014,269.7L670.2301369863014,256.5L672.7068493150684,256.5L672.7068493150684,264.2L675.1835616438357,264.2L675.1835616438357,281.25L677.6602739726027,281.25L677.6602739726027,273.54999999999995L680.1369863013699,273.54999999999995L680.1369863013699,265.85L682.6136986301369,265.85L682.6136986301369,276.85L685.0904109589042,276.85L685.0904109589042,272.45L687.5671232876712,272.45L687.5671232876712,266.4L690.0438356164384,266.4L690.0438356164384,263.1L692.5205479452054,263.1L692.5205479452054,257.6L694.9972602739726,257.6L694.9972602739726,253.75L697.4739726027397,253.75L697.4739726027397,252.64999999999998L699.9506849315069,252.64999999999998L699.9506849315069,258.7L702.427397260274,258.7L702.427397260274,259.8L704.9041095890411,259.8L704.9041095890411,248.8L707.3808219178082,248.8L707.3808219178082,246.60000000000002L709.8575342465754,246.60000000000002L709.8575342465754,259.8L712.3342465753424,259.8L712.3342465753424,259.25000000000006L714.8109589041096,259.25000000000006L714.8109589041096,263.1L717.2876712328766,263.1L717.2876712328766,268.6L719.7643835616439,268.6L719.7643835616439,268.05L722.2410958904109,268.05L722.2410958904109,269.15L724.7178082191781,269.15L724.7178082191781,279.59999999999997L727.1945205479452,279.59999999999997L727.1945205479452,274.65L729.6712328767123,274.65L729.6712328767123,277.95L732.1479452054796,277.95L732.1479452054796,280.15L734.6246575342466,280.15L734.6246575342466,284L737.1013698630137,284L737.1013698630137,276.3L739.5780821917808,276.3L739.5780821917808,273L742.0547945205478,273L742.0547945205478,273L744.5315068493151,273L744.5315068493151,270.25L747.0082191780821,270.25L747.0082191780821,258.15L749.4849315068493,258.15L749.4849315068493,253.75L751.9616438356164,253.75L751.9616438356164,255.95L754.4383561643835,255.95L754.4383561643835,250.45000000000005L756.9150684931508,250.45000000000005L756.9150684931508,253.2L759.3917808219178,253.2L759.3917808219178,261.99999999999994L761.868493150685,261.99999999999994L761.868493150685,258.7L764.345205479452,258.7L764.345205479452,252.10000000000002L766.8219178082193,252.10000000000002L766.8219178082193,253.75L769.2986301369863,253.75L769.2986301369863,259.8L771.7753424657533,259.8L771.7753424657533,265.85L774.2520547945205,265.85L774.2520547945205,267.5L776.7287671232878,267.5L776.7287671232878,264.2L779.2054794520548,264.2L779.2054794520548,264.2L781.682191780822,264.2L781.682191780822,262.55L784.158904109589,262.55L784.158904109589,265.3L786.6356164383562,265.3L786.6356164383562,270.79999999999995L789.1123287671232,270.79999999999995L789.1123287671232,274.65L791.5890410958905,274.65L791.5890410958905,272.45L794.0657534246575,272.45L794.0657534246575,252.10000000000002L796.5424657534247,252.10000000000002L796.5424657534247,249.89999999999998L799.0191780821917,249.89999999999998L799.0191780821917,251L801.495890410959,251L801.495890410959,256.5L803.972602739726,256.5L803.972602739726,267.5L806.4493150684932,267.5L806.4493150684932,268.6L808.9260273972602,268.6L808.9260273972602,278.5L811.4027397260274,278.5L811.4027397260274,281.25L813.8794520547945,281.25L813.8794520547945,276.85L816.3561643835617,276.85L816.3561643835617,273.54999999999995L818.8328767123287,273.54999999999995L818.8328767123287,260.9L821.3095890410959,260.9L821.3095890410959,255.95L823.786301369863,255.95L823.786301369863,265.85L826.2630136986302,265.85L826.2630136986302,260.9L828.7397260273972,260.9L828.7397260273972,271.35L831.2164383561644,271.35L831.2164383561644,277.95L833.6931506849314,277.95L833.6931506849314,276.3L836.1698630136987,276.3L836.1698630136987,270.25L838.6465753424657,270.25L838.6465753424657,263.65L841.1232876712329,263.65L841.1232876712329,268.6L843.5999999999999,268.6L843.5999999999999,274.1L846.0767123287671,274.1L846.0767123287671,259.25000000000006L848.5534246575343,259.25000000000006L848.5534246575343,249.35000000000002L851.0301369863014,249.35000000000002L851.0301369863014,247.14999999999998L853.5068493150686,247.14999999999998L853.5068493150686,253.75L855.9835616438356,253.75L855.9835616438356,262.55L858.4602739726027,262.55L858.4602739726027,265.3L860.9369863013699,265.3L860.9369863013699,263.65L863.4136986301369,263.65L863.4136986301369,277.95L865.8904109589041,277.95L865.8904109589041,275.75L868.3671232876711,275.75L868.3671232876711,281.25L870.8438356164384,281.25L870.8438356164384,270.25L873.3205479452055,270.25L873.3205479452055,260.35L875.7972602739726,260.35L875.7972602739726,259.8L878.2739726027398,259.8L878.2739726027398,259.25000000000006L880.7506849315068,259.25000000000006L880.7506849315068,259.8L883.2273972602741,259.8L883.2273972602741,265.3L885.7041095890411,265.3L885.7041095890411,260.9L888.1808219178083,260.9L888.1808219178083,263.65L890.6575342465753,263.65L890.6575342465753,271.35L893.1342465753423,271.35L893.1342465753423,266.4L895.6109589041096,266.4L895.6109589041096,271.35L898.0876712328767,271.35L898.0876712328767,279.05L900.5643835616438,279.05L900.5643835616438,268.6L903.041095890411,268.6L903.041095890411,268.6L905.517808219178,268.6L905.517808219178,257.6L907.9945205479453,257.6L907.9945205479453,265.3L910.4712328767123,265.3L910.4712328767123,263.1L912.9479452054795,263.1L912.9479452054795,262.55L915.4246575342465,262.55L915.4246575342465,279.59999999999997L917.9013698630138,279.59999999999997L917.9013698630138,270.25L920.3780821917808,270.25L920.3780821917808,276.85L922.8547945205479,276.85L922.8547945205479,275.2L925.331506849315,275.2L925.331506849315,283.45L927.8082191780823,283.45L927.8082191780823,280.7L930.2849315068493,280.7L930.2849315068493,273.54999999999995L932.7616438356165,273.54999999999995L932.7616438356165,266.95L934,266.95L934,600L932.7616438356165,600L932.7616438356165,600L930.2849315068493,600L930.2849315068493,600L927.8082191780823,600L927.8082191780823,600L925.331506849315,600L925.331506849315,600L922.8547945205479,600L922.8547945205479,600L920.3780821917808,600L920.3780821917808,600L917.9013698630138,600L917.9013698630138,600L915.4246575342465,600L915.4246575342465,600L912.9479452054795,600L912.9479452054795,600L910.4712328767123,600L910.4712328767123,600L907.9945205479453,600L907.9945205479453,600L905.517808219178,600L905.517808219178,600L903.041095890411,600L903.041095890411,600L900.5643835616438,600L900.5643835616438,600L898.0876712328767,600L898.0876712328767,600L895.6109589041096,600L895.6109589041096,600L893.1342465753423,600L893.1342465753423,600L890.6575342465753,600L890.6575342465753,600L888.1808219178083,600L888.1808219178083,600L885.7041095890411,600L885.7041095890411,600L883.2273972602741,600L883.2273972602741,600L880.7506849315068,600L880.7506849315068,600L878.2739726027398,600L878.2739726027398,600L875.7972602739726,600L875.7972602739726,600L873.3205479452055,600L873.3205479452055,600L870.8438356164384,600L870.8438356164384,600L868.3671232876711,600L868.3671232876711,600L865.8904109589041,600L865.8904109589041,600L863.4136986301369,600L863.4136986301369,600L860.9369863013699,600L860.9369863013699,600L858.4602739726027,600L858.4602739726027,600L855.9835616438356,600L855.9835616438356,600L853.5068493150686,600L853.5068493150686,600L851.0301369863014,600L851.0301369863014,600L848.5534246575343,600L848.5534246575343,600L846.0767123287671,600L846.0767123287671,600L843.5999999999999,600L843.5999999999999,600L841.1232876712329,600L841.1232876712329,600L838.6465753424657,600L838.6465753424657,600L836.1698630136987,600L836.1698630136987,600L833.6931506849314,600L833.6931506849314,600L831.2164383561644,600L831.2164383561644,600L828.7397260273972,600L828.7397260273972,600L826.2630136986302,600L826.2630136986302,600L823.786301369863,600L823.786301369863,600L821.3095890410959,600L821.3095890410959,600L818.8328767123287,600L818.8328767123287,600L816.3561643835617,600L816.3561643835617,600L813.8794520547945,600L813.8794520547945,600L811.4027397260274,600L811.4027397260274,600L808.9260273972602,600L808.9260273972602,600L806.4493150684932,600L806.4493150684932,600L803.972602739726,600L803.972602739726,600L801.495890410959,600L801.495890410959,600L799.0191780821917,600L799.0191780821917,600L796.5424657534247,600L796.5424657534247,600L794.0657534246575,600L794.0657534246575,600L791.5890410958905,600L791.5890410958905,600L789.1123287671232,600L789.1123287671232,600L786.6356164383562,600L786.6356164383562,600L784.158904109589,600L784.158904109589,600L781.682191780822,600L781.682191780822,600L779.2054794520548,600L779.2054794520548,600L776.7287671232878,600L776.7287671232878,600L774.2520547945205,600L774.2520547945205,600L771.7753424657533,600L771.7753424657533,600L769.2986301369863,600L769.2986301369863,600L766.8219178082193,600L766.8219178082193,600L764.345205479452,600L764.345205479452,600L761.868493150685,600L761.868493150685,600L759.3917808219178,600L759.3917808219178,600L756.9150684931508,600L756.9150684931508,600L754.4383561643835,600L754.4383561643835,600L751.9616438356164,600L751.9616438356164,600L749.4849315068493,600L749.4849315068493,600L747.0082191780821,600L747.0082191780821,600L744.5315068493151,600L744.5315068493151,600L742.0547945205478,600L742.0547945205478,600L739.5780821917808,600L739.5780821917808,600L737.1013698630137,600L737.1013698630137,600L734.6246575342466,600L734.6246575342466,600L732.1479452054796,600L732.1479452054796,600L729.6712328767123,600L729.6712328767123,600L727.1945205479452,600L727.1945205479452,600L724.7178082191781,600L724.7178082191781,600L722.2410958904109,600L722.2410958904109,600L719.7643835616439,600L719.7643835616439,600L717.2876712328766,600L717.2876712328766,600L714.8109589041096,600L714.8109589041096,600L712.3342465753424,600L712.3342465753424,600L709.8575342465754,600L709.8575342465754,600L707.3808219178082,600L707.3808219178082,600L704.9041095890411,600L704.9041095890411,600L702.427397260274,600L702.427397260274,600L699.9506849315069,600L699.9506849315069,600L697.4739726027397,600L697.4739726027397,600L694.9972602739726,600L694.9972602739726,600L692.5205479452054,600L692.5205479452054,600L690.0438356164384,600L690.0438356164384,600L687.5671232876712,600L687.5671232876712,600L685.0904109589042,600L685.0904109589042,600L682.6136986301369,600L682.6136986301369,600L680.1369863013699,600L680.1369863013699,600L677.6602739726027,600L677.6602739726027,600L675.1835616438357,600L675.1835616438357,600L672.7068493150684,600L672.7068493150684,600L670.2301369863014,600L670.2301369863014,600L667.7534246575342,600L667.7534246575342,600L665.2767123287672,600L665.2767123287672,600L662.8,600L662.8,600L660.323287671233,600L660.323287671233,600L657.8465753424657,600L657.8465753424657,600L655.3698630136987,600L655.3698630136987,600L652.8931506849315,600L652.8931506849315,600L650.4164383561642,600L650.4164383561642,600L647.9397260273972,600L647.9397260273972,600L645.4630136986302,600L645.4630136986302,600L642.986301369863,600L642.986301369863,600L640.509589041096,600L640.509589041096,600L638.0328767123287,600L638.0328767123287,600L635.5561643835617,600L635.5561643835617,600L633.0794520547945,600L633.0794520547945,600L630.6027397260275,600L630.6027397260275,600L628.1260273972603,600L628.1260273972603,600L625.649315068493,600L625.649315068493,600L623.172602739726,600L623.172602739726,600L620.6958904109588,600L620.6958904109588,600L618.2191780821918,600L618.2191780821918,600L615.7424657534248,600L615.7424657534248,600L613.2657534246575,600L613.2657534246575,600L610.7890410958905,600L610.7890410958905,600L608.3123287671233,600L608.3123287671233,600L605.8356164383563,600L605.8356164383563,600L603.358904109589,600L603.358904109589,600L600.8821917808218,600L600.8821917808218,600L598.4054794520548,600L598.4054794520548,600L595.9287671232876,600L595.9287671232876,600L593.4520547945206,600L593.4520547945206,600L590.9753424657533,600L590.9753424657533,600L588.4986301369863,600L588.4986301369863,600L586.0219178082192,600L586.0219178082192,600L583.5452054794521,600L583.5452054794521,600L581.0684931506851,600L581.0684931506851,600L578.5917808219178,600L578.5917808219178,600L576.1150684931506,600L576.1150684931506,600L573.6383561643836,600L573.6383561643836,600L571.1616438356164,600L571.1616438356164,600L568.6849315068494,600L568.6849315068494,600L566.2082191780821,600L566.2082191780821,600L563.7315068493151,600L563.7315068493151,600L561.2547945205479,600L561.2547945205479,600L558.7780821917809,600L558.7780821917809,600L556.3013698630136,600L556.3013698630136,600L553.8246575342466,600L553.8246575342466,600L551.3479452054794,600L551.3479452054794,600L548.8712328767124,600L548.8712328767124,600L546.3945205479451,600L546.3945205479451,600L543.9178082191781,600L543.9178082191781,600L541.4410958904109,600L541.4410958904109,600L538.9643835616439,600L538.9643835616439,600L536.4876712328767,600L536.4876712328767,600L534.0109589041097,600L534.0109589041097,600L531.5342465753425,600L531.5342465753425,600L529.0575342465753,600L529.0575342465753,600L526.5808219178082,600L526.5808219178082,600L524.1041095890411,600L524.1041095890411,600L521.6273972602739,600L521.6273972602739,600L519.1506849315069,600L519.1506849315069,600L516.6739726027397,600L516.6739726027397,600L514.1972602739727,600L514.1972602739727,600L511.7205479452055,600L511.7205479452055,600L509.2438356164384,600L509.2438356164384,600L506.7671232876712,600L506.7671232876712,600L504.2904109589041,600L504.2904109589041,600L501.81369863013697,600L501.81369863013697,600L499.33698630136985,600L499.33698630136985,600L496.8602739726027,600L496.8602739726027,600L494.3835616438356,600L494.3835616438356,600L491.9068493150685,600L491.9068493150685,600L489.43013698630136,600L489.43013698630136,600L486.9534246575343,600L486.9534246575343,600L484.4767123287672,600L484.4767123287672,600L482,600L482,600L479.5232876712329,600L479.5232876712329,600L477.04657534246576,600L477.04657534246576,600L474.56986301369864,600L474.56986301369864,600L472.0931506849315,600L472.0931506849315,600L469.6164383561644,600L469.6164383561644,600L467.1397260273973,600L467.1397260273973,600L464.66301369863015,600L464.66301369863015,600L462.186301369863,600L462.186301369863,600L459.7095890410959,600L459.7095890410959,600L457.2328767123288,600L457.2328767123288,600L454.75616438356167,600L454.75616438356167,600L452.27945205479455,600L452.27945205479455,600L449.80273972602737,600L449.80273972602737,600L447.32602739726025,600L447.32602739726025,600L444.8493150684932,600L444.8493150684932,600L442.37260273972606,600L442.37260273972606,600L439.89589041095894,600L439.89589041095894,600L437.41917808219176,600L437.41917808219176,600L434.94246575342464,600L434.94246575342464,600L432.5173515981735,600L432.5173515981735,600L430.0922374429224,600L430.0922374429224,600L427.6155251141553,600L427.6155251141553,600L425.1388127853881,600L425.1388127853881,600L422.66210045662103,600L422.66210045662103,600L420.1853881278539,600L420.1853881278539,600L417.7086757990868,600L417.7086757990868,600L415.23196347031967,600L415.23196347031967,600L412.7552511415525,600L412.7552511415525,600L410.27853881278537,600L410.27853881278537,600L407.80182648401825,600L407.80182648401825,600L405.3251141552512,600L405.3251141552512,600L402.84840182648406,600L402.84840182648406,600L400.3716894977169,600L400.3716894977169,600L397.89497716894977,600L397.89497716894977,600L395.41826484018264,600L395.41826484018264,600L392.9415525114155,600L392.9415525114155,600L390.4648401826484,600L390.4648401826484,600L387.9881278538813,600L387.9881278538813,600L385.51141552511416,600L385.51141552511416,600L383.03470319634704,600L383.03470319634704,600L380.5579908675799,600L380.5579908675799,600L378.0812785388128,600L378.0812785388128,600L375.6045662100457,600L375.6045662100457,600L373.12785388127855,600L373.12785388127855,600L370.65114155251143,600L370.65114155251143,600L368.17442922374426,600L368.17442922374426,600L365.69771689497713,600L365.69771689497713,600L363.22100456621,600L363.22100456621,600L360.7442922374429,600L360.7442922374429,600L358.2675799086758,600L358.2675799086758,600L355.79086757990865,600L355.79086757990865,600L353.31415525114153,600L353.31415525114153,600L350.8374429223744,600L350.8374429223744,600L348.3607305936073,600L348.3607305936073,600L345.88401826484017,600L345.88401826484017,600L343.40730593607304,600L343.40730593607304,600L340.9305936073059,600L340.9305936073059,600L338.4538812785388,600L338.4538812785388,600L335.9771689497717,600L335.9771689497717,600L333.50045662100456,600L333.50045662100456,600L331.02374429223744,600L331.02374429223744,600L328.5470319634703,600L328.5470319634703,600L326.0703196347032,600L326.0703196347032,600L323.5936073059361,600L323.5936073059361,600L321.11689497716895,600L321.11689497716895,600L318.64018264840183,600L318.64018264840183,600L316.1634703196347,600L316.1634703196347,600L313.6867579908676,600L313.6867579908676,600L311.21004566210047,600L311.21004566210047,600L308.73333333333335,600L308.73333333333335,600L306.2566210045662,600L306.2566210045662,600L303.77990867579905,600L303.77990867579905,600L301.303196347032,600L301.303196347032,600L298.82648401826486,600L298.82648401826486,600L296.34977168949774,600L296.34977168949774,600L293.8730593607306,600L293.8730593607306,600L291.39634703196344,600L291.39634703196344,600L288.9196347031963,600L288.9196347031963,600L286.4429223744292,600L286.4429223744292,600L283.9662100456621,600L283.9662100456621,600L281.48949771689496,600L281.48949771689496,600L279.01278538812784,600L279.01278538812784,600L276.5360730593607,600L276.5360730593607,600L274.0593607305936,600L274.0593607305936,600L271.5826484018265,600L271.5826484018265,600L269.10593607305935,600L269.10593607305935,600L266.62922374429223,600L266.62922374429223,600L264.1525114155251,600L264.1525114155251,600L261.675799086758,600L261.675799086758,600L259.19908675799087,600L259.19908675799087,600L256.72237442922375,600L256.72237442922375,600L254.24566210045663,600L254.24566210045663,600L251.7689497716895,600L251.7689497716895,600L249.29223744292239,600L249.29223744292239,600L246.81552511415526,600L246.81552511415526,600L244.33881278538814,600L244.33881278538814,600L241.86210045662102,600L241.86210045662102,600L239.38538812785387,600L239.38538812785387,600L236.90867579908678,600L236.90867579908678,600L234.43196347031966,600L234.43196347031966,600L231.9552511415525,600L231.9552511415525,600L229.4785388127854,600L229.4785388127854,600L227.00182648401827,600L227.00182648401827,600L224.52511415525112,600L224.52511415525112,600L222.048401826484,600L222.048401826484,600L219.5716894977169,600L219.5716894977169,600L217.09497716894975,600L217.09497716894975,600L214.61826484018263,600L214.61826484018263,600L212.1415525114155,600L212.1415525114155,600L209.6648401826484,600L209.6648401826484,600L207.18812785388127,600L207.18812785388127,600L204.71141552511415,600L204.71141552511415,600L202.23470319634703,600L202.23470319634703,600L199.7579908675799,600L199.7579908675799,600L197.28127853881278,600L197.28127853881278,600L194.80456621004566,600L194.80456621004566,600L192.32785388127854,600L192.32785388127854,600L189.85114155251142,600L189.85114155251142,600L187.3744292237443,600L187.3744292237443,600L184.89771689497718,600L184.89771689497718,600L182.42100456621006,600L182.42100456621006,600L179.94429223744294,600L179.94429223744294,600L177.46757990867582,600L177.46757990867582,600L174.9908675799087,600L174.9908675799087,600L172.51415525114155,600L172.51415525114155,600L170.03744292237445,600L170.03744292237445,600L167.56073059360733,600L167.56073059360733,600L165.08401826484018,600L165.08401826484018,600L162.60730593607306,600L162.60730593607306,600L160.13059360730594,600L160.13059360730594,600L157.65388127853882,600L157.65388127853882,600L155.17716894977167,600L155.17716894977167,600L152.70045662100455,600L152.70045662100455,600L150.22374429223743,600L150.22374429223743,600L147.7470319634703,600L147.7470319634703,600L145.27031963470318,600L145.27031963470318,600L142.79360730593606,600L142.79360730593606,600L140.31689497716894,600L140.31689497716894,600L137.84018264840182,600L137.84018264840182,600L135.3634703196347,600L135.3634703196347,600L132.88675799086758,600L132.88675799086758,600L130.41004566210046,600L130.41004566210046,600L127.93333333333334,600L127.93333333333334,600L125.45662100456622,600L125.45662100456622,600L122.9799086757991,600L122.9799086757991,600L120.45159817351598,600L120.45159817351598,600L117.92328767123287,600L117.92328767123287,600L115.44657534246576,600L115.44657534246576,600L112.96986301369864,600L112.96986301369864,600L110.4931506849315,600L110.4931506849315,600L108.01643835616439,600L108.01643835616439,600L105.53972602739725,600L105.53972602739725,600L103.06301369863013,600L103.06301369863013,600L100.58630136986302,600L100.58630136986302,600L98.10958904109589,600L98.10958904109589,600L95.63287671232877,600L95.63287671232877,600L93.15616438356165,600L93.15616438356165,600L90.67945205479452,600L90.67945205479452,600L88.2027397260274,600L88.2027397260274,600L85.72602739726028,600L85.72602739726028,600L83.24931506849316,600L83.24931506849316,600L80.77260273972603,600L80.77260273972603,600L78.2958904109589,600L78.2958904109589,600L75.81917808219177,600L75.81917808219177,600L73.34246575342465,600L73.34246575342465,600L70.86575342465753,600L70.86575342465753,600L68.3890410958904,600L68.3890410958904,600L65.91232876712328,600L65.91232876712328,600L63.43561643835616,600L63.43561643835616,600L60.95890410958904,600L60.95890410958904,600L58.48219178082192,600L58.48219178082192,600L56.0054794520548,600L56.0054794520548,600L53.528767123287665,600L53.528767123287665,600L51.052054794520544,600L51.052054794520544,600L48.57534246575342,600L48.57534246575342,600L46.0986301369863,600L46.0986301369863,600L43.62191780821918,600L43.62191780821918,600L41.14520547945206,600L41.14520547945206,600L38.66849315068493,600L38.66849315068493,600L36.19178082191781,600L36.19178082191781,600L33.71506849315068,600L33.71506849315068,600L31.23835616438356,600L31.23835616438356,600L30,600Z"/></clipPath><path fill="none" stroke="black" stroke-width="1.5" stroke-linejoin="round" stroke-linecap="round" d="M30,221.3L31.23835616438356,221.3L31.23835616438356,251L33.71506849315068,251L33.71506849315068,276.85L36.19178082191781,276.85L36.19178082191781,263.65L38.66849315068493,263.65L38.66849315068493,216.89999999999998L41.14520547945206,216.89999999999998L41.14520547945206,246.60000000000002L43.62191780821918,246.60000000000002L43.62191780821918,251.55L46.0986301369863,251.55L46.0986301369863,230.10000000000002L48.57534246575342,230.10000000000002L48.57534246575342,188.85000000000002L51.052054794520544,188.85000000000002L51.052054794520544,178.39999999999998L53.528767123287665,178.39999999999998L53.528767123287665,192.14999999999998L56.0054794520548,192.14999999999998L56.0054794520548,230.10000000000002L58.48219178082192,230.10000000000002L58.48219178082192,223.5L60.95890410958904,223.5L60.95890410958904,202.04999999999995L63.43561643835616,202.04999999999995L63.43561643835616,230.64999999999998L65.91232876712328,230.64999999999998L65.91232876712328,230.10000000000002L68.3890410958904,230.10000000000002L68.3890410958904,224.60000000000002L70.86575342465753,224.60000000000002L70.86575342465753,235.60000000000002L73.34246575342465,235.60000000000002L73.34246575342465,228.45L75.81917808219177,228.45L75.81917808219177,211.95000000000005L78.2958904109589,211.95000000000005L78.2958904109589,264.2L80.77260273972603,264.2L80.77260273972603,270.79999999999995L83.24931506849316,270.79999999999995L83.24931506849316,270.79999999999995L85.72602739726028,270.79999999999995L85.72602739726028,268.6L88.2027397260274,268.6L88.2027397260274,251.55L90.67945205479452,251.55L90.67945205479452,269.7L93.15616438356165,269.7L93.15616438356165,270.79999999999995L95.63287671232877,270.79999999999995L95.63287671232877,336.25L98.10958904109589,336.25L98.10958904109589,345.05L100.58630136986302,345.05L100.58630136986302,357.7L103.06301369863013,357.7L103.06301369863013,326.9L105.53972602739725,326.9L105.53972602739725,297.2L108.01643835616439,297.2L108.01643835616439,310.4L110.4931506849315,310.4L110.4931506849315,294.45L112.96986301369864,294.45L112.96986301369864,294.45L115.44657534246576,294.45L115.44657534246576,330.75L117.92328767123287,330.75L117.92328767123287,329.1L120.45159817351598,329.1L120.45159817351598,301.05L122.9799086757991,301.05L122.9799086757991,264.75L125.45662100456622,264.75L125.45662100456622,274.65L127.93333333333334,274.65L127.93333333333334,252.64999999999998L130.41004566210046,252.64999999999998L130.41004566210046,303.25L132.88675799086758,303.25L132.88675799086758,312.6L135.3634703196347,312.6L135.3634703196347,288.95L137.84018264840182,288.95L137.84018264840182,257.6L140.31689497716894,257.6L140.31689497716894,241.65000000000003L142.79360730593606,241.65000000000003L142.79360730593606,259.25000000000006L145.27031963470318,259.25000000000006L145.27031963470318,297.2L147.7470319634703,297.2L147.7470319634703,341.75L150.22374429223743,341.75L150.22374429223743,326.35L152.70045662100455,326.35L152.70045662100455,273L155.17716894977167,273L155.17716894977167,272.45L157.65388127853882,272.45L157.65388127853882,298.3L160.13059360730594,298.3L160.13059360730594,295L162.60730593607306,295L162.60730593607306,328L165.08401826484018,328L165.08401826484018,293.35L167.56073059360733,293.35L167.56073059360733,283.45L170.03744292237445,283.45L170.03744292237445,297.2L172.51415525114155,297.2L172.51415525114155,255.39999999999998L174.9908675799087,255.39999999999998L174.9908675799087,244.95L177.46757990867582,244.95L177.46757990867582,291.7L179.94429223744294,291.7L179.94429223744294,326.35L182.42100456621006,326.35L182.42100456621006,328.55L184.89771689497718,328.55L184.89771689497718,338.45L187.3744292237443,338.45L187.3744292237443,328.55L189.85114155251142,328.55L189.85114155251142,293.9L192.32785388127854,293.9L192.32785388127854,271.9L194.80456621004566,271.9L194.80456621004566,269.7L197.28127853881278,269.7L197.28127853881278,331.3L199.7579908675799,331.3L199.7579908675799,337.9L202.23470319634703,337.9L202.23470319634703,322.5L204.71141552511415,322.5L204.71141552511415,384.1L207.18812785388127,384.1L207.18812785388127,367.6L209.6648401826484,367.6L209.6648401826484,357.7L212.1415525114155,357.7L212.1415525114155,339.55L214.61826484018263,339.55L214.61826484018263,297.2L217.09497716894975,297.2L217.09497716894975,293.9L219.5716894977169,293.9L219.5716894977169,346.7L222.048401826484,346.7L222.048401826484,409.95L224.52511415525112,409.95L224.52511415525112,384.65L227.00182648401827,384.65L227.00182648401827,318.1L229.4785388127854,318.1L229.4785388127854,309.3L231.9552511415525,309.3L231.9552511415525,270.79999999999995L234.43196347031966,270.79999999999995L234.43196347031966,307.1L236.90867579908678,307.1L236.90867579908678,378.05L239.38538812785387,378.05L239.38538812785387,372.55L241.86210045662102,372.55L241.86210045662102,330.2L244.33881278538814,330.2L244.33881278538814,334.05L246.81552511415526,334.05L246.81552511415526,315.9L249.29223744292239,315.9L249.29223744292239,400.6L251.7689497716895,400.6L251.7689497716895,345.6L254.24566210045663,345.6L254.24566210045663,296.1L256.72237442922375,296.1L256.72237442922375,315.35L259.19908675799087,315.35L259.19908675799087,332.4L261.675799086758,332.4L261.675799086758,403.35L264.1525114155251,403.35L264.1525114155251,464.4L266.62922374429223,464.4L266.62922374429223,393.45L269.10593607305935,393.45L269.10593607305935,343.4L271.5826484018265,343.4L271.5826484018265,311.5L274.0593607305936,311.5L274.0593607305936,317L276.5360730593607,317L276.5360730593607,379.15L279.01278538812784,379.15L279.01278538812784,353.3L281.48949771689496,353.3L281.48949771689496,347.8L283.9662100456621,347.8L283.9662100456621,320.3L286.4429223744292,320.3L286.4429223744292,346.15L288.9196347031963,346.15L288.9196347031963,402.8L291.39634703196344,402.8L291.39634703196344,438.55L293.8730593607306,438.55L293.8730593607306,445.7L296.34977168949774,445.7L296.34977168949774,351.1L298.82648401826486,351.1L298.82648401826486,332.4L301.303196347032,332.4L301.303196347032,425.35L303.77990867579905,425.35L303.77990867579905,389.6L306.2566210045662,389.6L306.2566210045662,419.3L308.73333333333335,419.3L308.73333333333335,432.5L311.21004566210047,432.5L311.21004566210047,353.3L313.6867579908676,353.3L313.6867579908676,302.15L316.1634703196347,302.15L316.1634703196347,333.5L318.64018264840183,333.5L318.64018264840183,365.95L321.11689497716895,365.95L321.11689497716895,304.9L323.5936073059361,304.9L323.5936073059361,329.65L326.0703196347032,329.65L326.0703196347032,349.45L328.5470319634703,349.45L328.5470319634703,361L331.02374429223744,361L331.02374429223744,330.75L333.50045662100456,330.75L333.50045662100456,292.8L335.9771689497717,292.8L335.9771689497717,318.1L338.4538812785388,318.1L338.4538812785388,363.75L340.9305936073059,363.75L340.9305936073059,345.6L343.40730593607304,345.6L343.40730593607304,369.25L345.88401826484017,369.25L345.88401826484017,354.95L348.3607305936073,354.95L348.3607305936073,332.4L350.8374429223744,332.4L350.8374429223744,369.25L353.31415525114153,369.25L353.31415525114153,369.25L355.79086757990865,369.25L355.79086757990865,359.35L358.2675799086758,359.35L358.2675799086758,367.05L360.7442922374429,367.05L360.7442922374429,406.65L363.22100456621,406.65L363.22100456621,387.95L365.69771689497713,387.95L365.69771689497713,352.2L368.17442922374426,352.2L368.17442922374426,337.35L370.65114155251143,337.35L370.65114155251143,351.65L373.12785388127855,351.65L373.12785388127855,317L375.6045662100457,317L375.6045662100457,343.4L378.0812785388128,343.4L378.0812785388128,351.1L380.5579908675799,351.1L380.5579908675799,360.45L383.03470319634704,360.45L383.03470319634704,365.95L385.51141552511416,365.95L385.51141552511416,319.75L387.9881278538813,319.75L387.9881278538813,291.7L390.4648401826484,291.7L390.4648401826484,335.15L392.9415525114155,335.15L392.9415525114155,335.70000000000005L395.41826484018264,335.70000000000005L395.41826484018264,367.05L397.89497716894977,367.05L397.89497716894977,345.05L400.3716894977169,345.05L400.3716894977169,317.55L402.84840182648406,317.55L402.84840182648406,346.15L405.3251141552512,346.15L405.3251141552512,342.85L407.80182648401825,342.85L407.80182648401825,367.6L410.27853881278537,367.6L410.27853881278537,308.2L412.7552511415525,308.2L412.7552511415525,326.9L415.23196347031967,326.9L415.23196347031967,358.25L417.7086757990868,358.25L417.7086757990868,389.05L420.1853881278539,389.05L420.1853881278539,331.85L422.66210045662103,331.85L422.66210045662103,288.4L425.1388127853881,288.4L425.1388127853881,307.1L427.6155251141553,307.1L427.6155251141553,365.4L430.0922374429224,365.4L430.0922374429224,334.05L432.5173515981735,334.05L432.5173515981735,301.6L434.94246575342464,301.6L434.94246575342464,280.7L437.41917808219176,280.7L437.41917808219176,237.25L439.89589041095894,237.25L439.89589041095894,310.4L442.37260273972606,310.4L442.37260273972606,324.15L444.8493150684932,324.15L444.8493150684932,304.9L447.32602739726025,304.9L447.32602739726025,304.9L449.80273972602737,304.9L449.80273972602737,277.95L452.27945205479455,277.95L452.27945205479455,252.10000000000002L454.75616438356167,252.10000000000002L454.75616438356167,253.75L457.2328767123288,253.75L457.2328767123288,254.85000000000002L459.7095890410959,254.85000000000002L459.7095890410959,230.64999999999998L462.186301369863,230.64999999999998L462.186301369863,263.1L464.66301369863015,263.1L464.66301369863015,303.8L467.1397260273973,303.8L467.1397260273973,296.1L469.6164383561644,296.1L469.6164383561644,352.2L472.0931506849315,352.2L472.0931506849315,296.65L474.56986301369864,296.65L474.56986301369864,257.6L477.04657534246576,257.6L477.04657534246576,314.25L479.5232876712329,314.25L479.5232876712329,337.9L482,337.9L482,320.85L484.4767123287672,320.85L484.4767123287672,305.45L486.9534246575343,305.45L486.9534246575343,288.4L489.43013698630136,288.4L489.43013698630136,234.5L491.9068493150685,234.5L491.9068493150685,291.15L494.3835616438356,291.15L494.3835616438356,306L496.8602739726027,306L496.8602739726027,288.95L499.33698630136985,288.95L499.33698630136985,263.65L501.81369863013697,263.65L501.81369863013697,249.35000000000002L504.2904109589041,249.35000000000002L504.2904109589041,267.5L506.7671232876712,267.5L506.7671232876712,300.5L509.2438356164384,300.5L509.2438356164384,285.65L511.7205479452055,285.65L511.7205479452055,277.95L514.1972602739727,277.95L514.1972602739727,266.4L516.6739726027397,266.4L516.6739726027397,227.35000000000002L519.1506849315069,227.35000000000002L519.1506849315069,224.05L521.6273972602739,224.05L521.6273972602739,188.85000000000002L524.1041095890411,188.85000000000002L524.1041095890411,245.5L526.5808219178082,245.5L526.5808219178082,272.45L529.0575342465753,272.45L529.0575342465753,259.25000000000006L531.5342465753425,259.25000000000006L531.5342465753425,249.89999999999998L534.0109589041097,249.89999999999998L534.0109589041097,281.8L536.4876712328767,281.8L536.4876712328767,286.2L538.9643835616439,286.2L538.9643835616439,298.85L541.4410958904109,298.85L541.4410958904109,281.25L543.9178082191781,281.25L543.9178082191781,292.25L546.3945205479451,292.25L546.3945205479451,284.55L548.8712328767124,284.55L548.8712328767124,309.3L551.3479452054794,309.3L551.3479452054794,272.45L553.8246575342466,272.45L553.8246575342466,284.55L556.3013698630136,284.55L556.3013698630136,254.3L558.7780821917809,254.3L558.7780821917809,274.65L561.2547945205479,274.65L561.2547945205479,277.95L563.7315068493151,277.95L563.7315068493151,255.39999999999998L566.2082191780821,255.39999999999998L566.2082191780821,256.5L568.6849315068494,256.5L568.6849315068494,258.7L571.1616438356164,258.7L571.1616438356164,269.7L573.6383561643836,269.7L573.6383561643836,251.55L576.1150684931506,251.55L576.1150684931506,244.39999999999998L578.5917808219178,244.39999999999998L578.5917808219178,233.95L581.0684931506851,233.95L581.0684931506851,241.65000000000003L583.5452054794521,241.65000000000003L583.5452054794521,217.45000000000005L586.0219178082192,217.45000000000005L586.0219178082192,210.84999999999997L588.4986301369863,210.84999999999997L588.4986301369863,216.89999999999998L590.9753424657533,216.89999999999998L590.9753424657533,229L593.4520547945206,229L593.4520547945206,219.09999999999997L595.9287671232876,219.09999999999997L595.9287671232876,215.25L598.4054794520548,215.25L598.4054794520548,234.5L600.8821917808218,234.5L600.8821917808218,225.7L603.358904109589,225.7L603.358904109589,205.89999999999998L605.8356164383563,205.89999999999998L605.8356164383563,225.14999999999998L608.3123287671233,225.14999999999998L608.3123287671233,219.64999999999998L610.7890410958905,219.64999999999998L610.7890410958905,204.79999999999995L613.2657534246575,204.79999999999995L613.2657534246575,215.25L615.7424657534248,215.25L615.7424657534248,210.3L618.2191780821918,210.3L618.2191780821918,188.29999999999995L620.6958904109588,188.29999999999995L620.6958904109588,174.54999999999995L623.172602739726,174.54999999999995L623.172602739726,160.79999999999995L625.649315068493,160.79999999999995L625.649315068493,152.55L628.1260273972603,152.55L628.1260273972603,169.04999999999995L630.6027397260275,169.04999999999995L630.6027397260275,171.25L633.0794520547945,171.25L633.0794520547945,200.39999999999998L635.5561643835617,200.39999999999998L635.5561643835617,194.35000000000002L638.0328767123287,194.35000000000002L638.0328767123287,197.64999999999998L640.509589041096,197.64999999999998L640.509589041096,229.55L642.986301369863,229.55L642.986301369863,249.35000000000002L645.4630136986302,249.35000000000002L645.4630136986302,230.64999999999998L647.9397260273972,230.64999999999998L647.9397260273972,203.14999999999998L650.4164383561642,203.14999999999998L650.4164383561642,192.14999999999998L652.8931506849315,192.14999999999998L652.8931506849315,172.90000000000003L655.3698630136987,172.90000000000003L655.3698630136987,170.7L657.8465753424657,170.7L657.8465753424657,189.39999999999998L660.323287671233,189.39999999999998L660.323287671233,202.04999999999995L662.8,202.04999999999995L662.8,203.14999999999998L665.2767123287672,203.14999999999998L665.2767123287672,197.64999999999998L667.7534246575342,197.64999999999998L667.7534246575342,193.24999999999994L670.2301369863014,193.24999999999994L670.2301369863014,198.75L672.7068493150684,198.75L672.7068493150684,216.89999999999998L675.1835616438357,216.89999999999998L675.1835616438357,230.64999999999998L677.6602739726027,230.64999999999998L677.6602739726027,204.79999999999995L680.1369863013699,204.79999999999995L680.1369863013699,141.55L682.6136986301369,141.55L682.6136986301369,84.35000000000002L685.0904109589042,84.35000000000002L685.0904109589042,117.89999999999998L687.5671232876712,117.89999999999998L687.5671232876712,146.5L690.0438356164384,146.5L690.0438356164384,155.3L692.5205479452054,155.3L692.5205479452054,180.04999999999995L694.9972602739726,180.04999999999995L694.9972602739726,207.55L697.4739726027397,207.55L697.4739726027397,165.75L699.9506849315069,165.75L699.9506849315069,144.3L702.427397260274,144.3L702.427397260274,132.20000000000005L704.9041095890411,132.20000000000005L704.9041095890411,106.89999999999998L707.3808219178082,106.89999999999998L707.3808219178082,120.10000000000002L709.8575342465754,120.10000000000002L709.8575342465754,116.25L712.3342465753424,116.25L712.3342465753424,128.89999999999998L714.8109589041096,128.89999999999998L714.8109589041096,142.09999999999997L717.2876712328766,142.09999999999997L717.2876712328766,96.44999999999999L719.7643835616439,96.44999999999999L719.7643835616439,130.54999999999995L722.2410958904109,130.54999999999995L722.2410958904109,110.75L724.7178082191781,110.75L724.7178082191781,121.75000000000006L727.1945205479452,121.75000000000006L727.1945205479452,142.09999999999997L729.6712328767123,142.09999999999997L729.6712328767123,151.45000000000005L732.1479452054796,151.45000000000005L732.1479452054796,150.34999999999997L734.6246575342466,150.34999999999997L734.6246575342466,153.10000000000002L737.1013698630137,153.10000000000002L737.1013698630137,145.39999999999998L739.5780821917808,145.39999999999998L739.5780821917808,133.85000000000002L742.0547945205478,133.85000000000002L742.0547945205478,136.04999999999995L744.5315068493151,136.04999999999995L744.5315068493151,132.20000000000005L747.0082191780821,132.20000000000005L747.0082191780821,111.85000000000002L749.4849315068493,111.85000000000002L749.4849315068493,106.35000000000002L751.9616438356164,106.35000000000002L751.9616438356164,156.95000000000005L754.4383561643835,156.95000000000005L754.4383561643835,193.79999999999995L756.9150684931508,193.79999999999995L756.9150684931508,193.79999999999995L759.3917808219178,193.79999999999995L759.3917808219178,172.90000000000003L761.868493150685,172.90000000000003L761.868493150685,154.20000000000005L764.345205479452,154.20000000000005L764.345205479452,115.70000000000005L766.8219178082193,115.70000000000005L766.8219178082193,138.8L769.2986301369863,138.8L769.2986301369863,146.5L771.7753424657533,146.5L771.7753424657533,133.29999999999995L774.2520547945205,133.29999999999995L774.2520547945205,144.3L776.7287671232878,144.3L776.7287671232878,171.25L779.2054794520548,171.25L779.2054794520548,169.04999999999995L781.682191780822,169.04999999999995L781.682191780822,165.2L784.158904109589,165.2L784.158904109589,157.5L786.6356164383562,157.5L786.6356164383562,142.64999999999998L789.1123287671232,142.64999999999998L789.1123287671232,131.64999999999998L791.5890410958905,131.64999999999998L791.5890410958905,132.20000000000005L794.0657534246575,132.20000000000005L794.0657534246575,121.75000000000006L796.5424657534247,121.75000000000006L796.5424657534247,130L799.0191780821917,130L799.0191780821917,153.64999999999998L801.495890410959,153.64999999999998L801.495890410959,142.09999999999997L803.972602739726,142.09999999999997L803.972602739726,137.70000000000005L806.4493150684932,137.70000000000005L806.4493150684932,142.09999999999997L808.9260273972602,142.09999999999997L808.9260273972602,138.25L811.4027397260274,138.25L811.4027397260274,136.60000000000002L813.8794520547945,136.60000000000002L813.8794520547945,137.70000000000005L816.3561643835617,137.70000000000005L816.3561643835617,147.59999999999997L818.8328767123287,147.59999999999997L818.8328767123287,148.14999999999998L821.3095890410959,148.14999999999998L821.3095890410959,152.55L823.786301369863,152.55L823.786301369863,143.20000000000005L826.2630136986302,143.20000000000005L826.2630136986302,170.7L828.7397260273972,170.7L828.7397260273972,182.79999999999995L831.2164383561644,182.79999999999995L831.2164383561644,175.10000000000002L833.6931506849314,175.10000000000002L833.6931506849314,165.2L836.1698630136987,165.2L836.1698630136987,159.14999999999998L838.6465753424657,159.14999999999998L838.6465753424657,159.7L841.1232876712329,159.7L841.1232876712329,152L843.5999999999999,152L843.5999999999999,150.89999999999998L846.0767123287671,150.89999999999998L846.0767123287671,166.29999999999995L848.5534246575343,166.29999999999995L848.5534246575343,159.7L851.0301369863014,159.7L851.0301369863014,133.29999999999995L853.5068493150686,133.29999999999995L853.5068493150686,159.14999999999998L855.9835616438356,159.14999999999998L855.9835616438356,165.75L858.4602739726027,165.75L858.4602739726027,141.55L860.9369863013699,141.55L860.9369863013699,126.14999999999998L863.4136986301369,126.14999999999998L863.4136986301369,156.95000000000005L865.8904109589041,156.95000000000005L865.8904109589041,165.75L868.3671232876711,165.75L868.3671232876711,165.75L870.8438356164384,165.75L870.8438356164384,142.64999999999998L873.3205479452055,142.64999999999998L873.3205479452055,161.89999999999998L875.7972602739726,161.89999999999998L875.7972602739726,152L878.2739726027398,152L878.2739726027398,145.95000000000005L880.7506849315068,145.95000000000005L880.7506849315068,186.64999999999998L883.2273972602741,186.64999999999998L883.2273972602741,197.10000000000002L885.7041095890411,197.10000000000002L885.7041095890411,218L888.1808219178083,218L888.1808219178083,195.45000000000005L890.6575342465753,195.45000000000005L890.6575342465753,188.85000000000002L893.1342465753423,188.85000000000002L893.1342465753423,185L895.6109589041096,185L895.6109589041096,188.85000000000002L898.0876712328767,188.85000000000002L898.0876712328767,205.35000000000002L900.5643835616438,205.35000000000002L900.5643835616438,201.5L903.041095890411,201.5L903.041095890411,169.60000000000002L905.517808219178,169.60000000000002L905.517808219178,200.39999999999998L907.9945205479453,200.39999999999998L907.9945205479453,228.45L910.4712328767123,228.45L910.4712328767123,218L912.9479452054795,218L912.9479452054795,209.75L915.4246575342465,209.75L915.4246575342465,208.64999999999998L917.9013698630138,208.64999999999998L917.9013698630138,237.8L920.3780821917808,237.8L920.3780821917808,222.39999999999998L922.8547945205479,222.39999999999998L922.8547945205479,193.24999999999994L925.331506849315,193.24999999999994L925.331506849315,189.39999999999998L927.8082191780823,189.39999999999998L927.8082191780823,192.14999999999998L930.2849315068493,192.14999999999998L930.2849315068493,226.25L932.7616438356165,226.25L932.7616438356165,227.35000000000002L934,227.35000000000002"/></svg>